<?xml version="1.0" standalone="no"?>
<!DOCTYPE svg PUBLIC "-//W3C//DTD SVG 1.1//EN" "http://www.w3.org/Graphics/SVG/1.1/DTD/svg11.dtd" >
<svg xmlns="http://www.w3.org/2000/svg" xmlns:xlink="http://www.w3.org/1999/xlink" version="1.1">
<metadata>
Created by FontForge 20230101 at Sun Nov  2 07:22:54 2014
 By Unknown
Copyright (c) 2006 by Jeremy Dooley. All rights reserved.
</metadata>
<defs>
<font id="EnziaW00-Light" horiz-adv-x="738" >
  <font-face 
    font-family="Enzia Light"
    font-weight="300"
    font-stretch="normal"
    units-per-em="1000"
    panose-1="2 0 0 0 0 0 0 0 0 0"
    ascent="800"
    descent="-200"
    x-height="462"
    cap-height="686"
    bbox="-143 -358 1292 984"
    underline-thickness="50"
    underline-position="-175"
    unicode-range="U+0020-FB06"
  />
<missing-glyph horiz-adv-x="260" 
 />
    <glyph glyph-name="uniE008" unicode="ffj" horiz-adv-x="754" 
d="M556 -255q30 42 54 87t25 101q1 51 2 92.5t1 83.5q1 29 1.5 56.5t0.5 56.5q0 55 -1.5 110t-4.5 93q-27 0 -59 0.5t-61.5 1t-52 0.5h-30.5v-171q0 -67 1.5 -136t3.5 -120q-9 1 -17.5 2t-17.5 1t-18 -1t-17 -2q3 54 4 120.5t1 132.5v172q-21 0 -43 0.5t-47 1t-54.5 0.5
h-65.5v-171q0 -67 1 -136t4 -120q-9 1 -17.5 2t-17.5 1t-18 -1t-17 -2q2 54 3.5 120.5t1.5 132.5v173q-17 0 -34.5 -0.5t-34.5 -0.5v38l69 -3v13q0 63 15 105t39 67.5t54 36t59 10.5q38 0 70.5 -15.5t52.5 -45.5q17 38 42.5 58.5t54.5 31.5q32 13 69 10q36 -2 65 -17t46 -44
q5 -8 9.5 -16.5t4.5 -18.5q0 -15 -12 -25.5t-26 -10.5t-24 8t-12 20q-2 10 1 19q1 5 3.5 8t5.5 7q-16 17 -32.5 27.5t-47.5 10.5q-53 0 -80 -51.5t-27 -134.5v-53h46h43t46.5 0.5t44.5 1t38 0.5q29 0 56 9q-3 -50 -4 -112t-1 -120q0 -46 0.5 -84.5t1.5 -78.5q1 -32 1 -65.5
t-2 -72.5q-2 -14 -7.5 -30.5t-19 -40t-38 -57t-64.5 -80.5zM371 484q0 29 1 54t4 46l-4 8q-17 27 -41 45.5t-60 19.5q-8 0 -15 -1t-14 -3q-42 -11 -61.5 -60t-19.5 -122v-11l210 1v23z" />
    <glyph glyph-name="uniE009" unicode="fj" horiz-adv-x="463" 
d="M261 -255q30 42 53.5 87t25.5 101l3 180q1 29 1.5 57.5t0.5 57.5q-1 55 -2 108t-4 89q-26 0 -55 0.5t-56 1t-48 0.5h-31v-171q0 -67 1 -136t4 -120q-9 1 -17.5 2t-17.5 1t-18 -1t-17 -2q2 54 3.5 120.5t1.5 132.5v173q-17 0 -34.5 -0.5t-34.5 -0.5v38l69 -3v55
q0 57 12.5 96t33.5 64.5t47 38.5t53 17q19 3 39 0q39 -2 68.5 -19.5t45.5 -49.5q3 -14 2.5 -25.5t-8.5 -19.5q-2 -8 -11 -12.5t-18 -3.5q-12 2 -20.5 12t-8.5 22q0 15 12 26q-16 17 -32.5 27.5t-48.5 10.5q-27 0 -47 -13.5t-33 -38t-19.5 -59t-6.5 -75.5v-53h42
q26 0 59 -0.5t64 0t57 2.5t39 7q-3 -50 -4 -108t-1 -116q0 -49 1 -92t2 -89v-59.5t-2 -65.5q-2 -14 -7 -30.5t-18.5 -40.5t-38.5 -57t-66 -81z" />
    <glyph glyph-name="uniFB00" unicode="ff" horiz-adv-x="635" 
d="M596 425q-41 1 -82 1.5t-83 0.5v-182q0 -65 1.5 -130.5t3.5 -114.5q-7 1 -13.5 1.5t-13.5 0.5q-3 0 -7 0.5t-7 0.5l-29 -3q3 51 4 115.5t1 128.5v181q-21 0 -43 0.5t-47 1t-54.5 0.5h-65.5v-182q0 -65 1 -130.5t4 -114.5q-9 1 -17.5 2t-17.5 1t-18 -1t-17 -2
q2 51 3.5 115.5t1.5 128.5v182q-17 0 -34.5 -0.5t-34.5 -0.5v38l69 -3v13q0 63 15 105t39 67.5t54 36t59 10.5q38 0 70.5 -15.5t52.5 -45.5q20 49 55 72t72 28q16 3 28 2q79 -2 120 -59q5 -8 10.5 -18t5.5 -21q0 -12 -8 -20.5t-18 -10.5q-11 -2 -20 2t-13 12
q-7 3 -11.5 10.5t-2.5 17.5q1 5 3.5 8t5.5 7q-16 17 -32.5 27.5t-47.5 10.5q-55 0 -81 -51.5t-26 -134.5v-53q42 0 83 0.5t82 1.5v-37zM371 505q0 23 1.5 42.5t3.5 36.5l-4 8q-17 27 -41 45.5t-60 19.5q-13 0 -25 -3q-44 -9 -64.5 -58.5t-20.5 -124.5v-11l210 1v44z" />
    <glyph glyph-name="uniFB01" unicode="fi" horiz-adv-x="467" 
d="M149 396v-71t0.5 -105.5t1.5 -116.5t3 -103q-8 1 -14 1.5t-13 0.5q-4 0 -7.5 0.5t-7.5 0.5l-28 -3q2 49 3.5 109.5t1.5 122.5v194q-17 0 -34.5 -0.5t-34.5 -0.5v38l69 -3v55q0 57 12.5 96t33.5 64.5t47 38.5t53 17q9 2 18.5 2t18.5 -1q38 -2 67.5 -18t46.5 -45
q5 -8 9.5 -16.5t4.5 -17.5q0 -12 -8.5 -20.5t-17.5 -10.5q-11 -2 -20 2t-13 12q-17 7 -15 28q2 5 4.5 8t5.5 7q-16 17 -32.5 27.5t-48.5 10.5q-27 0 -47 -13.5t-33 -38t-19.5 -59t-6.5 -75.5v-53h35h39h45t45.5 0.5t40.5 0.5q14 0 28 1.5t28 6.5q-3 -51 -4.5 -111.5
t-1.5 -120.5v-57.5t1 -62t2 -61.5t3 -56q-10 1 -18.5 2t-17.5 1t-18 -1l-18 -2q2 25 3 54.5t2 60t1 60.5v56q0 54 -1 106.5t-4 87.5q-18 0 -40 0.5t-44.5 1t-43 0.5h-35.5z" />
    <glyph glyph-name="uniFB02" unicode="fl" horiz-adv-x="465" 
d="M140 425v-75v-80t1 -94t1.5 -94.5t2.5 -81.5q-9 1 -17.5 2t-17.5 1t-18 -1t-17 -2q1 37 2 82.5t2 92.5t1 92.5v82.5v75h-69v37h69v59q0 63 15.5 105t39.5 67.5t53.5 36t58.5 10.5q56 0 94 -26q16 2 34 4t32 10q-2 -41 -2.5 -88.5t-1.5 -96t-1 -96.5v-89v-85.5t0.5 -94
t1.5 -93.5t2 -85q-8 1 -16.5 2t-16.5 1t-16.5 -1t-17.5 -2q1 38 2.5 84.5t2 95t1 96t0.5 87.5q0 63 -1 121.5t-1 112.5q0 56 -24.5 82t-67.5 26q-57 0 -84 -49t-27 -137v-57h155v-37h-155z" />
    <glyph glyph-name="uniFB03" unicode="ffi" horiz-adv-x="757" 
d="M431 427v-194q0 -63 1.5 -124t3.5 -109q-9 1 -17.5 2t-17.5 1t-18 -1t-17 -2q2 49 3.5 109.5t1.5 122.5v193q-21 0 -43 0.5t-47 1t-54.5 0.5h-65.5v-194q0 -63 1.5 -124t3.5 -109q-9 1 -17.5 2t-17.5 1t-18 -1t-17 -2q2 49 3.5 109.5t1.5 122.5v194q-17 0 -34.5 -0.5
t-34.5 -0.5v38l69 -3v13q0 63 15 105t39 67.5t54 36t59 10.5q38 0 70.5 -15.5t52.5 -45.5q17 38 42.5 58.5t54.5 31.5q32 13 69 10q38 -2 67.5 -19.5t45.5 -49.5q8 -29 -5 -45q-4 -8 -14 -11.5t-19 -1.5q-11 2 -18.5 11t-7.5 20q0 14 12 26q-16 17 -32.5 27.5t-47.5 10.5
q-53 0 -80 -51t-27 -135v-53q46 -1 92.5 0t96.5 1h43.5t40.5 8q-3 -51 -4.5 -111.5t-1.5 -120.5v-57.5t1 -62t2 -61.5t3 -56q-10 1 -18.5 2t-17.5 1t-18 -1l-18 -2q2 25 3 54.5t2 60t1 60.5v56q0 54 -1 106.5t-4 87.5q-18 0 -42 0.5l-48 1t-46 0.5h-37h-29zM371 484
q0 29 1 54t4 46l-4 8q-17 27 -41 45.5t-60 19.5q-8 0 -15 -1t-14 -3q-42 -11 -61.5 -60t-19.5 -122v-11l210 1v23z" />
    <glyph glyph-name="uniFB04" unicode="ffl" horiz-adv-x="770" 
d="M651 425q-30 0 -66 0.5t-68 1t-56 0.5h-30v-171q0 -67 1.5 -136t3.5 -120q-9 1 -17.5 2t-17.5 1t-18 -1t-17 -2q3 54 4 120.5t1 132.5v172q-21 0 -43 0.5t-47 1t-54.5 0.5h-65.5v-171q0 -67 1 -136t4 -120q-9 1 -17.5 2t-17.5 1t-18 -1t-17 -2q2 46 3.5 102.5t1.5 113.5
v210q-17 0 -34.5 -0.5t-34.5 -0.5v38l69 -3v13q0 63 15 105t39 67.5t54 36t59 10.5q38 0 70.5 -15.5t52.5 -45.5q20 48 53.5 71t68.5 29q19 3 33 2q64 0 104 -46q-1 13 -2 23t-2 16q16 1 33 3t34 7q-2 -39 -3 -85.5t-1.5 -95t-0.5 -95v-85.5v-79q0 -74 1 -153t3 -143
q-9 1 -17 2t-16 1t-17 -1t-17 -2q2 38 3 84.5t2 95t1 96v87.5v62zM431 460h46t57 0.5t60.5 1t56.5 0.5l-1 59v54.5t-2 52.5q-26 39 -50.5 55t-59.5 16q-54 0 -80.5 -51t-26.5 -135v-53zM371 484q0 29 1 54t4 46l-4 8q-17 27 -41 45.5t-60 19.5q-8 0 -15 -1t-14 -3
q-42 -11 -61.5 -60t-19.5 -122v-11l210 1v23z" />
    <glyph glyph-name=".notdef" horiz-adv-x="260" 
 />
    <glyph glyph-name=".null" horiz-adv-x="0" 
 />
    <glyph glyph-name="nonmarkingreturn" horiz-adv-x="333" 
 />
    <glyph glyph-name="space" unicode=" " horiz-adv-x="226" 
 />
    <glyph glyph-name="exclam" unicode="!" horiz-adv-x="278" 
d="M127 128q-6 88 -10 160.5t-6.5 135.5t-4.5 119t-4 110q0 17 11.5 26.5t25.5 9.5q16 0 26.5 -9.5t10.5 -26.5q-2 -54 -3.5 -110t-4 -119t-7 -135.5t-10.5 -160.5h-24zM139 -11q-15 0 -26 11t-11 26q0 14 11 24t26 10t25.5 -10t10.5 -24q0 -15 -10.5 -26t-25.5 -11z" />
    <glyph glyph-name="quotedbl" unicode="&#x22;" horiz-adv-x="398" 
d="M141 467q1 38 1.5 71t0.5 65t-0.5 65.5t-1.5 71.5q15 -3 29 -3t28 3q-1 -38 -1.5 -71.5t-0.5 -66.5q0 -32 0.5 -64.5t1.5 -70.5q-14 3 -27 3q-8 0 -15 -1t-15 -2zM199 467q1 38 1 71v65v65.5t-1 71.5q15 -3 29 -3q11 0 29 3q-1 -38 -1.5 -71.5t-0.5 -66.5
q0 -32 0.5 -64.5t1.5 -70.5q-18 3 -28 3q-8 0 -15 -1t-15 -2z" />
    <glyph glyph-name="numbersign" unicode="#" horiz-adv-x="611" 
d="M326 -13q8 46 17 92.5t18 91.5l12 61h-176l-43 -245h-52q9 51 19 104t20 104l7 36q-36 0 -71 -0.5t-69 -0.5v44l148 -2q9 49 17 95.5t16 95.5q-43 -1 -85 -1.5t-84 -0.5v44q45 0 88 -1t88 -2l38 216h54l-41 -216h174q10 55 19 108.5t19 107.5h53l-40 -215q33 0 66 0.5
t66 1.5v-44h-66q-19 0 -37.5 0.5t-37.5 0.5l-20 -110l-14 -79q42 0 82 0.5t82 0.5v-44q-41 0 -84 0.5t-88 1.5q-11 -62 -21 -123t-21 -122h-53zM396 358q5 26 9 52t9 53h-175q-6 -28 -10.5 -55t-9.5 -54l-15 -82h176z" />
    <glyph glyph-name="dollar" unicode="$" horiz-adv-x="536" 
d="M232 -12q-36 1 -73.5 11t-68 26.5t-49.5 37t-19 42.5q0 17 11.5 28.5t28.5 11.5t28 -11.5t11 -28.5q0 -13 -9 -23q29 -30 69.5 -43t74.5 -13q28 0 60.5 7.5t60 24t45.5 43.5t18 65q0 33 -16 58.5t-41.5 46.5t-59 39t-68 35.5t-67.5 36.5t-58.5 42t-41.5 51.5t-16 65.5
q0 33 15.5 60t41 46.5t57.5 32t66 16.5l-3 130q19 -3 36 -3q15 0 36 3q-2 -24 -3 -57.5t-2 -72.5q26 -2 52 -8.5t49 -19.5q8 -4 19 -12.5t21 -19t17 -22.5t7 -24q0 -16 -11.5 -27.5t-28.5 -11.5q-16 0 -27.5 11.5t-11.5 27.5q0 15 9 24q-24 27 -58 37t-69 10q-26 0 -52 -8
t-47 -22.5t-34 -35t-13 -46.5q0 -40 27 -69t68 -53.5t88.5 -47.5t88.5 -52t68 -66.5t27 -90.5q0 -40 -15.5 -71t-42 -53t-60.5 -35.5t-71 -18.5q1 -39 2 -73.5t3 -60.5q-10 2 -18.5 3t-17.5 1q-17 0 -36 -4z" />
    <glyph glyph-name="percent" unicode="%" horiz-adv-x="923" 
d="M722 -7q-32 0 -61.5 13t-53 38.5t-37.5 64.5t-14 92q0 51 14 90t37.5 64.5t53 38.5t61.5 13q31 0 61 -13t53.5 -38.5t37.5 -64.5t14 -90q0 -53 -14 -92t-37.5 -64.5t-53.5 -38.5t-61 -13zM202 295q-32 0 -62 13t-53 39t-37.5 65t-14.5 91q0 51 14.5 90t37.5 64.5t53 38.5
t62 13q30 0 59.5 -13t53 -38.5t37.5 -64.5t14 -90q0 -52 -14 -91t-37.5 -65t-53 -39t-59.5 -13zM203 331q19 0 37 11t32.5 32.5t23.5 54t9 74.5t-9 74t-23.5 53t-32.5 31.5t-37 10.5q-20 0 -38.5 -10.5t-33 -31.5t-23.5 -52.5t-9 -74.5t9 -75t23.5 -53.5t33 -32.5t38.5 -11z
M723 29q19 0 37.5 11t32.5 32.5t23 53.5t9 75q0 42 -9 73.5t-23 52.5t-32.5 31.5t-37.5 10.5q-20 0 -38.5 -10t-32.5 -31t-23 -52.5t-9 -74.5t9 -75.5t23 -54t32.5 -32t38.5 -10.5zM432 357q60 88 119 176.5t119 177.5q10 -6 24.5 -12.5t26.5 -8.5q-125 -182 -245.5 -359
t-241.5 -357q-12 7 -25.5 12t-25.5 8z" />
    <glyph glyph-name="ampersand" unicode="&#x26;" horiz-adv-x="608" 
d="M484 340v-82.5t0.5 -87t1 -86t2.5 -79.5q-8 0 -17 -0.5t-17 -1.5q-6 0 -14 -0.5t-23 -1t-41 -1t-69 -0.5q-47 0 -89 10t-73.5 32.5t-50 59.5t-18.5 90q0 61 39 107.5t126 62.5q-26 5 -49 18.5t-40.5 32.5t-28 43.5t-10.5 52.5q0 49 21.5 82t55 52.5t74.5 28t80 8.5h52
q-1 -5 -2 -9t-1 -9t1 -9l2 -8h-53q-74 0 -117.5 -33.5t-43.5 -102.5q0 -38 12 -63.5t33 -40.5t49 -21.5t59 -6.5h90v105q7 -2 14 -3t15 -1q7 0 14.5 1t15.5 3v-105h105q-1 -5 -2 -9.5t-1 -9.5t1 -9t2 -9h-105zM422 37q2 69 2.5 150t0.5 153h-108q-33 0 -64 -9t-54.5 -27.5
t-38 -46.5t-14.5 -65q0 -78 39 -116.5t110 -38.5h127z" />
    <glyph glyph-name="quotesingle" unicode="'" horiz-adv-x="246" 
d="M95 467q1 38 1 71v65v65.5t-1 71.5q13 -3 28 -3q14 0 28 3q-1 -38 -1.5 -71.5t-0.5 -66.5q0 -32 0.5 -64.5t1.5 -70.5q-14 3 -27 3q-8 0 -15 -1z" />
    <glyph glyph-name="parenleft" unicode="(" horiz-adv-x="308" 
d="M284 -229q-62 46 -106 102t-72.5 118t-42 128t-13.5 133q0 66 13.5 131.5t42 127t73 117.5t106.5 102l13 -16q-42 -46 -75 -100t-56.5 -113.5t-35.5 -122.5t-12 -127q0 -65 12 -128.5t35 -123.5t56 -113.5t75 -98.5z" />
    <glyph glyph-name="parenright" unicode=")" horiz-adv-x="308" 
d="M10 -213q42 45 75 98.5t56.5 113.5t35.5 123.5t12 128.5q0 64 -12 127t-35.5 122.5t-56.5 113.5t-75 100l13 16q61 -46 105.5 -102t73.5 -117.5t42.5 -127t13.5 -131.5q0 -67 -13.5 -133t-42 -128t-73 -118t-105.5 -102z" />
    <glyph glyph-name="asterisk" unicode="*" horiz-adv-x="436" 
d="M299 490q-17 9 -32 18t-32 19v-75q8 -5 12 -14t2 -19q-5 -18 -21 -23q-4 -1 -8 -1.5t-8 1.5q-16 3 -23 20q-1 7 0 16q2 14 13 20l1 74l-66 -39v-1q-1 -18 -18 -23q-11 -5 -20 -1t-14 11q-4 6 -6 14q-1 8 2.5 16t11.5 13q5 3 12.5 4t15.5 -4q17 10 33 19.5t33 18.5l-66 39
q-8 -4 -17 -4q-11 0 -18 7t-9 17q-3 9 0.5 17t10.5 14t16.5 7.5t18.5 -3.5q7 -5 10 -12t4 -14l65 -38v73q-8 4 -12.5 13.5t-1.5 19.5q3 11 12.5 18.5t23.5 5.5q11 -2 19 -12.5t5 -24.5q-1 -6 -4.5 -10.5t-8.5 -8.5v-75l63 38v2q0 19 19 24q9 4 18.5 1t14.5 -12q5 -6 6 -13
q2 -11 -3 -20t-15 -13q-11 -4 -22 2l-64 -38l64 -37q7 4 17 4q9 0 16 -5.5t9 -13.5q6 -11 -1 -25t-21 -18q-14 -5 -25.5 5.5t-11.5 22.5v3z" />
    <glyph glyph-name="plus" unicode="+" horiz-adv-x="647" 
d="M304 33v260h-259v35h259v259h38v-259h260v-35h-260v-260h-38z" />
    <glyph glyph-name="comma" unicode="," horiz-adv-x="193" 
d="M27 -127q17 63 29.5 106t25.5 73q3 8 9.5 13t18.5 5q15 0 26.5 -11.5t6.5 -27.5q-2 -6 -7 -16.5t-16.5 -29t-29.5 -47.5t-46 -72z" />
    <glyph glyph-name="hyphen" unicode="-" horiz-adv-x="381" 
d="M339 261q0 -5 -0.5 -9t-0.5 -9t0.5 -10t0.5 -8q-34 1 -74 1.5t-75 0.5q-34 0 -74 -1t-74 -2q1 4 1 8.5v9.5v9.5t-1 9.5q34 -1 74 -1.5t74 -0.5q35 0 75 0.5t74 1.5z" />
    <glyph glyph-name="period" unicode="." horiz-adv-x="162" 
d="M119 31q0 -15 -11 -26t-27 -11t-27 11t-11 26q0 16 11 26t27 10t27 -10t11 -26z" />
    <glyph glyph-name="slash" unicode="/" horiz-adv-x="365" 
d="M9 -98q44 123 80 223t69 195q34 99 67 199.5t68 201.5q13 -3 32 -3q8 0 15.5 0.5t15.5 2.5q-39 -109 -77.5 -218t-74.5 -213.5t-69.5 -202.5t-63.5 -185q-6 2 -14.5 2h-16.5h-16t-15 -2z" />
    <glyph glyph-name="zero" unicode="0" horiz-adv-x="570" 
d="M284 -12q-47 0 -92.5 22t-81.5 66t-58.5 110t-22.5 155q0 88 22.5 155t58.5 111t81.5 66.5t92.5 22.5t93 -22.5t82 -66.5t58.5 -111t22.5 -155q0 -89 -22.5 -155t-59 -110t-82.5 -66t-92 -22zM284 25q36 0 71 19.5t62.5 59t44 98.5t16.5 138t-16.5 139t-44 100t-62.5 60
t-71 20t-70.5 -20t-61.5 -60t-43.5 -100t-16.5 -139t16.5 -138t43.5 -98.5t61.5 -59t70.5 -19.5z" />
    <glyph glyph-name="one" unicode="1" horiz-adv-x="428" 
d="M225 606q-16 -11 -31.5 -23.5t-32.5 -25.5q-5 8 -11 16.5t-12 16.5l117 106q4 -1 8 -1h9h9t9 1q-1 -24 -2 -68t-1.5 -95t-0.5 -103.5v-92.5v-86v-77.5t1 -80t3 -93.5q-8 1 -16.5 2t-17.5 1q-8 0 -16.5 -1t-16.5 -2q1 38 2 82t1.5 89t0.5 88.5v82.5v60v68t-0.5 70.5
t-1.5 65.5z" />
    <glyph glyph-name="two" unicode="2" horiz-adv-x="570" 
d="M70 0q1 4 1 14t-1 15q66 69 127 132.5t116 123.5q19 21 42 47.5t42.5 56.5t32.5 62.5t13 64.5q0 34 -12.5 60.5t-33 44.5t-47 27.5t-54.5 9.5q-29 0 -57.5 -10.5t-55.5 -36.5q2 -4 4 -7.5t4 -7.5q1 -9 0 -18q-2 -11 -12.5 -19.5t-23.5 -8.5q-16 0 -27.5 11.5t-11.5 25.5
q0 10 4 16.5t9 12.5q15 20 34.5 35t42 24.5t47 14.5t47.5 5q39 0 76 -11.5t66 -34t46.5 -55t17.5 -75.5q0 -37 -14 -73t-38.5 -72t-57 -71.5t-68.5 -71.5l-180 -186q36 -1 77 -1h76q54 0 108 0.5t108 0.5q-3 -12 -3 -22q0 -13 3 -23h-447z" />
    <glyph glyph-name="three" unicode="3" horiz-adv-x="570" 
d="M228 385q38 0 69 12.5t52.5 33.5t33 48.5t11.5 57.5q0 24 -7 46t-22.5 39t-40 27t-58.5 10q-32 0 -60 -7.5t-54 -29.5q10 -10 10 -23q0 -15 -11 -26t-27 -11q-15 0 -26.5 11t-11.5 26q0 22 18 40t44.5 30.5t57.5 19.5t58 7q50 0 86.5 -13.5t60.5 -36t35.5 -51.5t11.5 -60
q0 -22 -8.5 -47t-24.5 -47.5t-38 -40.5t-50 -26q45 -10 77 -28t53 -41t31 -50t10 -54q0 -100 -70 -156.5t-193 -56.5q-24 0 -56 7t-60.5 19.5t-48 30.5t-19.5 40q0 17 9 29t28 12q16 0 27 -10.5t11 -25.5q0 -13 -9 -22q26 -23 57.5 -33.5t63.5 -10.5q49 0 85.5 15t61 39.5
t37 56t12.5 63.5q0 41 -18.5 70.5t-48.5 48.5t-69 28t-80 11q2 10 2 14q0 10 -2 15z" />
    <glyph glyph-name="four" unicode="4" horiz-adv-x="570" 
d="M420 273q26 0 55 1t56 3q-2 -8 -2.5 -13.5t-0.5 -13.5q0 -12 3 -27q-25 3 -54.5 4t-56.5 1q0 -60 1 -118.5t4 -109.5q-9 2 -17.5 2h-17.5h-17t-17 -2q2 54 2.5 111t1.5 117h-73t-79 -0.5t-79.5 -1t-73.5 -1.5q2 8 2 17.5t-2 18.5q82 109 162 217.5t160 217.5q5 -2 11 -3
t12 -1q5 0 11 1t12 3q-4 -75 -3.5 -156.5t0.5 -169.5v-97zM360 501v57t-1 52q-62 -83 -123.5 -167.5t-121.5 -167.5q60 -2 124.5 -2h121.5v228z" />
    <glyph glyph-name="five" unicode="5" horiz-adv-x="570" 
d="M203 638l-32 -184q10 2 28 2.5t29 0.5q51 0 101 -13t89 -42.5t63.5 -76t24.5 -113.5q0 -51 -20.5 -92t-55.5 -70t-82 -45t-100 -16q-27 0 -59.5 8t-60.5 22.5t-46.5 34t-18.5 42.5q0 16 11 26.5t26 10.5q16 0 27 -10.5t11 -26.5q0 -13 -10 -23q29 -26 59.5 -36.5
t64.5 -10.5q33 0 67 11t61 33.5t44.5 57t17.5 82.5q0 52 -14.5 89t-39.5 61.5t-59 37.5t-72 17q-13 2 -26.5 2t-27.5 -1q-46 -2 -91 -17q14 72 26.5 143t24.5 143q44 -1 87 -1h87h61.5t61.5 1q-2 -6 -3 -12t-1 -12q0 -5 1 -11.5t3 -11.5h-257z" />
    <glyph glyph-name="six" unicode="6" horiz-adv-x="570" 
d="M476 696q1 -6 2 -12.5t3 -12.5q-131 -29 -223 -116t-130 -227q26 40 67.5 65.5t95.5 25.5q46 0 87.5 -16t73 -45t50 -68.5t18.5 -85.5q0 -45 -18.5 -84t-50 -68.5t-74.5 -46t-92 -16.5q-50 0 -93.5 17t-75 46.5t-49.5 69t-18 85.5q0 90 31 172.5t87 147.5t134.5 109.5
t174.5 59.5zM285 26q25 0 55 10t56 31.5t43.5 55t17.5 81.5q0 47 -17.5 81t-43.5 55.5t-56 31.5t-55 10q-26 0 -56 -10t-55.5 -31.5t-43 -55.5t-17.5 -81q0 -48 17.5 -81.5t43 -55t55.5 -31.5t56 -10z" />
    <glyph glyph-name="seven" unicode="7" horiz-adv-x="565" 
d="M177 -5q-17 3 -33 3t-32 -3q80 160 167 318.5t162 317.5q-43 1 -90 1.5t-95 0.5t-95 -0.5t-90 -1.5q1 8 1.5 13t0.5 10q0 6 -0.5 12t-1.5 14q213 -6 426 0q-2 -10 -2 -17q0 -5 0.5 -8.5t1.5 -7.5q-39 -82 -80 -163.5t-82 -162.5t-81 -162.5t-77 -163.5z" />
    <glyph glyph-name="eight" unicode="8" horiz-adv-x="570" 
d="M366 358q28 -10 54 -27t45.5 -39.5t31.5 -50.5t12 -59q0 -47 -19.5 -83t-51.5 -60.5t-72.5 -37t-83.5 -12.5q-41 0 -81 12.5t-71.5 37t-50.5 60.5t-19 83q0 30 11.5 57.5t31 50.5t45.5 40.5t56 27.5q-51 20 -83 62t-32 98q0 37 15.5 69t42 56t62.5 38t77 14q37 0 72 -13
t62 -36.5t43.5 -56t16.5 -71.5q0 -53 -31.5 -96.5t-82.5 -63.5zM445 182q0 43 -16.5 72.5t-40.5 48t-52 27t-50 8.5q-23 0 -51.5 -8.5t-53 -27t-41 -48t-16.5 -72.5q0 -38 13.5 -67.5t36 -49t51.5 -29.5t59 -10t59 10t51.5 29.5t36.5 49t14 67.5zM286 379q20 0 43 7.5
t42.5 24.5t32 43t12.5 64t-12.5 65t-32 43.5t-42.5 24t-43 7.5q-21 0 -44.5 -7.5t-43.5 -24t-33 -43.5t-13 -65q0 -37 12.5 -63.5t32 -43t43 -24.5t46.5 -8z" />
    <glyph glyph-name="nine" unicode="9" horiz-adv-x="570" 
d="M93 -11q-1 6 -2 12.5t-3 13.5q131 29 223 116t130 227q-26 -41 -67.5 -66t-95.5 -25q-46 0 -87.5 16t-73 44.5t-50 68t-18.5 86.5q0 45 18.5 84t50 68t74.5 46t92 17q50 0 93.5 -17t75 -46.5t49.5 -69.5t18 -86q0 -90 -31 -172.5t-87 -147.5t-134.5 -109.5t-174.5 -59.5z
M284 660q-25 0 -55 -10t-56 -31.5t-43.5 -55.5t-17.5 -81q0 -48 17.5 -81.5t43.5 -55.5t56 -32t55 -10t55.5 10t56 32t43 55.5t17.5 81.5q0 47 -17.5 81t-43 55.5t-56 31.5t-55.5 10z" />
    <glyph glyph-name="colon" unicode=":" horiz-adv-x="175" 
d="M125 424q0 -15 -11 -26t-27 -11q-15 0 -26 11t-11 26t11 25.5t26 10.5q16 0 27 -10.5t11 -25.5zM125 33q0 -15 -11 -26t-27 -11q-15 0 -26 11t-11 26q0 16 11 26t26 10q16 0 27 -10t11 -26z" />
    <glyph glyph-name="semicolon" unicode=";" horiz-adv-x="240" 
d="M46 -123q17 63 29.5 106t25.5 73q3 8 9.5 13t18.5 5q15 0 26.5 -11.5t6.5 -27.5q-2 -6 -7 -16.5t-16.5 -29t-29.5 -47.5t-46 -72zM165 422q0 -15 -11 -26t-27 -11t-27 11t-11 26q0 16 11 26t27 10t27 -10t11 -26z" />
    <glyph glyph-name="less" unicode="&#x3c;" horiz-adv-x="654" 
d="M45 316l564 250v-49l-475 -201q119 -50 237.5 -101.5t237.5 -102.5v-48z" />
    <glyph glyph-name="equal" unicode="=" horiz-adv-x="665" 
d="M620 169q-23 0 -58.5 0.5t-78 1t-88.5 0.5h-90h-73t-71.5 -0.5t-64 -1t-51.5 -0.5v44q20 -1 48.5 -1.5t62 -1t70.5 -0.5h73h90.5t89.5 0.5t79.5 1t61.5 1.5v-44zM620 376q-23 0 -58.5 0.5t-78 1t-88.5 1t-90 0.5q-73 0 -141 -1t-119 -2v45q20 0 48.5 -0.5t62 -1
t70.5 -0.5h73h90.5t89.5 0.5t79.5 1t61.5 0.5v-45z" />
    <glyph glyph-name="greater" unicode="&#x3e;" horiz-adv-x="655" 
d="M45 64v48l473 204l-473 201v49l565 -250z" />
    <glyph glyph-name="question" unicode="?" horiz-adv-x="508" 
d="M185 184q-9 16 -11 29.5t-2 26.5q0 35 13.5 61.5t34 49t44.5 42.5t44.5 42.5t34 49.5t13.5 63q0 46 -28.5 78.5t-92.5 32.5q-32 0 -62.5 -11t-52.5 -31q10 -13 10 -25q0 -17 -11.5 -28.5t-27.5 -11.5q-17 0 -28.5 11.5t-11.5 28.5q0 8 2.5 13.5t6.5 10.5q15 20 35.5 35
t44 25t49 15t49.5 5q45 0 78.5 -11.5t56 -31t34 -44.5t13.5 -53q0 -11 -1 -22t-3 -21q-6 -32 -23 -56.5t-38 -45.5t-44 -41t-42 -42.5t-31.5 -50t-12.5 -63.5v-14.5t2 -15.5h-42zM203 -11q-15 0 -25.5 11t-10.5 26q0 14 10.5 24t25.5 10t25.5 -10t10.5 -24q0 -15 -10.5 -26
t-25.5 -11z" />
    <glyph glyph-name="at" unicode="@" horiz-adv-x="910" 
d="M808 45q-34 -48 -74.5 -81t-85 -53.5t-92.5 -30t-97 -9.5q-108 0 -189 33.5t-134.5 89t-80.5 127.5t-27 149q0 88 31 173.5t90 152t144.5 107.5t195.5 41q69 0 139 -22.5t126.5 -66t92 -107.5t35.5 -148q0 -44 -12.5 -90t-37 -88t-60.5 -75.5t-82 -50.5q-42 -18 -88 -17
q-33 1 -59 24.5t-28 70.5q-26 -37 -63.5 -60.5t-76.5 -23.5q-27 0 -51.5 10t-43 29t-29.5 47t-11 65q0 53 22 104t58.5 90.5t83.5 63.5t96 24q35 0 54 -10.5t30 -35.5l9 34q10 -3 16 -5.5t12 -4.5t14 -3.5t22 -2.5l-61 -214q-7 -26 -13.5 -50t-6.5 -45q0 -13 1.5 -25.5
t7.5 -22t17 -15t30 -5.5q43 0 77.5 28t59 69.5t37.5 90t13 90.5q0 78 -29.5 136.5t-77 97.5t-106.5 59t-118 20q-96 0 -170.5 -37t-124.5 -97.5t-76 -136.5t-26 -154q0 -72 23 -140t69.5 -120.5t117.5 -84.5t167 -32q86 0 166.5 35t146.5 123zM388 134q39 0 70.5 27.5t54 69
t35 88.5t12.5 86q0 42 -17.5 60t-43 18.5t-55 -13t-53.5 -34.5q-38 -34 -63 -83.5t-25 -103.5q0 -18 3 -38t12 -37.5t26 -28.5t44 -11z" />
    <glyph glyph-name="A" unicode="A" horiz-adv-x="552" 
d="M483 -3q-20 57 -40 117t-42 121q-32 1 -67.5 1h-64.5h-67t-70 -1q-22 -61 -42.5 -120t-40.5 -118q-5 2 -11.5 3t-12.5 1q-8 0 -16.5 -1t-15.5 -3q69 172 130 345t126 344q15 -3 31 -3t30 3q59 -167 121.5 -344.5t128.5 -344.5q-10 2 -19 3t-20 1q-9 0 -19 -1t-19 -3z
M145 272q30 -1 63 -1h60t59 0.5t62 1.5q-30 87 -61 172.5t-61 166.5z" />
    <glyph glyph-name="B" unicode="B" horiz-adv-x="530" 
d="M76 0q2 38 3 82t2 89t1 89.5v82.5v82t-1 89.5t-2 89.5t-3 82q8 -2 18 -2h17q5 0 10.5 0.5t16.5 0.5t30 0.5t52 0.5q40 0 81 -9t74 -29t54 -53t21 -82q0 -28 -10.5 -53t-28 -44.5t-40.5 -33t-49 -18.5q43 -7 74.5 -23t51.5 -38.5t29.5 -50.5t9.5 -59q0 -53 -18.5 -90
t-50 -60t-74 -33t-90.5 -10q-47 0 -74 0.5t-41.5 1t-21 0.5h-11.5q-7 0 -14.5 -0.5t-15.5 -1.5zM267 38q70 0 109.5 38.5t39.5 116.5q0 37 -14.5 65t-38.5 47t-55 28t-64 9h-102v-74t0.5 -78.5t1 -78.5t1.5 -73h122zM226 380q31 0 59 6.5t49 22t33 41t12 63.5
q0 65 -41.5 100.5t-111.5 35.5h-81q-2 -63 -2.5 -133.5t-0.5 -135.5h84z" />
    <glyph glyph-name="C" unicode="C" horiz-adv-x="675" 
d="M631 76q-51 -46 -118 -67t-129 -21q-73 0 -135.5 26t-108 73t-71.5 111.5t-26 141.5q0 73 26.5 138.5t73.5 115t111 78t138 28.5q54 0 109 -19.5t96 -61.5q14 -13 28 -36.5t14 -43.5q0 -17 -12 -28t-28 -11q-17 0 -29.5 12t-12.5 29q0 10 4.5 17t12.5 13
q-11 22 -31.5 38.5t-46.5 27.5t-54 17t-54 6q-61 0 -111.5 -27.5t-86.5 -72.5t-56 -101.5t-20 -114.5q0 -69 21.5 -127.5t59.5 -101t89 -66.5t111 -24q67 0 121.5 16.5t102.5 50.5z" />
    <glyph glyph-name="D" unicode="D" horiz-adv-x="637" 
d="M73 0q1 38 2 82t2 89t1 89.5v82.5v82t-1 89.5t-2 89.5t-2 82q8 -1 15.5 -1h15.5h12.5t18 0.5t30 0.5h47.5q88 0 159 -21.5t120.5 -64t76 -106t26.5 -146.5q0 -74 -24.5 -137.5t-74 -110t-123.5 -73.5t-172 -27q-26 0 -42.5 0.5t-26 0.5t-15 0.5t-9.5 0.5q-8 0 -17 -0.5
t-17 -1.5zM220 38q72 0 128.5 23.5t95 65.5t59 98.5t20.5 122.5q0 77 -24.5 133.5t-66.5 94t-98 55.5t-120 18h-73q-2 -72 -2.5 -154.5t-0.5 -151.5v-72.5t0.5 -78.5t1 -79.5t1.5 -74.5h79z" />
    <glyph glyph-name="E" unicode="E" horiz-adv-x="512" 
d="M470 -3q-105 3 -193 4t-169 1q-8 0 -17.5 -0.5t-17.5 -1.5q2 38 3 82t2 89t1 89.5v82.5v82.5t-1 90t-2 89t-3 81.5q8 -2 17.5 -2h17.5q81 0 162 1t167 4q-3 -12 -3 -22q0 -13 3 -23q-32 1 -70 2t-77 1.5t-77 0.5h-71q-2 -64 -2.5 -136t-0.5 -135q64 0 128.5 0.5
t127.5 2.5q-3 -12 -3 -23q0 -12 3 -24q-74 2 -134 3t-122 1v-70.5t0.5 -76.5t1 -77.5t1.5 -72.5h78t89.5 0.5t88 1t72.5 1.5q-3 -12 -3 -24t3 -22z" />
    <glyph glyph-name="F" unicode="F" horiz-adv-x="475" 
d="M394 334q-37 1 -69.5 1.5t-63.5 1t-61 0.5h-61v-81.5t0.5 -88t1.5 -87.5t3 -80q-10 1 -19 2t-17 1t-17.5 -1t-17.5 -2q2 38 3 82t2 89t1 89.5v82.5v82.5t-1 90t-2 89t-3 81.5q8 -2 17.5 -2h17.5q79 0 159.5 1t168.5 4q-1 -6 -1.5 -11.5t-0.5 -10.5q0 -6 0.5 -12t1.5 -11
q-32 1 -69.5 2t-76.5 1.5t-77 0.5h-71q-2 -64 -2.5 -136t-0.5 -135q64 0 128.5 0.5t126.5 2.5q-1 -6 -1.5 -11.5t-0.5 -11.5t0.5 -12t1.5 -11z" />
    <glyph glyph-name="G" unicode="G" horiz-adv-x="699" 
d="M385 327q33 -1 62 -1.5t58.5 -1t62 -0.5h71.5q-2 -30 -3 -58t-1.5 -58.5t-0.5 -66.5v-82q-27 -19 -59.5 -32.5t-66.5 -22t-68 -12.5t-64 -4q-73 0 -134 26t-105.5 73t-69 111.5t-24.5 141.5q0 73 26 138.5t72 115t109.5 78t137.5 28.5q27 0 59.5 -7.5t64 -21t59 -32.5
t43.5 -43q9 -14 15 -27t6 -30t-12 -28t-27 -11q-17 0 -29.5 12t-12.5 29q0 10 4.5 17t12.5 13q-11 22 -32 38.5t-46.5 27.5t-53.5 17t-54 6q-61 0 -111 -27.5t-85.5 -72.5t-55 -101.5t-19.5 -114.5q0 -69 20.5 -127.5t58 -100.5t89 -65.5t113.5 -23.5q19 0 41.5 2.5t46 8
t46.5 13.5t43 20l-1 213h-48t-43.5 -0.5t-44.5 -1t-50 -1.5q2 6 2 12v12v11t-2 11z" />
    <glyph glyph-name="H" unicode="H" horiz-adv-x="625" 
d="M477 0q2 37 3.5 79.5t2 86.5t1 87.5t0.5 81.5q-43 2 -85.5 2h-85.5h-86.5t-85.5 -2v-81.5t1 -87.5t2 -86.5t3 -79.5q-18 3 -37 3q-16 0 -34 -3q2 38 3.5 82t2 89t0.5 89.5v82.5v82t-0.5 89.5t-2 89.5t-3.5 82q18 -3 34 -3q19 0 37 3q-2 -34 -3 -73.5t-2 -80.5t-1 -82v-78
q85 -3 171 -3t172 3q0 37 -0.5 78l-1 82t-2 80.5t-3.5 73.5q18 -3 36 -3q15 0 36 3q-2 -38 -3.5 -82t-2.5 -89.5t-1 -89.5v-82v-82.5t1 -89.5t2.5 -89t3.5 -82q-21 3 -36 3q-18 0 -36 -3z" />
    <glyph glyph-name="I" unicode="I" horiz-adv-x="223" 
d="M76 0q2 38 3.5 82t2 89t0.5 89.5v82.5v82t-0.5 89.5t-2 89.5t-3.5 82q18 -3 34 -3q19 0 37 3q-2 -38 -3 -82t-2 -89.5t-1 -89.5v-82v-82.5t1 -89.5t2 -89t3 -82q-18 3 -37 3q-16 0 -34 -3z" />
    <glyph glyph-name="J" unicode="J" horiz-adv-x="227" 
d="M6 -255q16 22 31 46t26 54t18 68.5t7 91.5q0 36 0.5 79.5t0.5 88.5t0.5 88.5t0.5 81.5v82.5t-1 90t-2 89t-2 81.5q16 -3 34 -3t36 3q-2 -38 -3 -81.5t-2 -89t-1 -90v-82.5q0 -68 1.5 -145.5t1.5 -149.5q0 -14 0.5 -27t-0.5 -25q-1 -35 -6 -62.5t-18.5 -57t-39 -64
t-67.5 -82.5z" />
    <glyph glyph-name="K" unicode="K" horiz-adv-x="615" 
d="M586 -9q-38 16 -71 32.5t-64.5 36t-61.5 43.5t-62 56l-189 181q0 -91 1 -180.5t4 -159.5q-18 3 -36 3t-34 -3q1 38 2 82t2 89t1 89.5v82.5v82t-1 89.5t-2 89.5t-2 82q8 -2 17 -2h17h18t18 2q-2 -35 -2.5 -76t-1.5 -84.5t-1 -87.5v-85q81 81 163.5 161t171.5 172
q18 -3 30 -3q13 0 34 3l-336 -322q85 -85 166 -163q30 -31 56.5 -57.5t53 -50t55.5 -44.5t64 -41z" />
    <glyph glyph-name="L" unicode="L" horiz-adv-x="478" 
d="M473 -3q-78 2 -146.5 4t-135.5 2q-57 0 -115 -3q2 38 3.5 82t2 89t0.5 89.5v82.5v82t-0.5 89.5t-2 89.5t-3.5 82q9 -2 18 -2h17h18t19 2q-2 -38 -3.5 -82t-2 -89.5t-0.5 -89.5v-82v-71.5t0.5 -78t1 -78.5t2.5 -75h79t88.5 0.5t86.5 1.5t73 3v-48z" />
    <glyph glyph-name="M" unicode="M" horiz-adv-x="835" 
d="M703 686q10 -2 16.5 -2h12.5h14t17 2q-2 -38 -3.5 -82t-2 -89.5t-0.5 -89.5v-82v-82.5t0.5 -89.5t2 -89t3.5 -82q-20 3 -38 3q-16 0 -34 -3q2 38 3.5 82t2 89t0.5 89.5v82.5v111t-2 117q-70 -136 -139.5 -279.5t-144.5 -303.5q-70 147 -139.5 293.5t-147.5 295.5
q-2 -58 -2 -119v-115v-82.5t1 -89.5t1.5 -89t2.5 -82q-9 1 -16 2t-12 1q-6 0 -12 -1t-14 -2q1 38 2 82t2 89t1 89.5v82.5v82.5t-1 90t-2 89t-2 81.5q10 -2 17 -2h13h14.5t18.5 2q65 -147 138.5 -295.5t145.5 -296.5q73 149 144 295.5t139 296.5z" />
    <glyph glyph-name="N" unicode="N" 
d="M663 0q-8 1 -14.5 1h-12.5h-11.5t-13.5 -1q-116 152 -236.5 302t-251.5 304q-1 -75 -1 -141v-122v-82.5t0.5 -89.5t1.5 -89t2 -82q-8 1 -14.5 1h-12.5h-12t-14 -1q2 38 3 82t2 89t1 89.5v82.5v82.5t-1 90t-2 89t-3 81.5q10 -2 16.5 -2h12.5h12.5t17.5 2
q69 -85 131.5 -162t121 -149.5t115 -142.5t113.5 -142q2 61 2 129v124v82.5t-0.5 90t-1.5 89t-2 81.5q9 -2 15 -2h11h11t17 2q-5 -108 -5.5 -192.5t-0.5 -150.5v-82.5t0.5 -89.5t1.5 -89t2 -82z" />
    <glyph glyph-name="O" unicode="O" 
d="M368 -11q-60 0 -118.5 21.5t-104.5 65.5t-74 110.5t-28 157.5q0 89 28 156t74 111.5t104.5 66.5t118.5 22q59 0 117.5 -22.5t105 -67t75.5 -111t29 -155.5q0 -90 -29 -157t-75.5 -111t-105 -65.5t-117.5 -21.5zM368 27q47 0 93 19t82.5 58t59 99t22.5 141q0 79 -22.5 139
t-59 99.5t-82.5 59.5t-93 20q-48 0 -93.5 -19.5t-81 -59.5t-57.5 -99.5t-22 -139.5q0 -82 22 -141.5t57.5 -98.5t81 -58t93.5 -19z" />
    <glyph glyph-name="P" unicode="P" horiz-adv-x="476" 
d="M141 305v-76.5t1 -79.5t2 -78t3 -71q-18 3 -36 3q-17 0 -35 -3q2 38 3.5 82t2 89t0.5 89.5v82.5v82t-0.5 89.5t-2 89.5t-3.5 82q8 -1 15.5 -1.5t15.5 -0.5q5 0 17 0.5t25.5 0.5t27.5 0.5t24 0.5q58 0 102.5 -15.5t75 -42t46.5 -61t16 -72.5q0 -34 -14 -68t-43.5 -61
t-73.5 -44t-104 -17h-65zM206 341q46 0 77 13.5t50.5 35.5t28 49.5t8.5 55.5t-8 56t-27.5 49.5t-51 35t-78.5 13.5h-60q-2 -36 -2.5 -75.5t-1 -79.5t-0.5 -79v-74h65z" />
    <glyph glyph-name="Q" unicode="Q" 
d="M554 -182q-33 17 -58.5 33.5t-49 36t-46.5 43.5t-50 57q-59 3 -114 26.5t-98 68t-69 110t-26 152.5q0 89 28 155.5t74 111t104.5 66.5t118.5 22q59 0 117.5 -22t105 -66.5t75.5 -111t29 -155.5q0 -83 -24 -145.5t-63.5 -106t-90 -68.5t-104.5 -32q32 -45 68 -84.5
t84 -73.5zM368 25q47 0 93 19.5t82.5 59t59 100t22.5 141.5q0 79 -22.5 138.5t-59 99.5t-82.5 59.5t-93 19.5q-48 0 -93.5 -19.5t-81 -59t-57.5 -99t-22 -139.5q0 -82 22 -142t57.5 -99.5t81 -59t93.5 -19.5z" />
    <glyph glyph-name="R" unicode="R" horiz-adv-x="509" 
d="M515 -6q-34 18 -61 34.5t-51.5 37.5t-48 47.5t-50.5 64.5l-87 127h-79v-76.5t1 -79.5t2 -78t3 -71q-18 3 -36 3t-34 -3q2 38 3 82t2 89t1 89.5v82.5v82t-1 89.5t-2 89.5t-3 82q8 -1 15.5 -1.5t14.5 -0.5q5 0 16 0.5t24.5 0.5t28 0.5t25.5 0.5q58 0 102.5 -15.5t75 -42
t46.5 -61t16 -72.5q0 -27 -9.5 -55t-28 -52t-47.5 -43t-68 -29q31 -48 58 -91.5t55 -82t58.5 -71.5t68.5 -60zM203 341q46 0 77 13.5t50.5 35.5t28 49.5t8.5 55.5t-8 56t-27.5 49.5t-51 35t-78.5 13.5h-60q-2 -36 -2.5 -75.5t-1 -79.5t-0.5 -79v-74h65z" />
    <glyph glyph-name="S" unicode="S" horiz-adv-x="535" 
d="M99 84q29 -30 69.5 -43t74.5 -13q28 0 60.5 7.5t60 24t45.5 43.5t18 65q0 44 -27 75t-68 56t-88.5 47.5t-88.5 49.5t-68 61.5t-27 83.5q0 38 20 67.5t51.5 49.5t70 30.5t75.5 10.5q30 0 65.5 -7.5t64.5 -24.5q7 -4 17.5 -12.5t20 -19t16.5 -22t7 -23.5q0 -14 -9 -24.5
t-23 -12.5q-14 -3 -27 5t-17 23q-5 16 6 33q-23 27 -57.5 37t-68.5 10q-27 0 -53.5 -8t-47.5 -22.5t-34 -35t-13 -46.5q0 -40 27.5 -69t68 -53t88.5 -47t88.5 -51.5t68 -66t27.5 -90.5q0 -47 -21.5 -81.5t-56.5 -57t-78.5 -33.5t-86.5 -11q-37 0 -76 9.5t-71 26t-52.5 38
t-20.5 44.5q0 17 11.5 28.5t28.5 11.5t28.5 -11.5t11.5 -28.5q0 -11 -10 -23z" />
    <glyph glyph-name="T" unicode="T" horiz-adv-x="503" 
d="M216 0q2 38 3 82t2 89t1 89.5v82.5v68t-0.5 78.5t-1.5 80.5t-2 75h-57.5t-47.5 -0.5t-47.5 -1t-57.5 -0.5q1 5 1.5 11t0.5 11t-0.5 10.5t-1.5 10.5q36 0 62.5 -0.5t52.5 -1t56 -0.5h72h66t56 0.5t56 1t66 0.5q-3 -11 -3 -21t3 -22q-33 0 -57.5 0.5t-48 1t-48 0.5h-57.5
q-1 -35 -1.5 -75t-0.5 -80.5v-78.5v-68v-82.5t1 -89.5t1.5 -89t2.5 -82q-10 1 -18.5 2t-17.5 1q-8 0 -17.5 -1t-17.5 -2z" />
    <glyph glyph-name="U" unicode="U" horiz-adv-x="646" 
d="M532 687q9 -3 21 -3q11 0 22 3v-436q0 -57 -13 -98.5t-34 -70.5t-47 -47.5t-53 -28.5t-51.5 -13.5t-42.5 -3.5q-50 0 -97.5 12t-84 42t-59 82t-22.5 132v430q10 -2 20 -2.5t18 -0.5t16 0.5t19 2.5v-431q0 -48 10.5 -90t33 -73t58.5 -48.5t88 -17.5q91 0 144.5 55
t53.5 165v440z" />
    <glyph glyph-name="V" unicode="V" horiz-adv-x="547" 
d="M241 -2q-59 166 -122 343.5t-128 344.5q19 -3 39 -3q18 0 38 3q24 -73 50.5 -150.5t54 -156.5t55.5 -156.5t56 -150.5q53 153 110.5 309t107.5 305q12 -3 26 -3q15 0 30 3q-69 -172 -130.5 -344.5t-125.5 -343.5l-16 2t-15 1t-15 -1t-15 -2z" />
    <glyph glyph-name="W" unicode="W" horiz-adv-x="875" 
d="M550 -2q-29 82 -59 168.5t-62 174.5q-31 -87 -62 -172.5t-63 -170.5l-16 2t-15 1t-15 -1t-15 -2q-58 166 -121.5 343.5t-128.5 344.5q19 -3 39 -3q17 0 37 3q24 -73 50.5 -151t54.5 -157t56 -157t56 -151q29 82 59.5 165t61.5 167q-25 72 -51 143.5t-54 140.5
q19 -3 35 -3q14 0 34 3q16 -48 33.5 -98.5t35.5 -102.5q20 52 37.5 101.5t34.5 99.5q9 -3 19 -3q14 0 29 3q-26 -64 -50.5 -128.5t-48.5 -128.5q33 -93 66.5 -183.5t66.5 -175.5q53 153 110.5 310t107.5 306q10 -3 23 -3q18 0 32 3q-69 -172 -130 -344.5t-126 -343.5
q-8 1 -15.5 2t-14.5 1q-8 0 -16 -1t-15 -2z" />
    <glyph glyph-name="X" unicode="X" horiz-adv-x="604" 
d="M512 0q-23 33 -52.5 75t-60 85.5t-59 84t-50.5 70.5q-24 -32 -53.5 -73t-60.5 -84t-60 -84.5t-51 -73.5q-8 1 -16 1.5t-17 0.5h-13t-12 -2q25 31 60 75t71.5 91.5t71.5 93.5t62 82q-26 35 -59 81t-68 94t-68 92.5t-58 76.5q9 -2 19.5 -2h19.5h20.5t20.5 2
q21 -31 48.5 -70t56 -79.5t55.5 -78.5t48 -68q22 30 49 68t55 78.5t55 79.5t48 70q12 -3 29 -3q8 0 16.5 0.5t15.5 2.5q-26 -31 -59 -73t-67 -86t-66 -87t-57 -76q25 -36 60.5 -84.5t72.5 -99.5t72.5 -98.5t62.5 -81.5q-21 3 -41 3q-22 0 -41 -3z" />
    <glyph glyph-name="Y" unicode="Y" horiz-adv-x="560" 
d="M242 0q1 31 2 67.5t2 74t1 75.5v73q-31 45 -66 101t-69 111.5t-64.5 104t-51.5 79.5q21 -3 42 -3q19 0 42 3q19 -33 46 -81t56.5 -98.5t57.5 -97.5t50 -77q24 31 55 78.5t62.5 98t59 98t44.5 79.5q12 -3 26 -3q13 0 27 3q-20 -28 -50 -74t-65.5 -99.5t-72 -109
t-69.5 -103.5q0 -75 1.5 -154t3.5 -146q-18 3 -36 3q-16 0 -34 -3z" />
    <glyph glyph-name="Z" unicode="Z" horiz-adv-x="639" 
d="M616 44q-2 -6 -3 -12t-1 -11t1 -10.5t2 -10.5q-37 0 -70 1t-65.5 1.5t-65.5 1t-70 0.5q-70 0 -150 -1.5t-152 -2.5q1 5 1 14q0 10 -1 15q34 45 77 103t88.5 120.5t90.5 124.5t83 115t65.5 93t39.5 58q-23 0 -42.5 0.5t-38.5 1.5t-38.5 1.5t-43.5 0.5q-53 0 -115.5 -2
t-119.5 -2q3 9 3 21t-3 21q66 -1 125.5 -1.5t124.5 -0.5q56 0 114.5 0.5t116.5 1.5q-3 -9 -3 -16q0 -4 0.5 -7t1.5 -7l-438 -612q59 0 117 -0.5t114 -0.5q67 0 129 1t126 1z" />
    <glyph glyph-name="bracketleft" unicode="[" horiz-adv-x="292" 
d="M265 -209q-32 1 -54.5 1.5t-42.5 0.5t-42 -0.5t-54 -1.5q0 115 2.5 229.5t2.5 235.5q0 115 -2.5 229t-2.5 233q32 -1 54 -1.5t42 -0.5t42.5 0.5t54.5 1.5v-26l-130 -6q0 -107 -2 -213.5t-2 -215.5t2 -216t2 -217l130 -7v-26z" />
    <glyph glyph-name="backslash" unicode="\" horiz-adv-x="358" 
d="M292 -96l-283 813h58l282 -813h-57z" />
    <glyph glyph-name="bracketright" unicode="]" horiz-adv-x="291" 
d="M27 -189l128 7q0 107 2 214.5t2 216.5q0 108 -2 215t-2 216q-32 2 -65 3.5t-63 2.5v27q20 -1 47.5 -2t48.5 -1q20 0 48 0.5t49 1.5q0 -117 -3 -232t-3 -230q0 -118 3 -233t3 -232q-21 1 -49 1.5t-48 0.5q-21 0 -48.5 -0.5t-47.5 -1.5v26z" />
    <glyph glyph-name="asciicircum" unicode="^" horiz-adv-x="464" 
d="M364 395l-132 235l-132 -235h-58l191 331l189 -331h-58z" />
    <glyph glyph-name="underscore" unicode="_" horiz-adv-x="569" 
d="M0 -45v43h569v-43h-569z" />
    <glyph glyph-name="grave" unicode="`" horiz-adv-x="248" 
d="M188 548l-139 118q-14 12 -24.5 23t-19.5 22q7 9 18.5 16.5t23.5 12.5q45 -38 85.5 -86.5t84.5 -105.5h-29z" />
    <glyph glyph-name="a" unicode="a" horiz-adv-x="485" 
d="M361 -3q0 12 0.5 28.5t1.5 33.5q-15 -21 -36 -34.5t-43.5 -21.5t-45 -11t-40.5 -3q-30 0 -58.5 6t-51 20t-36 37t-13.5 58q0 32 17 57.5t44.5 44t62.5 32t71 22.5t70.5 14.5t60.5 8.5q-4 75 -33 110.5t-94 35.5q-26 0 -55.5 -9.5t-48.5 -29.5q2 -5 4.5 -10.5t2.5 -12.5
q0 -14 -10.5 -24.5t-26.5 -10.5q-15 0 -25.5 10t-10.5 24q0 17 13 30q30 37 74.5 53.5t85.5 16.5q39 0 72 -11t57.5 -34t38.5 -58.5t14 -83.5q0 -23 -0.5 -47t-1.5 -48q-2 -46 1 -93.5t12 -91.5q-17 1 -33 0q-11 -1 -20.5 -3t-19.5 -5zM364 251q-17 -1 -43 -3.5t-55 -9
t-58 -17t-52.5 -25.5t-38.5 -35.5t-15 -46.5q0 -32 10.5 -49.5t27.5 -26t38.5 -10.5t43.5 -2q19 0 43 6t46 19t37 33.5t15 49.5q0 24 0.5 51.5t0.5 65.5z" />
    <glyph glyph-name="b" unicode="b" horiz-adv-x="542" 
d="M253 -11q-59 0 -102.5 20.5t-90.5 54.5q2 38 3.5 72t2.5 69.5t2 74.5t1 86v65v84.5t-1.5 85t-4 74t-6.5 50.5q17 0 36 2.5t37 7.5q-1 -35 -1.5 -79.5t-1 -93t-0.5 -100v-100.5q23 54 69 83t103 29q39 0 75.5 -14t64 -42.5t44 -71.5t16.5 -101q0 -56 -19 -103t-52.5 -81
t-78.5 -53t-96 -19zM127 71q23 -17 52.5 -30.5t73.5 -13.5t78 17.5t57 47.5t34.5 69.5t11.5 83.5q0 33 -7.5 66.5t-25.5 61t-48 45t-74 17.5q-30 0 -56 -13t-46.5 -35t-33.5 -51.5t-16 -61.5v-203z" />
    <glyph glyph-name="c" unicode="c" horiz-adv-x="505" 
d="M479 93q-38 -54 -89.5 -79t-112.5 -25q-50 0 -92.5 18.5t-74 51t-49.5 77t-18 95.5q0 50 19 94t51 76.5t74 51.5t89 19q42 0 84 -17.5t75 -61.5q12 -14 12 -29t-11.5 -26t-26.5 -11q-16 0 -26.5 11t-10.5 26q0 6 1.5 12.5t5.5 11.5q-2 4 -4.5 6t-5.5 4q-37 36 -93 36
q-35 0 -66 -15.5t-54 -43t-36 -64.5t-13 -80t13 -80.5t36.5 -65t56 -43.5t71.5 -16q54 0 98.5 19t83.5 61z" />
    <glyph glyph-name="d" unicode="d" horiz-adv-x="544" 
d="M405 0q1 19 1.5 40t0.5 44q-25 -45 -68.5 -70t-96.5 -25q-39 0 -75 14t-63.5 42t-44 71t-16.5 102q0 55 19 102t52 80.5t78 52.5t97 19q30 0 61.5 -6.5t60.5 -26.5q0 41 -0.5 85t-1.5 84t-3.5 71t-6.5 47q17 0 36 2.5t38 7.5q-2 -41 -3 -89.5t-1.5 -99t-0.5 -99.5v-90
v-85.5t0.5 -94t1 -93.5t2.5 -85q-9 1 -17 2t-16 1t-17 -1t-17 -2zM411 395q-23 16 -52 27.5t-70 11.5q-45 0 -79 -17.5t-57 -47t-34.5 -69t-11.5 -82.5q0 -33 8 -67t26 -61t47.5 -44.5t73.5 -17.5q26 0 49.5 9.5t43 27t33.5 41t21 50.5q1 54 1.5 108t0.5 99v32z" />
    <glyph glyph-name="e" unicode="e" horiz-adv-x="508" 
d="M479 99q-37 -55 -89 -82.5t-114 -27.5q-55 0 -98 19.5t-73 53t-46 77.5t-16 94q0 51 18.5 94.5t50.5 75.5t75 50.5t91 18.5q33 0 65.5 -9t58 -26.5t41 -43t15.5 -58.5q0 -44 -18.5 -74t-49 -48t-70 -25.5t-80.5 -7.5q-31 0 -67 8t-64 20q3 -38 17 -71.5t36.5 -58.5
t53.5 -39t68 -14q54 0 98.5 22t83.5 65zM108 249q25 -14 63 -23t71 -9q30 0 58.5 5t50.5 18t35.5 36t13.5 58q0 23 -10 41.5t-27 32t-39.5 20.5t-47.5 7q-36 0 -65.5 -15.5t-51.5 -41t-35 -59.5t-16 -70z" />
    <glyph glyph-name="f" unicode="f" horiz-adv-x="337" 
d="M313 425q-32 1 -69 1.5t-95 0.5v-77v-80t0.5 -94t1.5 -94.5t3 -81.5q-9 1 -17.5 2t-17.5 1t-18 -1t-17 -2q1 37 2 82.5t2 92.5t1 92.5v82.5v76q-17 0 -34.5 -0.5t-34.5 -0.5q1 5 1.5 9t0.5 9t-0.5 10t-1.5 10l69 -3v55q0 63 15 105t39 67.5t54 36t59 10.5q81 0 126 -59
q8 -8 13 -18.5t5 -21.5q0 -15 -12 -25.5t-26 -10.5q-16 0 -27 11t-11 25q0 15 12 26q-16 17 -32.5 27.5t-48.5 10.5q-54 0 -80 -51t-26 -135v-53q58 0 95 0.5t69 1.5q-1 -5 -1.5 -9.5t-0.5 -9.5q0 -8 2 -18z" />
    <glyph glyph-name="g" unicode="g" horiz-adv-x="521" 
d="M393 416q24 -23 38 -51.5t14 -61.5q0 -34 -15.5 -64.5t-42.5 -53.5t-63 -36.5t-78 -13.5h-17t-16 2q-13 -3 -28.5 -8t-29 -12.5t-22.5 -18.5t-9 -26q0 -21 29.5 -34t73.5 -23t95.5 -20t95.5 -25.5t73.5 -39.5t29.5 -61t-23 -63t-60 -42.5t-84 -24.5t-94 -8t-91 8.5
t-78.5 25.5t-55.5 43t-21 61q0 18 9 37t25 35.5t38.5 30t49.5 21.5q-13 4 -26.5 11.5t-24.5 17.5t-18 21.5t-7 24.5q0 15 8.5 28.5t22 24.5t31.5 19.5t37 12.5q-51 20 -81 60.5t-30 89.5q0 34 15.5 65t42 54t62.5 36.5t78 13.5q55 0 101 -23q38 -1 74 0t73 2
q-1 -5 -1.5 -9.5t-0.5 -9.5t0.5 -9t1.5 -9zM193 -23q-12 -2 -32 -7.5t-38.5 -17t-32 -30t-13.5 -46.5q0 -29 17.5 -49.5t44.5 -34t59.5 -19.5t63.5 -6q32 0 67 5t63.5 17t47 31.5t18.5 49.5q0 16 -13.5 29.5t-36 23.5t-50.5 18.5t-57.5 14.5t-57.5 11t-50 10zM382 303
q0 24 -8.5 47.5t-25 42.5t-42.5 30.5t-60 11.5t-59.5 -11.5t-42 -30.5t-25 -42.5t-8.5 -47.5t8.5 -47t25 -42t42 -30.5t59.5 -11.5t60 11.5t42.5 30.5t25 42t8.5 47z" />
    <glyph glyph-name="h" unicode="h" horiz-adv-x="540" 
d="M488 230v-54.5t0.5 -60.5t1 -60.5t2.5 -54.5q-15 3 -32 3q-9 0 -17.5 -1t-16.5 -2q1 25 2 54.5t1.5 60t0.5 60v55.5v19q0 33 -7 66t-23.5 59.5t-44.5 43t-70 16.5q-30 0 -57.5 -12t-49 -32t-35.5 -47t-17 -57q0 -72 1 -148t3 -138q-9 1 -17 2t-16 1t-17 -1t-17 -2
q2 38 3 84.5t2 95t1 96v87.5v99t-1 107t-3.5 94.5t-7.5 62.5q17 0 36 2.5t38 7.5q-2 -41 -2.5 -89.5t-1.5 -98.5t-1 -98v-86q10 25 28 45t40.5 34t48.5 21.5t52 7.5q42 0 77 -13.5t61 -41t40.5 -69.5t14.5 -99v-19z" />
    <glyph glyph-name="i" unicode="i" horiz-adv-x="186" 
d="M57 0q4 51 5 111t1 113q0 35 -0.5 69.5t-1.5 65.5t-3 56t-5 41q18 -1 37 0q21 2 37 7q-3 -51 -4 -111.5t-1 -120.5q0 -54 0.5 -116.5t4.5 -114.5q-10 1 -18 2t-16 1q-10 0 -18.5 -1t-17.5 -2zM131 623q0 -15 -11 -26.5t-27 -11.5q-15 0 -26 11.5t-11 26.5t11 25.5
t26 10.5q16 0 27 -10.5t11 -25.5z" />
    <glyph glyph-name="j" unicode="j" horiz-adv-x="180" 
d="M-22 -255q31 43 55.5 88t26.5 102q0 48 0.5 92t1.5 86q1 28 1 54.5v54.5q0 35 -1 69.5t-2 65.5t-2.5 56.5t-4.5 42.5q17 -1 36 0q21 2 37 7q-3 -50 -4 -112t-1 -120q0 -51 0.5 -94.5t0.5 -89.5q0 -26 0.5 -52t-1.5 -55q-1 -14 -5.5 -30.5t-18 -40.5t-38 -57.5
t-65.5 -81.5zM92 585q-16 0 -27 11.5t-11 26.5q0 16 11 26.5t27 10.5t27 -10.5t11 -26.5q0 -15 -11 -26.5t-27 -11.5z" />
    <glyph glyph-name="k" unicode="k" horiz-adv-x="458" 
d="M451 -15q-61 28 -104.5 58.5t-80.5 72.5l-140 153q0 -69 1 -140t3 -129q-9 1 -17 2t-16 1t-17 -1t-17 -2q2 38 3 84.5t2 95t1 96v87.5v99t-1 107t-3.5 94.5t-7.5 62.5q17 0 36 2.5t38 7.5q-2 -41 -3 -89.5t-1.5 -99t-0.5 -99.5v-90v-80l253 193q16 -3 35 -3q16 0 36 3
q-29 -21 -62.5 -45t-68 -49t-68 -49.5t-62.5 -46.5q24 -24 49.5 -52t51.5 -55.5t52 -53.5t50 -46q19 -26 35.5 -41.5t36.5 -28.5z" />
    <glyph glyph-name="l" unicode="l" horiz-adv-x="188" 
d="M63 0q2 38 3 84.5t2 95t1 96v87.5v99t-1 107t-3.5 94.5t-7.5 62.5q17 0 36 2.5t38 7.5q-2 -41 -3 -89.5t-1.5 -99t-0.5 -99.5v-90v-85.5t0.5 -94t1 -93.5t2.5 -85q-9 1 -17 2t-16 1t-17 -1t-17 -2z" />
    <glyph glyph-name="m" unicode="m" horiz-adv-x="809" 
d="M761 0q-8 1 -16 1h-16h-16t-16 -1q2 25 3 54.5t1.5 60t0.5 60v55.5v51q0 39 -9.5 67.5t-26 48t-38.5 29t-46 9.5q-29 0 -55 -12.5t-45 -34.5t-30 -51t-11 -62v-45v-54.5t0.5 -60.5t1.5 -60.5t3 -54.5q-8 1 -15.5 1h-15.5h-16t-16 -1q3 48 3.5 110.5t0.5 121.5v41
q0 78 -35 120t-84 42q-30 0 -56.5 -13t-46.5 -36.5t-32 -55.5t-12 -70v-25q0 -30 0.5 -61.5t1 -62.5t1.5 -59t2 -52q-20 3 -33 3q-18 0 -36 -3q2 24 3 52.5t2 58t1 58v53.5q0 36 -0.5 70.5t-1.5 64.5t-3 54t-5 38q15 0 34 3.5t40 11.5q-2 -21 -2.5 -45.5t-1.5 -50.5
q11 28 28.5 47.5t37.5 31.5t41 18t41 6q10 1 19 0t19 -3q42 -9 73 -37t45 -71q12 31 31.5 52t42 34.5t46.5 19.5t45 6q33 0 62.5 -13t51.5 -36t35.5 -55.5t14.5 -72.5q0 -8 0.5 -16.5t0.5 -17.5v-31v-54.5t0.5 -60.5t1 -60.5t2.5 -54.5z" />
    <glyph glyph-name="n" unicode="n" horiz-adv-x="537" 
d="M485 230v-54.5t0.5 -60.5t1 -60.5t2.5 -54.5q-15 3 -32 3q-9 0 -17.5 -1t-16.5 -2q1 25 2 54.5t1.5 60t0.5 60v55.5v19q0 33 -7 66t-23.5 59.5t-44.5 43t-70 16.5q-31 0 -58.5 -12t-49 -32.5t-35 -48t-17.5 -57.5v-53q0 -59 1 -121t4 -110q-20 3 -34 3q-17 0 -35 -3
q1 24 2 52.5t2 58t1 58.5v54q0 35 -0.5 69.5t-1.5 64.5t-3 54t-5 38q15 0 34.5 3.5t39.5 11.5q-2 -22 -2.5 -46.5t-1.5 -50.5q10 24 28 43.5t41 33t48.5 21t51.5 7.5q42 0 77 -13.5t61 -41t40.5 -69.5t14.5 -99v-19z" />
    <glyph glyph-name="o" unicode="o" horiz-adv-x="554" 
d="M278 -11q-45 0 -87 15.5t-75 45.5t-53 75.5t-20 105.5t20 105t53 75.5t75 45.5t87 15q43 0 85 -15t75 -45.5t53 -75.5t20 -105t-20 -105.5t-53 -75.5t-75 -45.5t-85 -15.5zM278 25q31 0 61.5 13t54.5 39t38.5 64.5t14.5 89.5q0 50 -14.5 88.5t-38.5 64t-54.5 38.5
t-61.5 13q-33 0 -63.5 -13t-54.5 -38.5t-38.5 -64t-14.5 -88.5q0 -51 14.5 -89.5t38.5 -64.5t54.5 -39t63.5 -13z" />
    <glyph glyph-name="p" unicode="p" horiz-adv-x="536" 
d="M59 -269q1 38 2 84t2 94t1 95v86v106.5t-0.5 105.5t-3 90t-7.5 60q17 1 36 3.5t38 8.5q-1 -22 -2 -46t-1 -50q21 48 64 75t94 28q14 1 26.5 -0.5t25.5 -3.5q33 -6 61.5 -23t50.5 -44.5t34.5 -66t12.5 -89.5q0 -56 -19 -102.5t-52 -80.5t-78 -53t-97 -19q-32 0 -64 7.5
t-61 28.5v-74.5t0.5 -76.5t1 -74.5t2.5 -68.5q-8 1 -16.5 2t-17.5 1q-8 0 -16.5 -1t-16.5 -2zM123 287q-1 -55 -1 -109v-108q23 -17 52.5 -30t72.5 -13q45 0 79 17.5t57 47.5t34.5 69t11.5 83q0 33 -8 66.5t-26 61t-47.5 44.5t-73.5 17q-28 0 -53.5 -11.5t-45.5 -31
t-33.5 -46.5t-18.5 -57z" />
    <glyph glyph-name="q" unicode="q" horiz-adv-x="547" 
d="M412 86q-23 -45 -67 -70t-94 -26q-18 -1 -38 2q-44 5 -76 24.5t-53 50t-31 69.5t-10 82q0 55 19 102t52 80.5t78 52.5t97 19q29 0 59.5 -6.5t59.5 -25.5l-1 21q18 -3 33 -3q17 0 35 3q-2 -38 -2.5 -84.5t-1.5 -95t-1 -95.5v-85v-86t1 -98t1.5 -98t2.5 -86q-9 1 -17.5 2
t-16.5 1q-9 0 -17 -1t-17 -2zM410 395q-23 16 -51.5 27.5t-69.5 11.5q-45 0 -79 -17.5t-57 -47t-34.5 -69t-11.5 -82.5q0 -33 8 -67t26 -61t47.5 -44.5t73.5 -17.5q27 0 51.5 10.5t44 29.5t33.5 44t20 55z" />
    <glyph glyph-name="r" unicode="r" horiz-adv-x="352" 
d="M347 420q0 -19 -13 -27.5t-27 -7.5q-14 0 -25 10t-11 29q-5 5 -13.5 5.5t-18.5 -0.5q-25 -2 -46.5 -17.5t-37.5 -42t-25 -62t-9 -77.5q0 -58 1.5 -120t3.5 -110q-20 3 -33 3q-18 0 -36 -3q2 24 3 53.5t2 60t1 60v55.5q0 33 -0.5 65.5t-1.5 61.5t-3 53t-5 40q15 0 34 3.5
t40 11.5q-1 -22 -2 -47.5t-1 -50.5q18 44 56.5 74t87.5 30q10 0 23.5 -2.5t26 -8.5t21 -15.5t8.5 -23.5z" />
    <glyph glyph-name="s" unicode="s" horiz-adv-x="388" 
d="M87 60q20 -20 45.5 -27.5t45.5 -7.5q19 0 39 4.5t36.5 15t27.5 27t11 39.5q0 27 -18 47t-45 37.5t-58 34t-58 36t-45 43.5t-18 57q0 28 13.5 48.5t34.5 33t46.5 18.5t49.5 6q18 0 41.5 -4.5t44.5 -14t35.5 -23.5t14.5 -33q0 -14 -9.5 -23t-21.5 -9t-21.5 9t-9.5 23
q0 3 0.5 7t4.5 7q-14 13 -34.5 19.5t-42.5 6.5q-42 0 -65.5 -21.5t-23.5 -46.5t18 -44t45 -35.5t58.5 -33t58.5 -36.5t45 -45.5t18 -60.5q0 -32 -14 -55.5t-37.5 -39t-53.5 -23t-62 -7.5q-24 0 -51 6t-50 17.5t-38.5 27t-15.5 35.5q0 12 10 20.5t22 8.5t21.5 -8.5t9.5 -20.5
q0 -3 -1.5 -8t-2.5 -7z" />
    <glyph glyph-name="t" unicode="t" horiz-adv-x="340" 
d="M338 63q-26 -33 -55.5 -53.5t-71.5 -20.5q-60 0 -98 32.5t-38 101.5v304q-19 0 -37 -0.5t-36 -1.5q2 10 2 18q0 9 -2 19q18 -1 36.5 -1.5t37.5 -0.5q1 25 10.5 49t26 44t39 35t51.5 22l8 -19q-22 -12 -36 -28t-22 -34t-11 -36t-3 -33q65 0 108.5 0.5t84.5 2.5
q-3 -9 -3 -20t3 -18q-38 1 -81 1.5t-112 0.5v-292q0 -55 24.5 -80.5t62.5 -25.5q32 0 53.5 12t46.5 33z" />
    <glyph glyph-name="u" unicode="u" horiz-adv-x="539" 
d="M417 203v63t-0.5 68.5t-1.5 67.5t-3 61q19 -3 34 -3q17 0 35 3q-2 -24 -2.5 -52.5t-1.5 -58t-1 -58.5v-54q0 -35 0.5 -69.5t1.5 -65.5t3.5 -56t6.5 -41q-16 1 -32 0q-21 -2 -42 -9q1 22 2 47.5t1 52.5q-10 -24 -27.5 -44t-39 -34t-46.5 -22t-49 -9q-10 0 -20 0.5t-19 1.5
q-73 9 -118 64t-45 158v19v54.5t-0.5 60t-1.5 60.5t-2 55q15 -3 32 -3q19 0 34 3q-2 -25 -2.5 -54.5t-1 -60t-0.5 -60.5v-55v-19q0 -34 7 -67t23.5 -59.5t44.5 -43t70 -16.5q34 0 63 14t50.5 38t34 55.5t13.5 67.5z" />
    <glyph glyph-name="v" unicode="v" horiz-adv-x="449" 
d="M196 -5q-18 52 -41 112t-49 121t-53 121t-52 114q8 -2 17 -3t18 -1t18.5 1t16.5 3q20 -53 44 -111.5t47 -113t43.5 -100.5t33.5 -73q85 196 146 398q15 -3 30 -3q16 0 33 3q-26 -57 -50.5 -112t-48.5 -112t-47.5 -117.5t-48.5 -126.5q-6 2 -13 2h-15h-15t-14 -2z" />
    <glyph glyph-name="w" unicode="w" horiz-adv-x="796" 
d="M547 -5q-16 51 -34.5 104t-38.5 104.5t-39.5 99.5t-37.5 89q-35 -84 -76 -188t-75 -209q-15 3 -29 3q-17 0 -30 -3q-42 122 -90 242t-96 226q8 -2 16.5 -3t16.5 -1q9 0 17 1t17 3q35 -99 77 -196.5t85 -197.5q24 58 43 110t36 100t32 93t31 91q7 -2 14 -3t15 -1t15 1
t15 3q35 -98 76 -196t83 -198q23 53 42 102.5t36.5 97.5l35 96t36.5 98q7 -2 13.5 -3t13.5 -1q8 0 14 1t14 3q-48 -106 -98 -226t-92 -242q-14 3 -30 3q-15 0 -28 -3z" />
    <glyph glyph-name="x" unicode="x" horiz-adv-x="466" 
d="M227 203q-36 -45 -78.5 -99.5t-80.5 -103.5q-17 3 -31 3q-16 0 -31 -3q24 27 50 57l52 60t51 59t47 55q-49 60 -95.5 119.5t-89.5 112.5q9 -2 18 -3t17 -1q9 0 18 1t19 3q32 -43 69.5 -91.5t78.5 -97.5q41 49 76.5 97.5t69.5 91.5q8 -2 15.5 -3t15.5 -1t16 1t16 3
q-45 -50 -92 -104t-97 -112q21 -27 46 -58t50.5 -63.5t52 -65t50.5 -60.5q-18 3 -37 3q-18 0 -37 -3z" />
    <glyph glyph-name="y" unicode="y" horiz-adv-x="445" 
d="M69 463q18 -47 35 -93t36 -94t40 -99t48 -109q26 58 48 109.5t40.5 99.5t35 93.5t31.5 92.5q15 -3 30 -3q16 0 33 3q-17 -35 -30 -63.5t-25.5 -56.5t-25.5 -58t-29.5 -68.5t-37 -88.5t-48.5 -118q-16 -38 -29.5 -69t-29 -59.5t-35 -57.5t-46.5 -64q-11 -9 -22 -12
q-10 -1 -19 0q-12 2 -20.5 12.5t-8.5 22.5q0 16 11 26t27 10q18 0 29 -12q9 13 18.5 30t20 40.5t22.5 53.5t27 71q-32 86 -58.5 151t-49.5 118t-44.5 98.5t-43.5 93.5q8 -2 17 -3t18 -1t18 1t17 3z" />
    <glyph glyph-name="z" unicode="z" horiz-adv-x="443" 
d="M421 38q-4 -8 -4 -19t4 -19q-46 1 -100 1h-102h-90.5t-93.5 -1q1 3 1 12v6.5t-1 5.5q49 68 90.5 125.5t75.5 107t62 91t51 78.5h-97h-79t-78 -1q2 8 2 18q0 9 -2 19q41 -1 87.5 -1.5t86.5 -0.5t78 0.5t81 1.5q-1 -4 -1.5 -7t-0.5 -6q0 -2 2 -10q-72 -101 -140.5 -200.5
t-136.5 -201.5q36 0 72 -1t73 -1q40 0 79.5 1.5t80.5 1.5z" />
    <glyph glyph-name="braceleft" unicode="{" horiz-adv-x="293" 
d="M290 -236q-56 5 -87.5 20t-48 40t-20.5 60.5t-4 80.5q0 42 5.5 82t5.5 78q0 46 -26 72.5t-69 36.5v23q43 10 69 36.5t26 73.5q0 38 -5.5 77.5t-5.5 82.5q0 45 4 80t20.5 60t48 40t87.5 20v-26q-33 -5 -53.5 -16.5t-31.5 -28.5t-14.5 -38.5t-3.5 -45.5q0 -29 2 -59t4 -58
t4 -50.5t2 -35.5q0 -18 -4.5 -37t-15 -36t-27 -30t-41.5 -20q25 -7 41.5 -20.5t27 -30.5t15 -35.5t4.5 -36.5q0 -14 -2 -36.5t-4 -50t-4 -58t-2 -59.5q0 -24 3.5 -45.5t14.5 -38.5t31.5 -28.5t53.5 -16.5v-26z" />
    <glyph glyph-name="bar" unicode="|" horiz-adv-x="233" 
d="M81 -224q1 27 2 66t1.5 85t0.5 94.5t0.5 94.5t0.5 85.5v66.5v106t-1 135t-2 134.5t-2 105.5q8 -2 17 -3t18 -1q17 0 36 4q-2 -41 -3.5 -105.5t-2 -134.5t-0.5 -135v-106v-66.5v-85.5t0.5 -94.5t1 -94.5t1.5 -85t3 -66q-21 3 -36 3q-19 0 -35 -3z" />
    <glyph glyph-name="braceright" unicode="}" horiz-adv-x="293" 
d="M3 -210q34 5 54.5 16.5t31.5 28.5t14.5 38.5t3.5 45.5q0 29 -2 59.5t-4 58t-4 50t-2 36.5q0 18 4.5 36.5t14.5 35.5t27 30.5t42 20.5q-25 7 -42 20t-27 30t-14.5 36t-4.5 37q0 13 2 35.5t4 50.5t4 58t2 59q0 24 -3.5 45.5t-14.5 38.5t-31.5 28.5t-54.5 16.5v26
q56 -5 88 -20t48 -40t20 -60t4 -80q0 -43 -5 -82.5t-5 -77.5q0 -47 26.5 -73.5t68.5 -36.5v-23q-42 -10 -68.5 -36.5t-26.5 -72.5q0 -38 5 -78t5 -82q0 -45 -4 -80.5t-20 -60.5t-48 -40t-88 -20v26z" />
    <glyph glyph-name="asciitilde" unicode="~" horiz-adv-x="615" 
d="M549 361q-7 -21 -16.5 -40t-23.5 -33.5t-34 -23.5t-48 -9q-31 0 -61 9.5t-59 20.5t-57 20.5t-55 9.5q-31 0 -55.5 -15t-38.5 -56l-35 21q5 14 15 32t25.5 34t36.5 27t48 11q29 0 57 -9.5t56.5 -20.5t58.5 -20.5t62 -9.5q35 0 54.5 18t30.5 50z" />
    <glyph glyph-name="exclamdown" unicode="&#xa1;" horiz-adv-x="278" 
d="M151 333q6 -88 10.5 -160.5t7 -135.5t4 -119t3.5 -110q0 -17 -10.5 -26.5t-26.5 -9.5q-14 0 -25.5 9.5t-11.5 26.5q2 54 4 110t4.5 119t6.5 135.5t10 160.5h24zM139 472q15 0 25.5 -11t10.5 -26q0 -14 -10.5 -24t-25.5 -10t-26 10t-11 24q0 15 11 26t26 11z" />
    <glyph glyph-name="cent" unicode="&#xa2;" horiz-adv-x="509" 
d="M481 98q-34 -50 -79.5 -74t-98.5 -28q0 -28 1 -51t2 -42q-20 3 -35 3q-19 0 -35 -3q0 19 0.5 43t1.5 52q-42 6 -77.5 26.5t-61 51t-40 70.5t-14.5 87q0 45 15 84.5t41.5 70.5t61.5 51.5t75 27.5q-1 25 -1.5 47.5t-0.5 40.5q8 -2 17 -3t17 -1t16.5 1t19.5 3l-3 -86
q39 -4 73.5 -21.5t63.5 -57.5q9 -12 9 -26q0 -15 -11.5 -26t-26.5 -11q-12 0 -21.5 7t-11.5 18q-5 13 0 26q-1 9 0 16q-22 22 -45.5 31t-54.5 9q-35 0 -66 -15.5t-54 -42.5t-36 -63.5t-13 -79.5t13.5 -80t37 -64t56 -42.5t70.5 -15.5q54 0 98 18.5t84 61.5z" />
    <glyph glyph-name="sterling" unicode="&#xa3;" horiz-adv-x="558" 
d="M445 45q0 -6 -0.5 -12t-0.5 -12t0.5 -12t0.5 -12q-68 2 -139.5 3.5t-143.5 1.5q-24 0 -59 -0.5t-60 -1.5q1 4 1 15v8t-1 9q45 62 71.5 137t31.5 157q-29 0 -57 -0.5t-54 -1.5v37q26 -1 54.5 -1.5t57.5 -0.5q0 48 3.5 101t19.5 99t48 79.5t88 42.5q21 3 49 3q51 -2 89 -24
t62 -60q2 -4 3.5 -9.5t1.5 -10.5q0 -17 -12 -29t-27 -12q-17 0 -28.5 12t-11.5 29q0 5 2.5 12t8.5 11q-23 22 -46 33.5t-55 11.5q-28 0 -52.5 -10.5t-42.5 -39t-29 -80t-12 -132.5l-1 -27q32 0 63.5 0.5t63.5 1.5q-1 -5 -1 -9.5v-8.5v-9.5t1 -9.5q-30 1 -62.5 1.5t-65.5 0.5
q-5 -80 -28.5 -151.5t-71.5 -135.5h80.5t94.5 1t92 2t74 3z" />
    <glyph glyph-name="currency" unicode="&#xa4;" horiz-adv-x="491" 
d="M439 105l-52 55q-30 -23 -67 -35t-75 -12q-39 0 -75 11.5t-67 35.5l-51 -55l-35 31l50 56q-25 30 -40 70.5t-15 90.5t15 90.5t40 70.5l-50 55l35 31l51 -55q31 24 67 35.5t75 11.5q38 0 75 -11.5t67 -35.5l52 55l34 -31l-49 -55q25 -30 40 -70t15 -91q0 -50 -15 -90.5
t-40 -70.5l49 -56zM245 150q32 0 62.5 13t54.5 38.5t39 63.5t15 88t-15 88t-39 63.5t-54.5 38.5t-62.5 13t-62 -13t-54 -38.5t-38.5 -63.5t-14.5 -88t14.5 -88t38.5 -63.5t54 -38.5t62 -13z" />
    <glyph glyph-name="yen" unicode="&#xa5;" horiz-adv-x="587" 
d="M491 170q0 -4 -0.5 -9t-0.5 -10t0.5 -9.5t0.5 -8.5q-54 2 -93.5 2.5t-75.5 0.5q0 -35 1 -70t3 -66q-9 1 -18 1.5t-18 0.5t-17.5 -0.5t-16.5 -1.5q2 30 2.5 65t0.5 71q-34 0 -73.5 -1t-92.5 -2q1 3 1 8v10v10t-1 9q53 -2 92.5 -2t74.5 -1q0 20 0.5 38t0.5 38q-35 0 -75 -1
t-93 -2q1 7 1 14.5v15.5q47 -2 80.5 0t63.5 3q6 13 17 25q-30 43 -64.5 98t-67.5 109.5t-62.5 102.5t-50.5 78q10 -1 20.5 -1h21.5h20t21 1q19 -33 46 -80.5t56 -98t57 -96.5t50 -76q24 31 55 78t62.5 97t59.5 97t46 79q7 -1 13 -1h13h13.5t13.5 1q-19 -27 -49 -72.5
t-64.5 -98t-71 -107.5t-68.5 -101q6 -9 11 -17.5t8 -16.5q72 0 146 -3v-15.5t1 -14.5q-54 2 -93.5 2.5t-76.5 0.5v-76l170 3v0z" />
    <glyph glyph-name="brokenbar" unicode="&#xa6;" horiz-adv-x="232" 
d="M146 340q-8 1 -15.5 1h-15.5h-15t-15 -1v103t-0.5 113.5t-1.5 107.5t-2 85q8 -2 17.5 -3t17.5 -1t16.5 1t18.5 3q-2 -34 -2.5 -85t-1.5 -107.5t-1 -113.5v-103zM85 172q8 -1 15 -1.5t15 -0.5t15.5 0.5t15.5 1.5v-105t1 -110t1.5 -101.5t2.5 -79.5q-18 3 -35 3
q-19 0 -35 -3q1 32 2 79.5t1.5 101.5t0.5 110v105z" />
    <glyph glyph-name="section" unicode="&#xa7;" horiz-adv-x="588" 
d="M468 63q24 -25 39.5 -55t15.5 -68q0 -48 -22 -82.5t-57 -57t-78.5 -33.5t-87.5 -11q-35 0 -73 9t-70.5 25t-53.5 37.5t-21 46.5q0 17 11.5 28.5t27.5 11.5t27.5 -11.5t11.5 -28.5q0 -13 -8 -23q29 -31 69 -43.5t75 -12.5q28 0 60.5 7.5t59.5 24t45 43.5t18 65
q0 43 -27 74t-68 56.5t-88.5 48t-88.5 50t-68 63t-27 85.5q0 39 22 69t57 50q-32 25 -53 56.5t-21 74.5q0 37 20 66.5t51.5 49t70 30t75.5 10.5q31 0 65.5 -8t65.5 -24q5 -4 15.5 -12t20.5 -18.5t17.5 -22.5t7.5 -23t-5.5 -19.5t-13.5 -13t-18 -5t-19 4.5q-10 3 -16.5 12.5
t-6.5 20.5q0 15 9 24q-24 26 -58.5 36.5t-68.5 10.5t-61 -9t-46 -24.5t-29.5 -36t-10.5 -42.5q0 -40 27 -68.5t68 -52.5t88.5 -47.5t88.5 -52.5t68 -67t27 -92q0 -42 -16 -73t-43 -53zM212 401q-28 -14 -42 -36.5t-14 -46.5q0 -26 12.5 -47t33 -39t47.5 -34t56.5 -31.5
t59 -31.5t56.5 -35q19 15 30.5 35.5t11.5 49.5q0 42 -24.5 72t-62 54t-81.5 45t-83 45z" />
    <glyph glyph-name="dieresis" unicode="&#xa8;" horiz-adv-x="267" 
d="M73 616q0 -14 -10.5 -24t-26.5 -10q-14 0 -24.5 10t-10.5 24q0 15 10.5 25.5t24.5 10.5q16 0 26.5 -10.5t10.5 -25.5zM283 616q0 -14 -11.5 -24t-26.5 -10q-14 0 -24.5 10t-10.5 24q0 15 10.5 25.5t24.5 10.5q15 0 26.5 -10.5t11.5 -25.5z" />
    <glyph glyph-name="copyright" unicode="&#xa9;" horiz-adv-x="836" 
d="M808 358q0 -91 -34 -161t-89 -117.5t-125 -72t-143 -24.5t-143 24.5t-124.5 72t-88 117.5t-33.5 162q0 91 33.5 161.5t88 118t124.5 72t143 24.5t143 -24.5t125 -72t89 -118t34 -162.5zM417 17q69 0 131.5 24t110 68t75.5 107.5t28 142.5t-28 142.5t-75.5 108t-110 68.5
t-131.5 24t-131.5 -24t-109.5 -68.5t-75 -108t-28 -143.5t28 -143t75 -107t109.5 -67.5t131.5 -23.5zM589 180q-37 -32 -81.5 -47t-86.5 -15q-48 0 -89.5 17.5t-71.5 49t-47.5 74.5t-17.5 94q0 49 17.5 93t48.5 77t73.5 52t91.5 19q24 0 52.5 -7.5t54 -21.5t42.5 -34.5
t17 -45.5q0 -14 -9.5 -21.5t-20.5 -7.5q-13 0 -22 9t-9 22q0 11 10 19q-8 13 -21.5 23.5t-29 17.5t-33 10.5t-33.5 3.5q-39 0 -71.5 -18t-56 -47t-36.5 -65.5t-13 -74.5q0 -44 14 -82t38 -66t57 -43.5t72 -15.5q44 0 80.5 11.5t68.5 33.5z" />
    <glyph glyph-name="ordfeminine" unicode="&#xaa;" horiz-adv-x="334" 
d="M275 402q-5 1 -11 1.5t-12 0.5q-8 0 -14.5 -1t-13.5 -2q2 8 2 23v20q-14 -21 -43.5 -35t-58.5 -14q-17 0 -33 4.5t-28 13.5t-19.5 23.5t-7.5 34.5q0 28 20.5 48t50.5 32.5t63 19.5t57 9q-4 76 -72 76q-13 0 -27.5 -5.5t-25.5 -14.5q6 -6 6 -14q0 -11 -8.5 -20t-20.5 -9
t-20 8t-8 19q0 18 13 31t31 21t36.5 12t30.5 4q29 0 49.5 -10.5t34 -27t20 -37t6.5 -39.5q0 -20 -0.5 -38t-0.5 -35q0 -25 1 -52.5t3 -46.5zM227 549q-16 -2 -40.5 -6.5t-48 -13.5t-40 -21.5t-16.5 -30.5q0 -28 18.5 -39.5t41.5 -11.5q14 0 29 4.5t27.5 13t20.5 21t8 28.5
v56z" />
    <glyph glyph-name="guillemotleft" unicode="&#xab;" horiz-adv-x="454" 
d="M225 32l-191 196l189 197l41 -2l-168 -195l169 -194zM380 32l-191 196l189 197l41 -2l-168 -195l169 -194z" />
    <glyph glyph-name="logicalnot" unicode="&#xac;" horiz-adv-x="638" 
d="M552 193v226h-507v37h548v-263h-41z" />
    <glyph glyph-name="registered" unicode="&#xae;" horiz-adv-x="835" 
d="M808 358q0 -91 -34 -161t-89 -117.5t-125 -72t-143 -24.5t-143 24.5t-124.5 72t-88 117.5t-33.5 162q0 91 33.5 161.5t88 118t124.5 72t143 24.5t143 -24.5t125 -72t89 -118t34 -162.5zM417 17q69 0 131.5 24t110 68t75.5 107.5t28 142.5t-28 142.5t-75.5 108t-110 68.5
t-131.5 24t-131.5 -24t-109.5 -68.5t-75 -108t-28 -143.5t28 -143t75 -107t109.5 -67.5t131.5 -23.5zM606 132q-31 15 -55.5 30t-48.5 35t-50 47t-59 65l-19 29h-17q0 -48 0.5 -102.5t3.5 -97.5q-11 2 -16.5 2h-11.5h-11t-16 -2q1 25 2 54t2 59.5t1 60v54.5v54.5t-1 60.5
t-2 60.5t-2 54.5q18 -3 24 -3q11 0 21.5 1t26.5 1q39 0 69.5 -11t51 -29t31.5 -41t11 -48q0 -40 -28 -75.5t-83 -48.5l39 -50q35 -44 68.5 -80t77.5 -63zM384 369q26 0 45 8.5t31.5 22t18.5 31t6 35.5t-6 35t-18 30.5t-31.5 22t-46.5 8.5h-23q-2 -45 -2.5 -96.5t-0.5 -96.5
h27z" />
    <glyph glyph-name="macron" unicode="&#xaf;" horiz-adv-x="367" 
d="M348 581q-41 1 -82.5 1h-81.5h-82.5t-82.5 -1v37q52 -1 88.5 -1.5t76.5 -0.5h37.5t38 0.5t41 1t47.5 0.5v-37z" />
    <glyph glyph-name="degree" unicode="&#xb0;" horiz-adv-x="450" 
d="M395 575q0 -39 -14.5 -69t-38 -49.5t-54 -29.5t-62.5 -10t-63 10t-55 30t-39 49.5t-15 68.5t15 68.5t39 49.5t55 30.5t63 10.5t62.5 -10t54 -30t38 -49.5t14.5 -69.5zM225 454q21 0 41 8t36 23t25.5 37.5t9.5 52.5t-9.5 52.5t-25.5 38t-36 23.5t-41 8t-41 -8t-35.5 -23.5
t-25 -38t-9.5 -52.5t9.5 -52.5t25 -37.5t35.5 -23t41 -8z" />
    <glyph glyph-name="plusminus" unicode="&#xb1;" horiz-adv-x="669" 
d="M313 66v260h-259v35h259v259h38v-259h260v-35h-260v-260h-38zM54 -1v35h503v-35h-503z" />
    <glyph glyph-name="acute" unicode="&#xb4;" horiz-adv-x="241" 
d="M55 548h-24l108 140q10 15 27.5 33.5t36.5 18.5q14 0 23.5 -8t9.5 -21q0 -2 -1 -5.5t-5.5 -8.5t-13.5 -13.5t-25 -21.5z" />
    <glyph glyph-name="mu" unicode="&#xb5;" horiz-adv-x="578" 
d="M439 95q-9 -23 -26 -42.5t-38.5 -33t-46 -21.5t-48.5 -8q-10 -1 -19.5 -0.5t-19.5 1.5q-32 6 -59 22t-45 44v-57q0 -54 0.5 -115t5.5 -109q-19 2 -36 -1q-8 -2 -17 -3.5t-18 -4.5q4 55 5 116.5t1 112.5t-0.5 102.5t-0.5 115.5q0 63 -0.5 128.5t-3.5 120.5q16 -3 33 -3
q16 0 34 3q-2 -25 -3 -54.5t-1.5 -61.5t-0.5 -64.5v-62.5q0 -36 8 -70.5t25.5 -61.5t45.5 -43.5t69 -16.5q34 0 63 14.5t50 41.5t33 64.5t12 83.5q0 58 -1 120.5t-3 110.5q18 -3 33 -3q17 0 35 3q-2 -25 -3 -54.5t-1.5 -60t-0.5 -60v-54.5q0 -65 1 -117.5t6 -109.5
q-7 1 -14.5 1h-14.5l-20 -4t-22 -5z" />
    <glyph glyph-name="mu" unicode="&#x3bc;" horiz-adv-x="578" 
d="M439 95q-9 -23 -26 -42.5t-38.5 -33t-46 -21.5t-48.5 -8q-10 -1 -19.5 -0.5t-19.5 1.5q-32 6 -59 22t-45 44v-57q0 -54 0.5 -115t5.5 -109q-19 2 -36 -1q-8 -2 -17 -3.5t-18 -4.5q4 55 5 116.5t1 112.5t-0.5 102.5t-0.5 115.5q0 63 -0.5 128.5t-3.5 120.5q16 -3 33 -3
q16 0 34 3q-2 -25 -3 -54.5t-1.5 -61.5t-0.5 -64.5v-62.5q0 -36 8 -70.5t25.5 -61.5t45.5 -43.5t69 -16.5q34 0 63 14.5t50 41.5t33 64.5t12 83.5q0 58 -1 120.5t-3 110.5q18 -3 33 -3q17 0 35 3q-2 -25 -3 -54.5t-1.5 -60t-0.5 -60v-54.5q0 -65 1 -117.5t6 -109.5
q-7 1 -14.5 1h-14.5l-20 -4t-22 -5z" />
    <glyph glyph-name="mu" unicode="&#x3bc;" horiz-adv-x="578" 
d="M439 95q-9 -23 -26 -42.5t-38.5 -33t-46 -21.5t-48.5 -8q-10 -1 -19.5 -0.5t-19.5 1.5q-32 6 -59 22t-45 44v-57q0 -54 0.5 -115t5.5 -109q-19 2 -36 -1q-8 -2 -17 -3.5t-18 -4.5q4 55 5 116.5t1 112.5t-0.5 102.5t-0.5 115.5q0 63 -0.5 128.5t-3.5 120.5q16 -3 33 -3
q16 0 34 3q-2 -25 -3 -54.5t-1.5 -61.5t-0.5 -64.5v-62.5q0 -36 8 -70.5t25.5 -61.5t45.5 -43.5t69 -16.5q34 0 63 14.5t50 41.5t33 64.5t12 83.5q0 58 -1 120.5t-3 110.5q18 -3 33 -3q17 0 35 3q-2 -25 -3 -54.5t-1.5 -60t-0.5 -60v-54.5q0 -65 1 -117.5t6 -109.5
q-7 1 -14.5 1h-14.5l-20 -4t-22 -5z" />
    <glyph glyph-name="paragraph" unicode="&#xb6;" horiz-adv-x="549" 
d="M381 -178q1 100 1 199v199v238.5t-1 238.5h-63q-1 -120 -1.5 -238.5t-0.5 -238.5q0 -100 0.5 -199t1.5 -199h-51q1 62 2.5 123t1.5 123q0 57 -1.5 114t-2.5 115q-57 2 -99.5 22.5t-71 52.5t-42.5 72.5t-14 82.5t15 81.5t44.5 71t74.5 50.5t105 19q18 0 35.5 -1.5
t35.5 -1.5q15 0 36.5 1.5t44.5 1.5q-1 -95 -2 -165t-2 -123t-1.5 -94t-0.5 -78q0 -39 0.5 -81t1.5 -95.5t2 -124t2 -166.5h-50z" />
    <glyph glyph-name="periodcentered" unicode="&#xb7;" horiz-adv-x="204" 
d="M140 307q0 -15 -11 -26t-27 -11t-27 11t-11 26q0 16 11 26t27 10t27 -10t11 -26z" />
    <glyph glyph-name="cedilla" unicode="&#xb8;" horiz-adv-x="221" 
d="M28 -171q17 -7 32 -11t26 -4q24 0 46 11t22 37q0 12 -6.5 20t-16 13t-22 7.5t-24.5 2.5q-13 2 -25 0l57 111h44l-42 -79q25 -1 42.5 -8.5t29 -18t17 -23.5t5.5 -26q0 -29 -26.5 -53t-74.5 -30q-16 -3 -29 -2q-20 1 -40 7t-34 13z" />
    <glyph glyph-name="ordmasculine" unicode="&#xba;" horiz-adv-x="336" 
d="M168 397q-29 0 -56.5 9t-49 27.5t-35 46.5t-13.5 66q0 36 13.5 63.5t35 46t49 28t55.5 9.5q29 0 57 -9.5t49.5 -28t35 -46t13.5 -64.5q0 -38 -13 -65.5t-35 -46t-49.5 -27.5t-56.5 -9zM168 433q17 0 33 7t28.5 21t20 35t7.5 49q0 27 -8 47.5t-20.5 35t-28.5 21.5t-32 7
q-17 0 -33 -7t-28.5 -21t-20 -34.5t-7.5 -47.5q0 -28 7.5 -49t20.5 -35.5t28.5 -21.5t32.5 -7z" />
    <glyph glyph-name="guillemotright" unicode="&#xbb;" horiz-adv-x="456" 
d="M38 34l169 194l-168 195l41 2l189 -197l-191 -196zM193 34l169 194l-168 195l41 2l189 -197l-191 -196z" />
    <glyph glyph-name="onequarter" unicode="&#xbc;" horiz-adv-x="1046" 
d="M920 207q20 0 41.5 0.5t41.5 2.5q0 -6 -1 -11.5t-1 -10.5t1 -11t1 -11q-18 2 -40 2.5t-43 0.5q0 -45 1 -88t3 -81q-7 2 -13 2h-13h-13t-12 -2q2 40 2 82t1 87h-114.5t-114.5 -2q1 4 1 13v8t-1 8q61 81 121 162.5t120 163.5q9 -3 17 -3q9 0 18 3q-2 -27 -2.5 -58.5
t-0.5 -64v-64v-57.5v-71zM324 -92q44 123 80 223t69 195q35 99 67.5 199.5t67.5 201.5q16 -3 28.5 -3.5t27.5 3.5q-39 -109 -77.5 -218t-75 -213.5t-70 -202.5t-62.5 -185q-27 6 -55 0zM108 686q-12 -8 -24 -17.5t-24 -19.5l-17 25q22 20 43.5 39.5t43.5 40.5q5 -1 13 -1
h6.5t7.5 1q-1 -18 -1.5 -51t-1 -71.5t-0.5 -77.5v-69v-64.5v-58.5t0.5 -60t2.5 -70q-7 1 -13 1.5t-12 0.5q-7 0 -13 -0.5t-12 -1.5q1 28 1.5 61t1 66.5t0.5 66.5v62v46v51t-0.5 52t-1.5 49zM876 372q0 22 -0.5 42t-1.5 38l-92 -122t-91 -122q45 -1 93.5 -1h91.5v165z" />
    <glyph glyph-name="onehalf" unicode="&#xbd;" horiz-adv-x="1029" 
d="M651 0q1 3 1 11q0 6 -1 10q50 52 94.5 99.5t86.5 92.5l31.5 36t32.5 42.5t25 47t10 48.5q0 26 -9.5 45.5t-24.5 33t-35 20.5t-41 7q-22 0 -43.5 -7.5t-41.5 -27.5q2 -2 3.5 -5t2.5 -6q2 -7 0 -13q-2 -8 -10 -14.5t-17 -6.5q-12 0 -20.5 8t-8.5 19q0 8 3 12.5t6 9.5
q23 30 58.5 44.5t70.5 14.5q29 0 56.5 -8.5t49.5 -25t35 -41.5t13 -57q0 -28 -10 -54.5t-27 -52.5t-40.5 -53t-50.5 -55q-32 -35 -65.5 -70.5t-66.5 -70.5h107h80t81 1q-1 -5 -1.5 -8.5t-0.5 -7.5q0 -5 0.5 -9t1.5 -9h-335zM284 -92q44 123 80 223t69 195q35 99 67.5 199.5
t67.5 201.5q16 -3 28.5 -3.5t27.5 3.5q-39 -109 -77.5 -218t-75 -213.5t-70 -202.5t-62.5 -185q-27 6 -55 0zM108 686q-12 -8 -24 -17.5t-24 -19.5l-17 25q22 20 43.5 39.5t43.5 40.5q5 -1 13 -1h6.5t7.5 1q-1 -18 -1.5 -51t-1 -71.5t-0.5 -77.5v-69v-64.5v-58.5t0.5 -60
t2.5 -70q-7 1 -13 1.5t-12 0.5q-7 0 -13 -0.5t-12 -1.5q1 28 1.5 61t1 66.5t0.5 66.5v62v46v51t-0.5 52t-1.5 49z" />
    <glyph glyph-name="threequarters" unicode="&#xbe;" horiz-adv-x="1186" 
d="M168 520q28 0 51 9.5t39.5 25.5t25 36.5t8.5 43.5q0 18 -5 34t-16.5 29t-29.5 20.5t-45 7.5q-24 0 -44.5 -5.5t-40.5 -22.5q7 -7 7 -17q0 -11 -8 -19.5t-20 -8.5t-20 8.5t-8 19.5q0 17 13.5 30.5t33.5 23t43 14.5t43 5q37 0 64.5 -10.5t45.5 -27.5t26.5 -38.5t8.5 -44.5
q0 -16 -6.5 -34.5t-18 -35.5t-28.5 -30.5t-38 -20.5q34 -7 58 -20.5t40 -31t23.5 -37.5t7.5 -40q0 -76 -52 -118t-145 -42q-20 0 -44 5.5t-45 15t-35 23.5t-14 31q0 11 7 19.5t20 8.5q12 0 20 -8t8 -19q0 -10 -6 -16q20 -17 43 -25t48 -8q37 0 64.5 11t46 29.5t27.5 42
t9 48.5q0 30 -14 52t-36.5 36.5t-51.5 21.5t-60 8v21zM441 -92q44 121 81.5 226t71.5 203q17 50 32.5 97t31.5 94.5t32 96.5t35 102q15 -3 28 -3q11 0 28 3q-39 -109 -77.5 -218t-75 -213.5t-70 -202.5t-63.5 -185q-7 2 -13.5 2h-13.5h-13t-14 -2zM1060 207q20 0 41.5 0.5
t41.5 2.5q0 -6 -1 -11.5t-1 -10.5t1 -11t1 -11q-18 2 -40 2.5t-43 0.5q0 -45 1 -88t3 -81q-7 2 -13 2h-13h-13t-12 -2q2 40 2 82t1 87h-114.5t-114.5 -2q1 4 1 13v8t-1 8q61 81 121 162.5t120 163.5q9 -3 17 -3q9 0 18 3q-2 -27 -2.5 -58.5t-0.5 -64v-64v-57.5v-71z
M1016 255v45.5v50.5t-0.5 52t-1.5 49l-92 -122t-91 -122q45 -1 93.5 -1h91.5v48z" />
    <glyph glyph-name="questiondown" unicode="&#xbf;" horiz-adv-x="508" 
d="M326 228q9 -16 11 -29.5t2 -26.5q0 -35 -13.5 -61.5t-34 -49t-44.5 -42.5t-44.5 -42.5t-34 -49.5t-13.5 -63q0 -46 28.5 -78.5t92.5 -32.5q32 0 62.5 11t52.5 31q-10 13 -10 25q0 17 11.5 28.5t27.5 11.5q17 0 28.5 -11.5t11.5 -28.5q0 -8 -2.5 -13.5t-6.5 -10.5
q-15 -20 -35.5 -35t-44 -25t-49 -15t-49.5 -5q-45 0 -78.5 11.5t-56 31t-34.5 44.5t-13 53q0 11 1 22t3 21q7 32 23.5 56.5t37.5 45.5t44 41t42 42.5t31.5 49.5t12.5 64v14.5t-2 15.5h42zM308 423q15 0 25.5 -11t10.5 -26q0 -14 -10.5 -24t-25.5 -10t-25.5 10t-10.5 24
q0 15 10.5 26t25.5 11z" />
    <glyph glyph-name="Agrave" unicode="&#xc0;" horiz-adv-x="552" 
d="M483 -3q-20 57 -40 117t-42 121q-32 1 -67.5 1h-64.5h-67t-70 -1q-22 -61 -42.5 -120t-40.5 -118q-5 2 -11.5 3t-12.5 1q-8 0 -16.5 -1t-15.5 -3q69 172 130 345t126 344q15 -3 31 -3t30 3q59 -167 121.5 -344.5t128.5 -344.5q-10 2 -19 3t-20 1q-9 0 -19 -1t-19 -3z
M145 272q30 -1 63 -1h60t59 0.5t62 1.5q-30 87 -61 172.5t-61 166.5zM265 749l-139 118q-14 12 -24.5 23t-19.5 22q7 9 18.5 16.5t23.5 12.5q45 -38 85.5 -86.5t84.5 -105.5h-29z" />
    <glyph glyph-name="Aacute" unicode="&#xc1;" horiz-adv-x="552" 
d="M483 -3q-20 57 -40 117t-42 121q-32 1 -67.5 1h-64.5h-67t-70 -1q-22 -61 -42.5 -120t-40.5 -118q-5 2 -11.5 3t-12.5 1q-8 0 -16.5 -1t-15.5 -3q69 172 130 345t126 344q15 -3 31 -3t30 3q59 -167 121.5 -344.5t128.5 -344.5q-10 2 -19 3t-20 1q-9 0 -19 -1t-19 -3z
M145 272q30 -1 63 -1h60t59 0.5t62 1.5q-30 87 -61 172.5t-61 166.5zM287 749h-24l108 140q10 15 27.5 33.5t36.5 18.5q14 0 23.5 -8t9.5 -21q0 -2 -1 -5.5t-5.5 -8.5t-13.5 -13.5t-25 -21.5z" />
    <glyph glyph-name="Acircumflex" unicode="&#xc2;" horiz-adv-x="552" 
d="M483 -3q-20 57 -40 117t-42 121q-32 1 -67.5 1h-64.5h-67t-70 -1q-22 -61 -42.5 -120t-40.5 -118q-5 2 -11.5 3t-12.5 1q-8 0 -16.5 -1t-15.5 -3q69 172 130 345t126 344q15 -3 31 -3t30 3q59 -167 121.5 -344.5t128.5 -344.5q-10 2 -19 3t-20 1q-9 0 -19 -1t-19 -3z
M145 272q30 -1 63 -1h60t59 0.5t62 1.5q-30 87 -61 172.5t-61 166.5zM397 751l-122 111l-121 -111h-43l164 176l165 -176h-43z" />
    <glyph glyph-name="Atilde" unicode="&#xc3;" horiz-adv-x="552" 
d="M483 -3q-20 57 -40 117t-42 121q-32 1 -67.5 1h-64.5h-67t-70 -1q-22 -61 -42.5 -120t-40.5 -118q-5 2 -11.5 3t-12.5 1q-8 0 -16.5 -1t-15.5 -3q69 172 130 345t126 344q15 -3 31 -3t30 3q59 -167 121.5 -344.5t128.5 -344.5q-10 2 -19 3t-20 1q-9 0 -19 -1t-19 -3z
M145 272q30 -1 63 -1h60t59 0.5t62 1.5q-30 87 -61 172.5t-61 166.5zM439 836q-8 -35 -32 -60.5t-66 -25.5q-17 0 -36 7t-38.5 15t-38.5 15t-36 7q-18 0 -36.5 -10t-24.5 -39l-29 9q7 31 32.5 57t68.5 26q17 0 35 -7t36 -16t36 -16t35 -7q18 0 37 11t29 41z" />
    <glyph glyph-name="Adieresis" unicode="&#xc4;" horiz-adv-x="552" 
d="M483 -3q-20 57 -40 117t-42 121q-32 1 -67.5 1h-64.5h-67t-70 -1q-22 -61 -42.5 -120t-40.5 -118q-5 2 -11.5 3t-12.5 1q-8 0 -16.5 -1t-15.5 -3q69 172 130 345t126 344q15 -3 31 -3t30 3q59 -167 121.5 -344.5t128.5 -344.5q-10 2 -19 3t-20 1q-9 0 -19 -1t-19 -3z
M145 272q30 -1 63 -1h60t59 0.5t62 1.5q-30 87 -61 172.5t-61 166.5zM424 830q0 -14 -11.5 -24t-26.5 -10q-14 0 -24.5 10t-10.5 24q0 15 10.5 25.5t24.5 10.5q15 0 26.5 -10.5t11.5 -25.5zM214 830q0 -14 -10.5 -24t-26.5 -10q-14 0 -24.5 10t-10.5 24q0 15 10.5 25.5
t24.5 10.5q16 0 26.5 -10.5t10.5 -25.5z" />
    <glyph glyph-name="Aring" unicode="&#xc5;" horiz-adv-x="552" 
d="M483 -3q-20 57 -40 117t-42 121q-32 1 -67.5 1h-64.5h-67t-70 -1q-22 -61 -42.5 -120t-40.5 -118q-5 2 -11.5 3t-12.5 1q-8 0 -16.5 -1t-15.5 -3q69 172 130 345t126 344q15 -3 31 -3t30 3q59 -167 121.5 -344.5t128.5 -344.5q-10 2 -19 3t-20 1q-9 0 -19 -1t-19 -3z
M145 272q30 -1 63 -1h60t59 0.5t62 1.5q-30 87 -61 172.5t-61 166.5zM384 874q0 -23 -8.5 -43t-23.5 -34.5t-35 -23t-42 -8.5q-23 0 -43 8.5t-35 23t-23.5 34t-8.5 42.5q0 22 8.5 42t23.5 35t35 23.5t43 8.5q22 0 42 -8.5t35 -23.5t23.5 -34.5t8.5 -41.5zM274 802
q28 0 50 19.5t22 52.5t-22 52t-50 19t-49.5 -18.5t-21.5 -52.5q0 -33 22 -52.5t49 -19.5z" />
    <glyph glyph-name="AE" unicode="&#xc6;" horiz-adv-x="867" 
d="M825 -3q-88 2 -179.5 3.5t-181.5 1.5q-10 0 -18.5 -0.5t-16.5 -1.5q3 50 3.5 107.5t1.5 114.5q-30 1 -59.5 1h-55.5q-28 0 -59 -0.5t-61 -0.5q-36 -59 -71 -117t-70 -118q-14 3 -28 3t-29 -3q21 30 41.5 60.5t46 69.5t57.5 89t74.5 117.5t97 156t126.5 204.5q81 0 172 1
t177 4v-45q-32 1 -70 2t-77 1.5t-77.5 0.5h-71.5q-2 -64 -2.5 -136t-0.5 -135q65 0 130 0.5t127 2.5v-47q-74 2 -134 3t-123 1v-70.5t0.5 -76.5t1 -77.5t1.5 -72.5h78t89.5 0.5t87.5 1t73 1.5v-46zM434 260q1 19 1 38.5v37.5v46v105.5t-2 108.5q-49 -75 -98 -154.5
t-95 -154.5l-18 -27h212z" />
    <glyph glyph-name="Ccedilla" unicode="&#xc7;" horiz-adv-x="675" 
d="M256 -179q17 -7 32 -11t26 -4q24 0 46 11t22 37q0 12 -6.5 20t-16 13t-22 7.5t-24.5 2.5q-13 2 -25 0l48 94q-64 8 -117.5 37t-92.5 75t-61 106t-22 131q0 73 26.5 138.5t73.5 115t111 78t138 28.5q54 0 109 -19.5t96 -61.5q14 -13 28 -36.5t14 -43.5q0 -17 -12 -28
t-28 -11q-17 0 -29.5 12t-12.5 29q0 10 4.5 17t12.5 13q-11 22 -31.5 38.5t-46.5 27.5t-54 17t-54 6q-61 0 -111.5 -27.5t-86.5 -72.5t-56 -101.5t-20 -114.5q0 -69 21.5 -127.5t59.5 -101t89 -66.5t111 -24q67 0 121.5 16.5t102.5 50.5l12 -16q-51 -46 -118 -67t-129 -21
h-6l-31 -59q25 -1 42.5 -8.5t29 -18t17 -23.5t5.5 -26q0 -29 -26.5 -53t-74.5 -30q-16 -3 -29 -2q-20 1 -40 7t-34 13z" />
    <glyph glyph-name="Egrave" unicode="&#xc8;" horiz-adv-x="512" 
d="M470 -3q-105 3 -193 4t-169 1q-8 0 -17.5 -0.5t-17.5 -1.5q2 38 3 82t2 89t1 89.5v82.5v82.5t-1 90t-2 89t-3 81.5q8 -2 17.5 -2h17.5q81 0 162 1t167 4q-3 -12 -3 -22q0 -13 3 -23q-32 1 -70 2t-77 1.5t-77 0.5h-71q-2 -64 -2.5 -136t-0.5 -135q64 0 128.5 0.5
t127.5 2.5q-3 -12 -3 -23q0 -12 3 -24q-74 2 -134 3t-122 1v-70.5t0.5 -76.5t1 -77.5t1.5 -72.5h78t89.5 0.5t88 1t72.5 1.5q-3 -12 -3 -24t3 -22zM252 749l-139 118q-14 12 -24.5 23t-19.5 22q7 9 18.5 16.5t23.5 12.5q45 -38 85.5 -86.5t84.5 -105.5h-29z" />
    <glyph glyph-name="Eacute" unicode="&#xc9;" horiz-adv-x="512" 
d="M470 -3q-105 3 -193 4t-169 1q-8 0 -17.5 -0.5t-17.5 -1.5q2 38 3 82t2 89t1 89.5v82.5v82.5t-1 90t-2 89t-3 81.5q8 -2 17.5 -2h17.5q81 0 162 1t167 4q-3 -12 -3 -22q0 -13 3 -23q-32 1 -70 2t-77 1.5t-77 0.5h-71q-2 -64 -2.5 -136t-0.5 -135q64 0 128.5 0.5
t127.5 2.5q-3 -12 -3 -23q0 -12 3 -24q-74 2 -134 3t-122 1v-70.5t0.5 -76.5t1 -77.5t1.5 -72.5h78t89.5 0.5t88 1t72.5 1.5q-3 -12 -3 -24t3 -22zM274 749h-24l108 140q10 15 27.5 33.5t36.5 18.5q14 0 23.5 -8t9.5 -21q0 -2 -1 -5.5t-5.5 -8.5t-13.5 -13.5t-25 -21.5z" />
    <glyph glyph-name="Ecircumflex" unicode="&#xca;" horiz-adv-x="512" 
d="M470 -3q-105 3 -193 4t-169 1q-8 0 -17.5 -0.5t-17.5 -1.5q2 38 3 82t2 89t1 89.5v82.5v82.5t-1 90t-2 89t-3 81.5q8 -2 17.5 -2h17.5q81 0 162 1t167 4q-3 -12 -3 -22q0 -13 3 -23q-32 1 -70 2t-77 1.5t-77 0.5h-71q-2 -64 -2.5 -136t-0.5 -135q64 0 128.5 0.5
t127.5 2.5q-3 -12 -3 -23q0 -12 3 -24q-74 2 -134 3t-122 1v-70.5t0.5 -76.5t1 -77.5t1.5 -72.5h78t89.5 0.5t88 1t72.5 1.5q-3 -12 -3 -24t3 -22zM384 751l-122 111l-121 -111h-43l164 176l165 -176h-43z" />
    <glyph glyph-name="Edieresis" unicode="&#xcb;" horiz-adv-x="512" 
d="M470 -3q-105 3 -193 4t-169 1q-8 0 -17.5 -0.5t-17.5 -1.5q2 38 3 82t2 89t1 89.5v82.5v82.5t-1 90t-2 89t-3 81.5q8 -2 17.5 -2h17.5q81 0 162 1t167 4q-3 -12 -3 -22q0 -13 3 -23q-32 1 -70 2t-77 1.5t-77 0.5h-71q-2 -64 -2.5 -136t-0.5 -135q64 0 128.5 0.5
t127.5 2.5q-3 -12 -3 -23q0 -12 3 -24q-74 2 -134 3t-122 1v-70.5t0.5 -76.5t1 -77.5t1.5 -72.5h78t89.5 0.5t88 1t72.5 1.5q-3 -12 -3 -24t3 -22zM195 830q0 -14 -10.5 -24t-26.5 -10q-14 0 -24.5 10t-10.5 24q0 15 10.5 25.5t24.5 10.5q16 0 26.5 -10.5t10.5 -25.5z
M405 830q0 -14 -11.5 -24t-26.5 -10q-14 0 -24.5 10t-10.5 24q0 15 10.5 25.5t24.5 10.5q15 0 26.5 -10.5t11.5 -25.5z" />
    <glyph glyph-name="Igrave" unicode="&#xcc;" horiz-adv-x="225" 
d="M77 0q2 38 3.5 82t2 89t0.5 89.5v82.5v82t-0.5 89.5t-2 89.5t-3.5 82q18 -3 34 -3q19 0 37 3q-2 -38 -3 -82t-2 -89.5t-1 -89.5v-82v-82.5t1 -89.5t2 -89t3 -82q-18 3 -37 3q-16 0 -34 -3zM101 755l-139 118q-14 12 -24.5 23t-19.5 22q7 9 18.5 16.5t23.5 12.5
q45 -38 85.5 -86.5t84.5 -105.5h-29z" />
    <glyph glyph-name="Iacute" unicode="&#xcd;" horiz-adv-x="208" 
d="M76 0q2 38 3.5 82t2 89t0.5 89.5v82.5v82t-0.5 89.5t-2 89.5t-3.5 82q18 -3 34 -3q19 0 37 3q-2 -38 -3 -82t-2 -89.5t-1 -89.5v-82v-82.5t1 -89.5t2 -89t3 -82q-18 3 -37 3q-16 0 -34 -3zM114 755h-24l108 140q10 15 27.5 33.5t36.5 18.5q14 0 23.5 -8t9.5 -21
q0 -2 -1 -5.5t-5.5 -8.5t-13.5 -13.5t-25 -21.5z" />
    <glyph glyph-name="Icircumflex" unicode="&#xce;" horiz-adv-x="232" 
d="M78 0q2 38 3.5 82t2 89t0.5 89.5v82.5v82t-0.5 89.5t-2 89.5t-3.5 82q18 -3 34 -3q19 0 37 3q-2 -38 -3 -82t-2 -89.5t-1 -89.5v-82v-82.5t1 -89.5t2 -89t3 -82q-18 3 -37 3q-16 0 -34 -3zM238 757l-122 111l-121 -111h-43l164 176l165 -176h-43z" />
    <glyph glyph-name="Idieresis" unicode="&#xcf;" horiz-adv-x="230" 
d="M79 0q2 38 3.5 82t2 89t0.5 89.5v82.5v82t-0.5 89.5t-2 89.5t-3.5 82q18 -3 34 -3q19 0 37 3q-2 -38 -3 -82t-2 -89.5t-1 -89.5v-82v-82.5t1 -89.5t2 -89t3 -82q-18 3 -37 3q-16 0 -34 -3zM54 841q0 -14 -10.5 -24t-26.5 -10q-14 0 -24.5 10t-10.5 24q0 15 10.5 25.5
t24.5 10.5q16 0 26.5 -10.5t10.5 -25.5zM264 841q0 -14 -11.5 -24t-26.5 -10q-14 0 -24.5 10t-10.5 24q0 15 10.5 25.5t24.5 10.5q15 0 26.5 -10.5t11.5 -25.5z" />
    <glyph glyph-name="Eth" unicode="&#xd0;" horiz-adv-x="680" 
d="M2 361q26 -1 57 -1.5t60 -0.5v80t-1 86t-2 84.5t-2 76.5q8 -2 17 -2h17q5 0 11.5 0.5t18 0.5t29.5 0.5t46 0.5q88 0 159 -21.5t121 -64t77 -106t27 -146.5q0 -74 -25 -137.5t-74.5 -110t-124 -73.5t-172.5 -27q-26 0 -42.5 0.5t-26 1t-15 1t-9.5 0.5q-18 0 -34 -3
q1 36 2 77t2 83.5t1 84v79.5q-29 0 -60 -0.5t-57 -1.5v39zM261 38q72 0 128.5 23.5t95.5 65.5t59.5 98.5t20.5 122.5q0 77 -24.5 133.5t-66.5 94t-98 55.5t-120 18h-73q-2 -34 -2.5 -71.5l-1 -75t-0.5 -74.5v-70l123 3v-38q-29 0 -61 0.5t-62 1.5q0 -67 0.5 -144t3.5 -143
h78z" />
    <glyph glyph-name="Ntilde" unicode="&#xd1;" 
d="M663 0q-8 1 -14.5 1h-12.5h-11.5t-13.5 -1q-116 152 -236.5 302t-251.5 304q-1 -75 -1 -141v-122v-82.5t0.5 -89.5t1.5 -89t2 -82q-8 1 -14.5 1h-12.5h-12t-14 -1q2 38 3 82t2 89t1 89.5v82.5v82.5t-1 90t-2 89t-3 81.5q10 -2 16.5 -2h12.5h12.5t17.5 2
q69 -85 131.5 -162t121 -149.5t115 -142.5t113.5 -142q2 61 2 129v124v82.5t-0.5 90t-1.5 89t-2 81.5q9 -2 15 -2h11h11t17 2q-5 -108 -5.5 -192.5t-0.5 -150.5v-82.5t0.5 -89.5t1.5 -89t2 -82zM530 842q-8 -35 -32 -60.5t-66 -25.5q-17 0 -36 7t-38.5 15t-38.5 15t-36 7
q-18 0 -36.5 -10t-24.5 -39l-29 9q7 31 32.5 57t68.5 26q17 0 35 -7t36 -16t36 -16t35 -7q18 0 37 11t29 41z" />
    <glyph glyph-name="Ograve" unicode="&#xd2;" 
d="M368 -11q-60 0 -118.5 21.5t-104.5 65.5t-74 110.5t-28 157.5q0 89 28 156t74 111.5t104.5 66.5t118.5 22q59 0 117.5 -22.5t105 -67t75.5 -111t29 -155.5q0 -90 -29 -157t-75.5 -111t-105 -65.5t-117.5 -21.5zM368 27q47 0 93 19t82.5 58t59 99t22.5 141q0 79 -22.5 139
t-59 99.5t-82.5 59.5t-93 20q-48 0 -93.5 -19.5t-81 -59.5t-57.5 -99.5t-22 -139.5q0 -82 22 -141.5t57.5 -98.5t81 -58t93.5 -19zM358 749l-139 118q-14 12 -24.5 23t-19.5 22q7 9 18.5 16.5t23.5 12.5q45 -38 85.5 -86.5t84.5 -105.5h-29z" />
    <glyph glyph-name="Oacute" unicode="&#xd3;" 
d="M368 -11q-60 0 -118.5 21.5t-104.5 65.5t-74 110.5t-28 157.5q0 89 28 156t74 111.5t104.5 66.5t118.5 22q59 0 117.5 -22.5t105 -67t75.5 -111t29 -155.5q0 -90 -29 -157t-75.5 -111t-105 -65.5t-117.5 -21.5zM368 27q47 0 93 19t82.5 58t59 99t22.5 141q0 79 -22.5 139
t-59 99.5t-82.5 59.5t-93 20q-48 0 -93.5 -19.5t-81 -59.5t-57.5 -99.5t-22 -139.5q0 -82 22 -141.5t57.5 -98.5t81 -58t93.5 -19zM381 749h-24l108 140q10 15 27.5 33.5t36.5 18.5q14 0 23.5 -8t9.5 -21q0 -2 -1 -5.5t-5.5 -8.5t-13.5 -13.5t-25 -21.5z" />
    <glyph glyph-name="Ocircumflex" unicode="&#xd4;" 
d="M368 -11q-60 0 -118.5 21.5t-104.5 65.5t-74 110.5t-28 157.5q0 89 28 156t74 111.5t104.5 66.5t118.5 22q59 0 117.5 -22.5t105 -67t75.5 -111t29 -155.5q0 -90 -29 -157t-75.5 -111t-105 -65.5t-117.5 -21.5zM368 27q47 0 93 19t82.5 58t59 99t22.5 141q0 79 -22.5 139
t-59 99.5t-82.5 59.5t-93 20q-48 0 -93.5 -19.5t-81 -59.5t-57.5 -99.5t-22 -139.5q0 -82 22 -141.5t57.5 -98.5t81 -58t93.5 -19zM490 751l-122 111l-121 -111h-43l164 176l165 -176h-43z" />
    <glyph glyph-name="Otilde" unicode="&#xd5;" 
d="M368 -11q-60 0 -118.5 21.5t-104.5 65.5t-74 110.5t-28 157.5q0 89 28 156t74 111.5t104.5 66.5t118.5 22q59 0 117.5 -22.5t105 -67t75.5 -111t29 -155.5q0 -90 -29 -157t-75.5 -111t-105 -65.5t-117.5 -21.5zM368 27q47 0 93 19t82.5 58t59 99t22.5 141q0 79 -22.5 139
t-59 99.5t-82.5 59.5t-93 20q-48 0 -93.5 -19.5t-81 -59.5t-57.5 -99.5t-22 -139.5q0 -82 22 -141.5t57.5 -98.5t81 -58t93.5 -19zM532 836q-8 -35 -32 -60.5t-66 -25.5q-17 0 -36 7t-38.5 15t-38.5 15t-36 7q-18 0 -36.5 -10t-24.5 -39l-29 9q7 31 32.5 57t68.5 26
q17 0 35 -7t36 -16t36 -16t35 -7q18 0 37 11t29 41z" />
    <glyph glyph-name="Odieresis" unicode="&#xd6;" 
d="M368 -11q-60 0 -118.5 21.5t-104.5 65.5t-74 110.5t-28 157.5q0 89 28 156t74 111.5t104.5 66.5t118.5 22q59 0 117.5 -22.5t105 -67t75.5 -111t29 -155.5q0 -90 -29 -157t-75.5 -111t-105 -65.5t-117.5 -21.5zM368 27q47 0 93 19t82.5 58t59 99t22.5 141q0 79 -22.5 139
t-59 99.5t-82.5 59.5t-93 20q-48 0 -93.5 -19.5t-81 -59.5t-57.5 -99.5t-22 -139.5q0 -82 22 -141.5t57.5 -98.5t81 -58t93.5 -19zM308 830q0 -14 -10.5 -24t-26.5 -10q-14 0 -24.5 10t-10.5 24q0 15 10.5 25.5t24.5 10.5q16 0 26.5 -10.5t10.5 -25.5zM518 830
q0 -14 -11.5 -24t-26.5 -10q-14 0 -24.5 10t-10.5 24q0 15 10.5 25.5t24.5 10.5q15 0 26.5 -10.5t11.5 -25.5z" />
    <glyph glyph-name="multiply" unicode="&#xd7;" horiz-adv-x="635" 
d="M538 80q-4 -4 -8 -7t-10 -5l-5 6q-5 5 -12 11.5t-14 13.5l-59 57q-7 7 -13 14t-13 13l-13 14l-24 23l-31 32l-15 14l-22 -21l-14 -16q-6 -7 -14 -14t-14 -14l-21 -21q-8 -8 -15.5 -14t-12.5 -13l-10 -10l-29 -30l-32 -31q-5 -5 -8.5 -9t-9.5 -6l-32 32q-3 2 -6.5 4.5
t-10.5 0.5l15 15q5 5 10.5 11.5t13.5 14.5l11 10l38 39l41 39l14 16l38 37l24 25l-25 27l-18 17l-26 26q-29 31 -59.5 60t-59.5 60l-14 10l15 14l20 20q3 3 6.5 5.5t10.5 0.5l5 -5q7 -5 12 -11.5t12 -11.5l11 -12l40 -40l77 -76l6 -8q13 -12 25 -25l8 -8l37 38
q7 6 13.5 13.5t14.5 14.5l53 53l83 84l35 -35l8 -12l-65 -65l-43 -45l-14 -12l-30 -32l-22 -20l-25 -26l13 -11l36 -37l133 -133l14 -22l-6 -11z" />
    <glyph glyph-name="Oslash" unicode="&#xd8;" 
d="M258 -90q-7 2 -15 2h-17h-15.5t-15.5 -2l37 105q-40 18 -74.5 47.5t-60 71t-40 94t-14.5 117.5q0 89 28 155.5t74 111t104.5 66.5t118.5 22q47 0 95 -17l17 46q13 -3 32 -3q8 0 15.5 0.5t15.5 2.5l-24 -66q37 -20 69 -49.5t56 -69t37.5 -89.5t13.5 -110q0 -90 -29 -157.5
t-75.5 -112.5t-105 -67t-117.5 -22q-39 0 -80 11zM345 328q26 78 52 157.5t53 160.5q-11 4 -21 7t-21 5q-24 5 -48 3q-47 -2 -91 -22t-78.5 -59.5t-55.5 -98t-21 -136.5q0 -110 39 -180.5t96 -103.5zM368 24q47 0 93 20t82.5 59.5t59 100t22.5 141.5q0 49 -9.5 91t-26 75.5
t-39 59.5t-48.5 44q-54 -152 -104.5 -298.5t-96.5 -282.5q17 -5 33.5 -7.5t33.5 -2.5z" />
    <glyph glyph-name="Ugrave" unicode="&#xd9;" horiz-adv-x="646" 
d="M532 687q9 -3 21 -3q11 0 22 3v-436q0 -57 -13 -98.5t-34 -70.5t-47 -47.5t-53 -28.5t-51.5 -13.5t-42.5 -3.5q-50 0 -97.5 12t-84 42t-59 82t-22.5 132v430q10 -2 20 -2.5t18 -0.5t16 0.5t19 2.5v-431q0 -48 10.5 -90t33 -73t58.5 -48.5t88 -17.5q91 0 144.5 55
t53.5 165v440zM325 749l-139 118q-14 12 -24.5 23t-19.5 22q7 9 18.5 16.5t23.5 12.5q45 -38 85.5 -86.5t84.5 -105.5h-29z" />
    <glyph glyph-name="Uacute" unicode="&#xda;" horiz-adv-x="646" 
d="M532 687q9 -3 21 -3q11 0 22 3v-436q0 -57 -13 -98.5t-34 -70.5t-47 -47.5t-53 -28.5t-51.5 -13.5t-42.5 -3.5q-50 0 -97.5 12t-84 42t-59 82t-22.5 132v430q10 -2 20 -2.5t18 -0.5t16 0.5t19 2.5v-431q0 -48 10.5 -90t33 -73t58.5 -48.5t88 -17.5q91 0 144.5 55
t53.5 165v440zM347 749h-24l108 140q10 15 27.5 33.5t36.5 18.5q14 0 23.5 -8t9.5 -21q0 -2 -1 -5.5t-5.5 -8.5t-13.5 -13.5t-25 -21.5z" />
    <glyph glyph-name="Ucircumflex" unicode="&#xdb;" horiz-adv-x="646" 
d="M532 687q9 -3 21 -3q11 0 22 3v-436q0 -57 -13 -98.5t-34 -70.5t-47 -47.5t-53 -28.5t-51.5 -13.5t-42.5 -3.5q-50 0 -97.5 12t-84 42t-59 82t-22.5 132v430q10 -2 20 -2.5t18 -0.5t16 0.5t19 2.5v-431q0 -48 10.5 -90t33 -73t58.5 -48.5t88 -17.5q91 0 144.5 55
t53.5 165v440zM457 751l-122 111l-121 -111h-43l164 176l165 -176h-43z" />
    <glyph glyph-name="Udieresis" unicode="&#xdc;" horiz-adv-x="646" 
d="M532 687q9 -3 21 -3q11 0 22 3v-436q0 -57 -13 -98.5t-34 -70.5t-47 -47.5t-53 -28.5t-51.5 -13.5t-42.5 -3.5q-50 0 -97.5 12t-84 42t-59 82t-22.5 132v430q10 -2 20 -2.5t18 -0.5t16 0.5t19 2.5v-431q0 -48 10.5 -90t33 -73t58.5 -48.5t88 -17.5q91 0 144.5 55
t53.5 165v440zM267 830q0 -14 -10.5 -24t-26.5 -10q-14 0 -24.5 10t-10.5 24q0 15 10.5 25.5t24.5 10.5q16 0 26.5 -10.5t10.5 -25.5zM477 830q0 -14 -11.5 -24t-26.5 -10q-14 0 -24.5 10t-10.5 24q0 15 10.5 25.5t24.5 10.5q15 0 26.5 -10.5t11.5 -25.5z" />
    <glyph glyph-name="Yacute" unicode="&#xdd;" horiz-adv-x="580" 
d="M252 0q1 31 2 67.5t2 74t1 75.5v73q-31 45 -66 101t-69 111.5t-64.5 104t-51.5 79.5q21 -3 42 -3q19 0 42 3q19 -33 46 -81t56.5 -98.5t57.5 -97.5t50 -77q24 31 55 78.5t62.5 98t59 98t44.5 79.5q12 -3 26 -3q13 0 27 3q-20 -28 -50 -74t-65.5 -99.5t-72 -109
t-69.5 -103.5q0 -75 1.5 -154t3.5 -146q-18 3 -36 3q-16 0 -34 -3zM307 749h-24l108 140q10 15 27.5 33.5t36.5 18.5q14 0 23.5 -8t9.5 -21q0 -2 -1 -5.5t-5.5 -8.5t-13.5 -13.5t-25 -21.5z" />
    <glyph glyph-name="Thorn" unicode="&#xde;" horiz-adv-x="483" 
d="M141 161q0 -35 0.5 -52.5t1 -31.5t1.5 -30t3 -47q-18 3 -36 3q-17 0 -35 -3q4 72 5 163t1 185v50q0 70 -1 144.5t-5 143.5q18 -3 35 -3q18 0 36 3q-2 -33 -2.5 -67.5t-1.5 -77.5h70q57 0 100.5 -16t73.5 -42.5t45.5 -60.5t15.5 -71q0 -34 -14 -68t-43 -61t-73.5 -44
t-104.5 -17h-72zM204 199q48 0 81 12.5t54 33.5t30 48.5t9 57.5t-9 58t-29.5 49.5t-54 34t-82.5 12.5h-59q-2 -49 -2.5 -101t-0.5 -103v-102h63z" />
    <glyph glyph-name="germandbls" unicode="&#xdf;" horiz-adv-x="562" 
d="M78 1q1 63 1 125v125t-0.5 125t-0.5 125q0 33 11 66.5t33.5 60.5t57 44t80.5 17q51 0 87.5 -13t60.5 -35t35.5 -49.5t11.5 -57.5q0 -49 -33.5 -98t-98.5 -84q31 -13 65 -29t62.5 -39t47 -55t18.5 -77q0 -32 -14 -60.5t-39 -49.5t-60 -33.5t-78 -12.5q-20 0 -37 9.5
t-17 29.5q0 16 11 26.5t27 10.5q8 0 12.5 -5t4.5 -12q19 -4 21 -23q30 0 49 13.5t30.5 32t16 38.5t4.5 34q0 36 -11 62t-34 47t-58.5 40t-85.5 42v19q34 20 58.5 42.5t39.5 45t22 44t7 39.5q0 36 -11.5 59t-29 37t-39.5 19.5t-43 5.5q-20 0 -41 -7t-38 -24t-28 -45t-11 -70
q0 -63 -0.5 -126t-0.5 -127v-126t1 -126q-9 1 -17 1.5t-16 0.5t-16.5 -0.5t-16.5 -1.5z" />
    <glyph glyph-name="agrave" unicode="&#xe0;" horiz-adv-x="486" 
d="M355 -3q0 12 0.5 28.5t1.5 33.5q-15 -21 -36 -34.5t-43.5 -21.5t-45 -11t-40.5 -3q-30 0 -58.5 6t-51 20t-36 37t-13.5 58q0 32 17 57.5t44.5 44t62.5 32t71 22.5t70.5 14.5t60.5 8.5q-4 75 -33 110.5t-94 35.5q-26 0 -55.5 -9.5t-48.5 -29.5q2 -5 4.5 -10.5t2.5 -12.5
q0 -14 -10.5 -24.5t-26.5 -10.5q-15 0 -25.5 10t-10.5 24q0 17 13 30q30 37 74.5 53.5t85.5 16.5q39 0 72 -11t57.5 -34t38.5 -58.5t14 -83.5q0 -23 -0.5 -47t-1.5 -48q-2 -46 1 -93.5t12 -91.5q-17 1 -33 0q-11 -1 -20.5 -3t-19.5 -5zM358 251q-17 -1 -43 -3.5t-55 -9
t-58 -17t-52.5 -25.5t-38.5 -35.5t-15 -46.5q0 -32 10.5 -49.5t27.5 -26t38.5 -10.5t43.5 -2q19 0 43 6t46 19t37 33.5t15 49.5q0 24 0.5 51.5t0.5 65.5zM226 549l-139 118q-14 12 -24.5 23t-19.5 22q7 9 18.5 16.5t23.5 12.5q45 -38 85.5 -86.5t84.5 -105.5h-29z" />
    <glyph glyph-name="aacute" unicode="&#xe1;" horiz-adv-x="486" 
d="M355 -3q0 12 0.5 28.5t1.5 33.5q-15 -21 -36 -34.5t-43.5 -21.5t-45 -11t-40.5 -3q-30 0 -58.5 6t-51 20t-36 37t-13.5 58q0 32 17 57.5t44.5 44t62.5 32t71 22.5t70.5 14.5t60.5 8.5q-4 75 -33 110.5t-94 35.5q-26 0 -55.5 -9.5t-48.5 -29.5q2 -5 4.5 -10.5t2.5 -12.5
q0 -14 -10.5 -24.5t-26.5 -10.5q-15 0 -25.5 10t-10.5 24q0 17 13 30q30 37 74.5 53.5t85.5 16.5q39 0 72 -11t57.5 -34t38.5 -58.5t14 -83.5q0 -23 -0.5 -47t-1.5 -48q-2 -46 1 -93.5t12 -91.5q-17 1 -33 0q-11 -1 -20.5 -3t-19.5 -5zM358 251q-17 -1 -43 -3.5t-55 -9
t-58 -17t-52.5 -25.5t-38.5 -35.5t-15 -46.5q0 -32 10.5 -49.5t27.5 -26t38.5 -10.5t43.5 -2q19 0 43 6t46 19t37 33.5t15 49.5q0 24 0.5 51.5t0.5 65.5zM248 549h-24l108 140q10 15 27.5 33.5t36.5 18.5q14 0 23.5 -8t9.5 -21q0 -2 -1 -5.5t-5.5 -8.5t-13.5 -13.5
t-25 -21.5z" />
    <glyph glyph-name="acircumflex" unicode="&#xe2;" horiz-adv-x="486" 
d="M355 -3q0 12 0.5 28.5t1.5 33.5q-15 -21 -36 -34.5t-43.5 -21.5t-45 -11t-40.5 -3q-30 0 -58.5 6t-51 20t-36 37t-13.5 58q0 32 17 57.5t44.5 44t62.5 32t71 22.5t70.5 14.5t60.5 8.5q-4 75 -33 110.5t-94 35.5q-26 0 -55.5 -9.5t-48.5 -29.5q2 -5 4.5 -10.5t2.5 -12.5
q0 -14 -10.5 -24.5t-26.5 -10.5q-15 0 -25.5 10t-10.5 24q0 17 13 30q30 37 74.5 53.5t85.5 16.5q39 0 72 -11t57.5 -34t38.5 -58.5t14 -83.5q0 -23 -0.5 -47t-1.5 -48q-2 -46 1 -93.5t12 -91.5q-17 1 -33 0q-11 -1 -20.5 -3t-19.5 -5zM358 251q-17 -1 -43 -3.5t-55 -9
t-58 -17t-52.5 -25.5t-38.5 -35.5t-15 -46.5q0 -32 10.5 -49.5t27.5 -26t38.5 -10.5t43.5 -2q19 0 43 6t46 19t37 33.5t15 49.5q0 24 0.5 51.5t0.5 65.5zM358 551l-122 111l-121 -111h-43l164 176l165 -176h-43z" />
    <glyph glyph-name="atilde" unicode="&#xe3;" horiz-adv-x="486" 
d="M355 -3q0 12 0.5 28.5t1.5 33.5q-15 -21 -36 -34.5t-43.5 -21.5t-45 -11t-40.5 -3q-30 0 -58.5 6t-51 20t-36 37t-13.5 58q0 32 17 57.5t44.5 44t62.5 32t71 22.5t70.5 14.5t60.5 8.5q-4 75 -33 110.5t-94 35.5q-26 0 -55.5 -9.5t-48.5 -29.5q2 -5 4.5 -10.5t2.5 -12.5
q0 -14 -10.5 -24.5t-26.5 -10.5q-15 0 -25.5 10t-10.5 24q0 17 13 30q30 37 74.5 53.5t85.5 16.5q39 0 72 -11t57.5 -34t38.5 -58.5t14 -83.5q0 -23 -0.5 -47t-1.5 -48q-2 -46 1 -93.5t12 -91.5q-17 1 -33 0q-11 -1 -20.5 -3t-19.5 -5zM358 251q-17 -1 -43 -3.5t-55 -9
t-58 -17t-52.5 -25.5t-38.5 -35.5t-15 -46.5q0 -32 10.5 -49.5t27.5 -26t38.5 -10.5t43.5 -2q19 0 43 6t46 19t37 33.5t15 49.5q0 24 0.5 51.5t0.5 65.5zM400 636q-8 -35 -32 -60.5t-66 -25.5q-17 0 -36 7t-38.5 15t-38.5 15t-36 7q-18 0 -36.5 -10t-24.5 -39l-29 9
q7 31 32.5 57t68.5 26q17 0 35 -7t36 -16t36 -16t35 -7q18 0 37 11t29 41z" />
    <glyph glyph-name="adieresis" unicode="&#xe4;" horiz-adv-x="486" 
d="M355 -3q0 12 0.5 28.5t1.5 33.5q-15 -21 -36 -34.5t-43.5 -21.5t-45 -11t-40.5 -3q-30 0 -58.5 6t-51 20t-36 37t-13.5 58q0 32 17 57.5t44.5 44t62.5 32t71 22.5t70.5 14.5t60.5 8.5q-4 75 -33 110.5t-94 35.5q-26 0 -55.5 -9.5t-48.5 -29.5q2 -5 4.5 -10.5t2.5 -12.5
q0 -14 -10.5 -24.5t-26.5 -10.5q-15 0 -25.5 10t-10.5 24q0 17 13 30q30 37 74.5 53.5t85.5 16.5q39 0 72 -11t57.5 -34t38.5 -58.5t14 -83.5q0 -23 -0.5 -47t-1.5 -48q-2 -46 1 -93.5t12 -91.5q-17 1 -33 0q-11 -1 -20.5 -3t-19.5 -5zM358 251q-17 -1 -43 -3.5t-55 -9
t-58 -17t-52.5 -25.5t-38.5 -35.5t-15 -46.5q0 -32 10.5 -49.5t27.5 -26t38.5 -10.5t43.5 -2q19 0 43 6t46 19t37 33.5t15 49.5q0 24 0.5 51.5t0.5 65.5zM180 610q0 -14 -10.5 -24t-26.5 -10q-14 0 -24.5 10t-10.5 24q0 15 10.5 25.5t24.5 10.5q16 0 26.5 -10.5t10.5 -25.5z
M390 610q0 -14 -11.5 -24t-26.5 -10q-14 0 -24.5 10t-10.5 24q0 15 10.5 25.5t24.5 10.5q15 0 26.5 -10.5t11.5 -25.5z" />
    <glyph glyph-name="aring" unicode="&#xe5;" horiz-adv-x="486" 
d="M355 -3q0 12 0.5 28.5t1.5 33.5q-15 -21 -36 -34.5t-43.5 -21.5t-45 -11t-40.5 -3q-30 0 -58.5 6t-51 20t-36 37t-13.5 58q0 32 17 57.5t44.5 44t62.5 32t71 22.5t70.5 14.5t60.5 8.5q-4 75 -33 110.5t-94 35.5q-26 0 -55.5 -9.5t-48.5 -29.5q2 -5 4.5 -10.5t2.5 -12.5
q0 -14 -10.5 -24.5t-26.5 -10.5q-15 0 -25.5 10t-10.5 24q0 17 13 30q30 37 74.5 53.5t85.5 16.5q39 0 72 -11t57.5 -34t38.5 -58.5t14 -83.5q0 -23 -0.5 -47t-1.5 -48q-2 -46 1 -93.5t12 -91.5q-17 1 -33 0q-11 -1 -20.5 -3t-19.5 -5zM358 251q-17 -1 -43 -3.5t-55 -9
t-58 -17t-52.5 -25.5t-38.5 -35.5t-15 -46.5q0 -32 10.5 -49.5t27.5 -26t38.5 -10.5t43.5 -2q19 0 43 6t46 19t37 33.5t15 49.5q0 24 0.5 51.5t0.5 65.5zM352 651q0 -23 -8.5 -43t-23.5 -34.5t-35 -23t-42 -8.5q-23 0 -43 8.5t-35 23t-23.5 34t-8.5 42.5q0 22 8.5 42
t23.5 35t35 23.5t43 8.5q22 0 42 -8.5t35 -23.5t23.5 -34.5t8.5 -41.5zM242 579q28 0 50 19.5t22 52.5t-22 52t-50 19t-49.5 -18.5t-21.5 -52.5q0 -33 22 -52.5t49 -19.5z" />
    <glyph glyph-name="ae" unicode="&#xe6;" horiz-adv-x="833" 
d="M800 99q-38 -55 -90 -80t-114 -25q-60 0 -104 26t-70 69q0 -42 9 -84q-15 2 -32 0q-20 -1 -41 -8q0 12 0.5 26t1.5 31q-13 -18 -34.5 -30.5t-45 -21t-46.5 -12t-39 -3.5q-30 0 -58.5 6.5t-51 20.5t-36 37.5t-13.5 58.5q0 32 17 57.5t44.5 44t62.5 32t71 22.5t70.5 14.5
t60.5 8.5q-3 75 -32.5 110.5t-94.5 35.5q-26 0 -55.5 -9.5t-48.5 -29.5q2 -5 4.5 -10.5t2.5 -12.5q0 -14 -10.5 -24.5t-26.5 -10.5q-15 0 -25.5 10t-10.5 24q0 8 4 16t10 14q30 37 74 53.5t85 16.5q59 0 103.5 -27.5t61.5 -86.5q30 51 81.5 82.5t113.5 31.5q33 0 65.5 -9
t58 -26.5t41.5 -43t16 -58.5q0 -44 -18.5 -74t-49 -48t-70 -25.5t-80.5 -7.5q-32 0 -67.5 8t-63.5 20q3 -38 16.5 -70.5t36 -56.5t53.5 -37.5t68 -13.5q54 0 98 19.5t85 62.5zM428 249q25 -14 63 -23t72 -9q30 0 58 5t50 18t35.5 36t13.5 58q0 23 -10 41.5t-27 32
t-39.5 20.5t-47.5 7q-36 0 -65.5 -15.5t-51.5 -41t-35 -59.5t-16 -70zM361 249q-17 -1 -42.5 -4t-54.5 -9.5t-58.5 -17t-53 -25.5t-38 -34.5t-14.5 -44.5q0 -32 10.5 -50t27.5 -27t38.5 -11t43.5 -2q18 0 42.5 6.5t46 20t36.5 34t15 49.5q0 24 0.5 50.5t0.5 64.5z" />
    <glyph glyph-name="ccedilla" unicode="&#xe7;" horiz-adv-x="505" 
d="M170 -171q17 -7 32 -11t26 -4q24 0 46 11t22 37q0 12 -6.5 20t-16 13t-22 7.5t-24.5 2.5q-13 2 -25 0l44 86q-44 6 -81 26.5t-64 52t-42.5 73t-15.5 88.5q0 50 19 94t51 76.5t74 51.5t89 19q42 0 84 -17.5t75 -61.5q12 -14 12 -29t-11.5 -26t-26.5 -11q-16 0 -26.5 11
t-10.5 26q0 6 1.5 12.5t5.5 11.5q-2 4 -4.5 6t-5.5 4q-37 36 -93 36q-35 0 -66 -15.5t-54 -43t-36 -64.5t-13 -80t13 -80.5t36.5 -65t56 -43.5t71.5 -16q54 0 98.5 19t83.5 61l13 -13q-36 -52 -85 -77t-106 -27l-27 -52q25 -1 42.5 -8.5t29 -18t17 -23.5t5.5 -26
q0 -29 -26.5 -53t-74.5 -30q-16 -3 -29 -2q-20 1 -40 7t-34 13z" />
    <glyph glyph-name="egrave" unicode="&#xe8;" horiz-adv-x="522" 
d="M479 99q-37 -55 -89 -82.5t-114 -27.5q-55 0 -98 19.5t-73 53t-46 77.5t-16 94q0 51 18.5 94.5t50.5 75.5t75 50.5t91 18.5q33 0 65.5 -9t58 -26.5t41 -43t15.5 -58.5q0 -44 -18.5 -74t-49 -48t-70 -25.5t-80.5 -7.5q-31 0 -67 8t-64 20q3 -38 17 -71.5t36.5 -58.5
t53.5 -39t68 -14q54 0 98.5 22t83.5 65zM108 249q25 -14 63 -23t71 -9q30 0 58.5 5t50.5 18t35.5 36t13.5 58q0 23 -10 41.5t-27 32t-39.5 20.5t-47.5 7q-36 0 -65.5 -15.5t-51.5 -41t-35 -59.5t-16 -70zM265 549l-139 118q-14 12 -24.5 23t-19.5 22q7 9 18.5 16.5
t23.5 12.5q45 -38 85.5 -86.5t84.5 -105.5h-29z" />
    <glyph glyph-name="eacute" unicode="&#xe9;" horiz-adv-x="522" 
d="M479 99q-37 -55 -89 -82.5t-114 -27.5q-55 0 -98 19.5t-73 53t-46 77.5t-16 94q0 51 18.5 94.5t50.5 75.5t75 50.5t91 18.5q33 0 65.5 -9t58 -26.5t41 -43t15.5 -58.5q0 -44 -18.5 -74t-49 -48t-70 -25.5t-80.5 -7.5q-31 0 -67 8t-64 20q3 -38 17 -71.5t36.5 -58.5
t53.5 -39t68 -14q54 0 98.5 22t83.5 65zM108 249q25 -14 63 -23t71 -9q30 0 58.5 5t50.5 18t35.5 36t13.5 58q0 23 -10 41.5t-27 32t-39.5 20.5t-47.5 7q-36 0 -65.5 -15.5t-51.5 -41t-35 -59.5t-16 -70zM287 549h-24l108 140q10 15 27.5 33.5t36.5 18.5q14 0 23.5 -8
t9.5 -21q0 -2 -1 -5.5t-5.5 -8.5t-13.5 -13.5t-25 -21.5z" />
    <glyph glyph-name="ecircumflex" unicode="&#xea;" horiz-adv-x="522" 
d="M479 99q-37 -55 -89 -82.5t-114 -27.5q-55 0 -98 19.5t-73 53t-46 77.5t-16 94q0 51 18.5 94.5t50.5 75.5t75 50.5t91 18.5q33 0 65.5 -9t58 -26.5t41 -43t15.5 -58.5q0 -44 -18.5 -74t-49 -48t-70 -25.5t-80.5 -7.5q-31 0 -67 8t-64 20q3 -38 17 -71.5t36.5 -58.5
t53.5 -39t68 -14q54 0 98.5 22t83.5 65zM108 249q25 -14 63 -23t71 -9q30 0 58.5 5t50.5 18t35.5 36t13.5 58q0 23 -10 41.5t-27 32t-39.5 20.5t-47.5 7q-36 0 -65.5 -15.5t-51.5 -41t-35 -59.5t-16 -70zM397 551l-122 111l-121 -111h-43l164 176l165 -176h-43z" />
    <glyph glyph-name="edieresis" unicode="&#xeb;" horiz-adv-x="522" 
d="M479 99q-37 -55 -89 -82.5t-114 -27.5q-55 0 -98 19.5t-73 53t-46 77.5t-16 94q0 51 18.5 94.5t50.5 75.5t75 50.5t91 18.5q33 0 65.5 -9t58 -26.5t41 -43t15.5 -58.5q0 -44 -18.5 -74t-49 -48t-70 -25.5t-80.5 -7.5q-31 0 -67 8t-64 20q3 -38 17 -71.5t36.5 -58.5
t53.5 -39t68 -14q54 0 98.5 22t83.5 65zM108 249q25 -14 63 -23t71 -9q30 0 58.5 5t50.5 18t35.5 36t13.5 58q0 23 -10 41.5t-27 32t-39.5 20.5t-47.5 7q-36 0 -65.5 -15.5t-51.5 -41t-35 -59.5t-16 -70zM215 610q0 -14 -10.5 -24t-26.5 -10q-14 0 -24.5 10t-10.5 24
q0 15 10.5 25.5t24.5 10.5q16 0 26.5 -10.5t10.5 -25.5zM425 610q0 -14 -11.5 -24t-26.5 -10q-14 0 -24.5 10t-10.5 24q0 15 10.5 25.5t24.5 10.5q15 0 26.5 -10.5t11.5 -25.5z" />
    <glyph glyph-name="igrave" unicode="&#xec;" horiz-adv-x="224" 
d="M106 549l-139 118q-14 12 -24.5 23t-19.5 22q7 9 18.5 16.5t23.5 12.5q45 -38 85.5 -86.5t84.5 -105.5h-29zM78 0q5 51 5.5 111t0.5 113q0 35 -0.5 69.5t-1 65.5t-2.5 56t-5 41q18 -1 37 0t37 7q-3 -51 -4.5 -111.5t-1.5 -120.5q0 -54 1 -116.5t5 -114.5q-10 1 -18 2
t-17 1t-18 -1z" />
    <glyph glyph-name="iacute" unicode="&#xed;" horiz-adv-x="224" 
d="M128 549h-24l108 140q10 15 27.5 33.5t36.5 18.5q14 0 23.5 -8t9.5 -21q0 -2 -1 -5.5t-5.5 -8.5t-13.5 -13.5t-25 -21.5zM78 0q5 51 5.5 111t0.5 113q0 35 -0.5 69.5t-1 65.5t-2.5 56t-5 41q18 -1 37 0t37 7q-3 -51 -4.5 -111.5t-1.5 -120.5q0 -54 1 -116.5t5 -114.5
q-10 1 -18 2t-17 1t-18 -1z" />
    <glyph glyph-name="icircumflex" unicode="&#xee;" horiz-adv-x="224" 
d="M78 0q5 51 5.5 111t0.5 113q0 35 -0.5 69.5t-1 65.5t-2.5 56t-5 41q18 -1 37 0t37 7q-3 -51 -4.5 -111.5t-1.5 -120.5q0 -54 1 -116.5t5 -114.5q-10 1 -18 2t-17 1t-18 -1zM238 551l-122 111l-121 -111h-43l164 176l165 -176h-43z" />
    <glyph glyph-name="idieresis" unicode="&#xef;" horiz-adv-x="224" 
d="M56 610q0 -14 -10.5 -24t-26.5 -10q-14 0 -24.5 10t-10.5 24q0 15 10.5 25.5t24.5 10.5q16 0 26.5 -10.5t10.5 -25.5zM266 610q0 -14 -11.5 -24t-26.5 -10q-14 0 -24.5 10t-10.5 24q0 15 10.5 25.5t24.5 10.5q15 0 26.5 -10.5t11.5 -25.5zM78 0q5 51 5.5 111t0.5 113
q0 35 -0.5 69.5t-1 65.5t-2.5 56t-5 41q18 -1 37 0t37 7q-3 -51 -4.5 -111.5t-1.5 -120.5q0 -54 1 -116.5t5 -114.5q-10 1 -18 2t-17 1t-18 -1z" />
    <glyph glyph-name="eth" unicode="&#xf0;" horiz-adv-x="548" 
d="M112 538q22 19 41.5 37t38.5 36q-66 41 -148 60q2 6 3 12.5t2 13.5q48 -8 91.5 -23.5t81.5 -37.5q26 24 51.5 48.5t51.5 48.5l30 -33q-23 -20 -46.5 -41.5t-49.5 -42.5q51 -34 91.5 -78.5t68 -97.5t42.5 -112t15 -121q0 -46 -18 -85.5t-49.5 -69t-75 -46.5t-93.5 -17
q-49 0 -92 17t-74.5 46t-50 68t-18.5 84q0 47 18.5 86.5t50 68t73 44.5t87.5 16q53 0 95.5 -25t67.5 -66q-22 85 -65 150t-104 110q-20 -20 -41.5 -39.5t-43.5 -41.5zM240 26q25 0 55.5 10t56 31.5t43 55.5t17.5 81t-17.5 81t-43 55.5t-56 31.5t-55.5 10t-55 -10t-56 -31.5
t-43.5 -55.5t-17.5 -81t17.5 -81t43.5 -55.5t56 -31.5t55 -10z" />
    <glyph glyph-name="ntilde" unicode="&#xf1;" horiz-adv-x="537" 
d="M485 230v-54.5t0.5 -60.5t1 -60.5t2.5 -54.5q-15 3 -32 3q-9 0 -17.5 -1t-16.5 -2q1 25 2 54.5t1.5 60t0.5 60v55.5v19q0 33 -7 66t-23.5 59.5t-44.5 43t-70 16.5q-31 0 -58.5 -12t-49 -32.5t-35 -48t-17.5 -57.5v-53q0 -59 1 -121t4 -110q-20 3 -34 3q-17 0 -35 -3
q1 24 2 52.5t2 58t1 58.5v54q0 35 -0.5 69.5t-1.5 64.5t-3 54t-5 38q15 0 34.5 3.5t39.5 11.5q-2 -22 -2.5 -46.5t-1.5 -50.5q10 24 28 43.5t41 33t48.5 21t51.5 7.5q42 0 77 -13.5t61 -41t40.5 -69.5t14.5 -99v-19zM445 636q-8 -35 -32 -60.5t-66 -25.5q-17 0 -36 7
t-38.5 15t-38.5 15t-36 7q-18 0 -36.5 -10t-24.5 -39l-29 9q7 31 32.5 57t68.5 26q17 0 35 -7t36 -16t36 -16t35 -7q18 0 37 11t29 41z" />
    <glyph glyph-name="ograve" unicode="&#xf2;" horiz-adv-x="554" 
d="M278 -11q-45 0 -87 15.5t-75 45.5t-53 75.5t-20 105.5t20 105t53 75.5t75 45.5t87 15q43 0 85 -15t75 -45.5t53 -75.5t20 -105t-20 -105.5t-53 -75.5t-75 -45.5t-85 -15.5zM278 25q31 0 61.5 13t54.5 39t38.5 64.5t14.5 89.5q0 50 -14.5 88.5t-38.5 64t-54.5 38.5
t-61.5 13q-33 0 -63.5 -13t-54.5 -38.5t-38.5 -64t-14.5 -88.5q0 -51 14.5 -89.5t38.5 -64.5t54.5 -39t63.5 -13zM267 549l-139 118q-14 12 -24.5 23t-19.5 22q7 9 18.5 16.5t23.5 12.5q45 -38 85.5 -86.5t84.5 -105.5h-29z" />
    <glyph glyph-name="oacute" unicode="&#xf3;" horiz-adv-x="554" 
d="M278 -11q-45 0 -87 15.5t-75 45.5t-53 75.5t-20 105.5t20 105t53 75.5t75 45.5t87 15q43 0 85 -15t75 -45.5t53 -75.5t20 -105t-20 -105.5t-53 -75.5t-75 -45.5t-85 -15.5zM278 25q31 0 61.5 13t54.5 39t38.5 64.5t14.5 89.5q0 50 -14.5 88.5t-38.5 64t-54.5 38.5
t-61.5 13q-33 0 -63.5 -13t-54.5 -38.5t-38.5 -64t-14.5 -88.5q0 -51 14.5 -89.5t38.5 -64.5t54.5 -39t63.5 -13zM289 549h-24l108 140q10 15 27.5 33.5t36.5 18.5q14 0 23.5 -8t9.5 -21q0 -2 -1 -5.5t-5.5 -8.5t-13.5 -13.5t-25 -21.5z" />
    <glyph glyph-name="ocircumflex" unicode="&#xf4;" horiz-adv-x="554" 
d="M278 -11q-45 0 -87 15.5t-75 45.5t-53 75.5t-20 105.5t20 105t53 75.5t75 45.5t87 15q43 0 85 -15t75 -45.5t53 -75.5t20 -105t-20 -105.5t-53 -75.5t-75 -45.5t-85 -15.5zM278 25q31 0 61.5 13t54.5 39t38.5 64.5t14.5 89.5q0 50 -14.5 88.5t-38.5 64t-54.5 38.5
t-61.5 13q-33 0 -63.5 -13t-54.5 -38.5t-38.5 -64t-14.5 -88.5q0 -51 14.5 -89.5t38.5 -64.5t54.5 -39t63.5 -13zM399 551l-122 111l-121 -111h-43l164 176l165 -176h-43z" />
    <glyph glyph-name="otilde" unicode="&#xf5;" horiz-adv-x="546" 
d="M274 -11q-45 0 -87 15.5t-75 45.5t-53 75.5t-20 105.5t20 105t53 75.5t75 45.5t87 15q43 0 85 -15t75 -45.5t53 -75.5t20 -105t-20 -105.5t-53 -75.5t-75 -45.5t-85 -15.5zM274 25q31 0 61.5 13t54.5 39t38.5 64.5t14.5 89.5q0 50 -14.5 88.5t-38.5 64t-54.5 38.5
t-61.5 13q-33 0 -63.5 -13t-54.5 -38.5t-38.5 -64t-14.5 -88.5q0 -51 14.5 -89.5t38.5 -64.5t54.5 -39t63.5 -13zM438 638q-8 -35 -32 -60.5t-66 -25.5q-17 0 -36 7t-38.5 15t-38.5 15t-36 7q-18 0 -36.5 -10t-24.5 -39l-29 9q7 31 32.5 57t68.5 26q17 0 35 -7t36 -16
t36 -16t35 -7q18 0 37 11t29 41z" />
    <glyph glyph-name="odieresis" unicode="&#xf6;" horiz-adv-x="554" 
d="M278 -11q-45 0 -87 15.5t-75 45.5t-53 75.5t-20 105.5t20 105t53 75.5t75 45.5t87 15q43 0 85 -15t75 -45.5t53 -75.5t20 -105t-20 -105.5t-53 -75.5t-75 -45.5t-85 -15.5zM278 25q31 0 61.5 13t54.5 39t38.5 64.5t14.5 89.5q0 50 -14.5 88.5t-38.5 64t-54.5 38.5
t-61.5 13q-33 0 -63.5 -13t-54.5 -38.5t-38.5 -64t-14.5 -88.5q0 -51 14.5 -89.5t38.5 -64.5t54.5 -39t63.5 -13zM218 610q0 -14 -10.5 -24t-26.5 -10q-14 0 -24.5 10t-10.5 24q0 15 10.5 25.5t24.5 10.5q16 0 26.5 -10.5t10.5 -25.5zM428 610q0 -14 -11.5 -24t-26.5 -10
q-14 0 -24.5 10t-10.5 24q0 15 10.5 25.5t24.5 10.5q15 0 26.5 -10.5t11.5 -25.5z" />
    <glyph glyph-name="divide" unicode="&#xf7;" horiz-adv-x="671" 
d="M49 223v35h503v-35h-503zM343 448q0 -15 -11.5 -26t-26.5 -11q-16 0 -27 11t-11 26t11 25.5t27 10.5q15 0 26.5 -10.5t11.5 -25.5zM343 32q0 -15 -11.5 -26t-26.5 -11q-16 0 -27 11t-11 26q0 16 11 26t27 10q15 0 26.5 -10t11.5 -26z" />
    <glyph glyph-name="oslash" unicode="&#xf8;" horiz-adv-x="511" 
d="M154 14q-28 12 -52.5 32t-42.5 47.5t-28 62.5t-10 77q0 60 20 105t53 74.5t75 44.5t87 15q14 0 27.5 -2t26.5 -5q13 38 25.5 76t26.5 76q6 -1 12.5 -2t14.5 -1q13 0 27 3q-15 -42 -29.5 -83.5t-28.5 -83.5q28 -12 52 -32t41.5 -47t27.5 -61.5t10 -76.5q0 -60 -20 -105
t-53 -75t-75 -45t-85 -15q-15 0 -28.5 2t-27.5 4q-13 -37 -25.5 -75t-25.5 -77q-6 1 -12.5 1.5t-13.5 0.5t-13.5 -0.5t-12.5 -1.5zM172 57q13 38 25.5 72.5t24.5 69.5l15 45q16 46 31 92t31 93q-21 6 -43 6q-32 0 -62 -12t-53.5 -36.5t-38.5 -60.5t-16 -84q0 -30 4 -53
q8 -47 30 -80t52 -52zM214 36q20 -7 42 -7q31 0 61 12.5t53.5 37t38.5 61t16 84.5q0 14 -1 26.5t-3 24.5q-8 46 -29.5 78.5t-50.5 51.5l-60 -176z" />
    <glyph glyph-name="ugrave" unicode="&#xf9;" horiz-adv-x="539" 
d="M417 203v63t-0.5 68.5t-1.5 67.5t-3 61q19 -3 34 -3q17 0 35 3q-2 -24 -2.5 -52.5t-1.5 -58t-1 -58.5v-54q0 -35 0.5 -69.5t1.5 -65.5t3.5 -56t6.5 -41q-16 1 -32 0q-21 -2 -42 -9q1 22 2 47.5t1 52.5q-10 -24 -27.5 -44t-39 -34t-46.5 -22t-49 -9q-10 0 -20 0.5t-19 1.5
q-73 9 -118 64t-45 158v19v54.5t-0.5 60t-1.5 60.5t-2 55q15 -3 32 -3q19 0 34 3q-2 -25 -2.5 -54.5t-1 -60t-0.5 -60.5v-55v-19q0 -34 7 -67t23.5 -59.5t44.5 -43t70 -16.5q34 0 63 14t50.5 38t34 55.5t13.5 67.5zM250 549l-139 118q-14 12 -24.5 23t-19.5 22
q7 9 18.5 16.5t23.5 12.5q45 -38 85.5 -86.5t84.5 -105.5h-29z" />
    <glyph glyph-name="uacute" unicode="&#xfa;" horiz-adv-x="539" 
d="M417 203v63t-0.5 68.5t-1.5 67.5t-3 61q19 -3 34 -3q17 0 35 3q-2 -24 -2.5 -52.5t-1.5 -58t-1 -58.5v-54q0 -35 0.5 -69.5t1.5 -65.5t3.5 -56t6.5 -41q-16 1 -32 0q-21 -2 -42 -9q1 22 2 47.5t1 52.5q-10 -24 -27.5 -44t-39 -34t-46.5 -22t-49 -9q-10 0 -20 0.5t-19 1.5
q-73 9 -118 64t-45 158v19v54.5t-0.5 60t-1.5 60.5t-2 55q15 -3 32 -3q19 0 34 3q-2 -25 -2.5 -54.5t-1 -60t-0.5 -60.5v-55v-19q0 -34 7 -67t23.5 -59.5t44.5 -43t70 -16.5q34 0 63 14t50.5 38t34 55.5t13.5 67.5zM272 549h-24l108 140q10 15 27.5 33.5t36.5 18.5
q14 0 23.5 -8t9.5 -21q0 -2 -1 -5.5t-5.5 -8.5t-13.5 -13.5t-25 -21.5z" />
    <glyph glyph-name="ucircumflex" unicode="&#xfb;" horiz-adv-x="539" 
d="M417 203v63t-0.5 68.5t-1.5 67.5t-3 61q19 -3 34 -3q17 0 35 3q-2 -24 -2.5 -52.5t-1.5 -58t-1 -58.5v-54q0 -35 0.5 -69.5t1.5 -65.5t3.5 -56t6.5 -41q-16 1 -32 0q-21 -2 -42 -9q1 22 2 47.5t1 52.5q-10 -24 -27.5 -44t-39 -34t-46.5 -22t-49 -9q-10 0 -20 0.5t-19 1.5
q-73 9 -118 64t-45 158v19v54.5t-0.5 60t-1.5 60.5t-2 55q15 -3 32 -3q19 0 34 3q-2 -25 -2.5 -54.5t-1 -60t-0.5 -60.5v-55v-19q0 -34 7 -67t23.5 -59.5t44.5 -43t70 -16.5q34 0 63 14t50.5 38t34 55.5t13.5 67.5zM382 551l-122 111l-121 -111h-43l164 176l165 -176h-43z
" />
    <glyph glyph-name="udieresis" unicode="&#xfc;" horiz-adv-x="539" 
d="M417 203v63t-0.5 68.5t-1.5 67.5t-3 61q19 -3 34 -3q17 0 35 3q-2 -24 -2.5 -52.5t-1.5 -58t-1 -58.5v-54q0 -35 0.5 -69.5t1.5 -65.5t3.5 -56t6.5 -41q-16 1 -32 0q-21 -2 -42 -9q1 22 2 47.5t1 52.5q-10 -24 -27.5 -44t-39 -34t-46.5 -22t-49 -9q-10 0 -20 0.5t-19 1.5
q-73 9 -118 64t-45 158v19v54.5t-0.5 60t-1.5 60.5t-2 55q15 -3 32 -3q19 0 34 3q-2 -25 -2.5 -54.5t-1 -60t-0.5 -60.5v-55v-19q0 -34 7 -67t23.5 -59.5t44.5 -43t70 -16.5q34 0 63 14t50.5 38t34 55.5t13.5 67.5zM200 610q0 -14 -10.5 -24t-26.5 -10q-14 0 -24.5 10
t-10.5 24q0 15 10.5 25.5t24.5 10.5q16 0 26.5 -10.5t10.5 -25.5zM410 610q0 -14 -11.5 -24t-26.5 -10q-14 0 -24.5 10t-10.5 24q0 15 10.5 25.5t24.5 10.5q15 0 26.5 -10.5t11.5 -25.5z" />
    <glyph glyph-name="yacute" unicode="&#xfd;" horiz-adv-x="445" 
d="M69 463q18 -47 35 -93t36 -94t40 -99t48 -109q26 58 48 109.5t40.5 99.5t35 93.5t31.5 92.5q15 -3 30 -3q16 0 33 3q-17 -35 -30 -63.5t-25.5 -56.5t-25.5 -58t-29.5 -68.5t-37 -88.5t-48.5 -118q-16 -38 -29.5 -69t-29 -59.5t-35 -57.5t-46.5 -64q-11 -9 -22 -12
q-10 -1 -19 0q-12 2 -20.5 12.5t-8.5 22.5q0 16 11 26t27 10q18 0 29 -12q9 13 18.5 30t20 40.5t22.5 53.5t27 71q-32 86 -58.5 151t-49.5 118t-44.5 98.5t-43.5 93.5q8 -2 17 -3t18 -1t18 1t17 3zM240 549h-24l108 140q10 15 27.5 33.5t36.5 18.5q14 0 23.5 -8t9.5 -21
q0 -2 -1 -5.5t-5.5 -8.5t-13.5 -13.5t-25 -21.5z" />
    <glyph glyph-name="thorn" unicode="&#xfe;" horiz-adv-x="541" 
d="M72 -264q1 44 2.5 98.5t2.5 115t1.5 125.5t0.5 130q0 64 -0.5 129.5t-1.5 127t-2.5 117t-2.5 100.5q16 -3 33 -3t35 3q-3 -65 -5 -145t-3 -171q23 52 69.5 80.5t101.5 28.5q39 0 75.5 -14t64 -42t44 -71t16.5 -101q0 -56 -19 -102.5t-52.5 -81t-78.5 -53.5t-97 -19
q-31 0 -63 9t-60 31q1 -90 2.5 -164.5t3.5 -127.5q-5 2 -14 3t-20 1q-10 0 -19 -1t-14 -3zM132 71q23 -16 52.5 -30t71.5 -14q44 0 78 17.5t57 47.5t35 69t12 83q0 33 -7.5 67t-25.5 61t-48 44.5t-74 17.5q-29 0 -54.5 -12t-45.5 -33t-33.5 -49t-17.5 -59v-210z" />
    <glyph glyph-name="ydieresis" unicode="&#xff;" horiz-adv-x="445" 
d="M69 463q18 -47 35 -93t36 -94t40 -99t48 -109q26 58 48 109.5t40.5 99.5t35 93.5t31.5 92.5q15 -3 30 -3q16 0 33 3q-17 -35 -30 -63.5t-25.5 -56.5t-25.5 -58t-29.5 -68.5t-37 -88.5t-48.5 -118q-16 -38 -29.5 -69t-29 -59.5t-35 -57.5t-46.5 -64q-11 -9 -22 -12
q-10 -1 -19 0q-12 2 -20.5 12.5t-8.5 22.5q0 16 11 26t27 10q18 0 29 -12q9 13 18.5 30t20 40.5t22.5 53.5t27 71q-32 86 -58.5 151t-49.5 118t-44.5 98.5t-43.5 93.5q8 -2 17 -3t18 -1t18 1t17 3zM168 610q0 -14 -10.5 -24t-26.5 -10q-14 0 -24.5 10t-10.5 24
q0 15 10.5 25.5t24.5 10.5q16 0 26.5 -10.5t10.5 -25.5zM378 610q0 -14 -11.5 -24t-26.5 -10q-14 0 -24.5 10t-10.5 24q0 15 10.5 25.5t24.5 10.5q15 0 26.5 -10.5t11.5 -25.5z" />
    <glyph glyph-name="Amacron" unicode="&#x100;" horiz-adv-x="552" 
d="M483 -3q-20 57 -40 117t-42 121q-32 1 -67.5 1h-64.5h-67t-70 -1q-22 -61 -42.5 -120t-40.5 -118q-5 2 -11.5 3t-12.5 1q-8 0 -16.5 -1t-15.5 -3q69 172 130 345t126 344q15 -3 31 -3t30 3q59 -167 121.5 -344.5t128.5 -344.5q-10 2 -19 3t-20 1q-9 0 -19 -1t-19 -3z
M145 272q30 -1 63 -1h60t59 0.5t62 1.5q-30 87 -61 172.5t-61 166.5zM438 760q-41 1 -82.5 1h-81.5h-82.5t-82.5 -1v37q52 -1 88.5 -1.5t76.5 -0.5h37.5t38 0.5t41 1t47.5 0.5v-37z" />
    <glyph glyph-name="amacron" unicode="&#x101;" horiz-adv-x="486" 
d="M355 -3q0 12 0.5 28.5t1.5 33.5q-15 -21 -36 -34.5t-43.5 -21.5t-45 -11t-40.5 -3q-30 0 -58.5 6t-51 20t-36 37t-13.5 58q0 32 17 57.5t44.5 44t62.5 32t71 22.5t70.5 14.5t60.5 8.5q-4 75 -33 110.5t-94 35.5q-26 0 -55.5 -9.5t-48.5 -29.5q2 -5 4.5 -10.5t2.5 -12.5
q0 -14 -10.5 -24.5t-26.5 -10.5q-15 0 -25.5 10t-10.5 24q0 17 13 30q30 37 74.5 53.5t85.5 16.5q39 0 72 -11t57.5 -34t38.5 -58.5t14 -83.5q0 -23 -0.5 -47t-1.5 -48q-2 -46 1 -93.5t12 -91.5q-17 1 -33 0q-11 -1 -20.5 -3t-19.5 -5zM358 251q-17 -1 -43 -3.5t-55 -9
t-58 -17t-52.5 -25.5t-38.5 -35.5t-15 -46.5q0 -32 10.5 -49.5t27.5 -26t38.5 -10.5t43.5 -2q19 0 43 6t46 19t37 33.5t15 49.5q0 24 0.5 51.5t0.5 65.5zM398 560q-41 1 -82.5 1h-81.5h-82.5t-82.5 -1v37q52 -1 88.5 -1.5t76.5 -0.5h37.5t38 0.5t41 1t47.5 0.5v-37z" />
    <glyph glyph-name="Abreve" unicode="&#x102;" horiz-adv-x="552" 
d="M483 -3q-20 57 -40 117t-42 121q-32 1 -67.5 1h-64.5h-67t-70 -1q-22 -61 -42.5 -120t-40.5 -118q-5 2 -11.5 3t-12.5 1q-8 0 -16.5 -1t-15.5 -3q69 172 130 345t126 344q15 -3 31 -3t30 3q59 -167 121.5 -344.5t128.5 -344.5q-10 2 -19 3t-20 1q-9 0 -19 -1t-19 -3z
M145 272q30 -1 63 -1h60t59 0.5t62 1.5q-30 87 -61 172.5t-61 166.5zM412 864q-5 -21 -14.5 -41.5t-26 -37t-39.5 -26.5t-55 -10t-55.5 10t-39.5 26.5t-25 37t-13 41.5h33q10 -39 38 -59.5t62 -20.5q35 0 61.5 20.5t37.5 59.5h36z" />
    <glyph glyph-name="abreve" unicode="&#x103;" horiz-adv-x="486" 
d="M355 -3q0 12 0.5 28.5t1.5 33.5q-15 -21 -36 -34.5t-43.5 -21.5t-45 -11t-40.5 -3q-30 0 -58.5 6t-51 20t-36 37t-13.5 58q0 32 17 57.5t44.5 44t62.5 32t71 22.5t70.5 14.5t60.5 8.5q-4 75 -33 110.5t-94 35.5q-26 0 -55.5 -9.5t-48.5 -29.5q2 -5 4.5 -10.5t2.5 -12.5
q0 -14 -10.5 -24.5t-26.5 -10.5q-15 0 -25.5 10t-10.5 24q0 17 13 30q30 37 74.5 53.5t85.5 16.5q39 0 72 -11t57.5 -34t38.5 -58.5t14 -83.5q0 -23 -0.5 -47t-1.5 -48q-2 -46 1 -93.5t12 -91.5q-17 1 -33 0q-11 -1 -20.5 -3t-19.5 -5zM358 251q-17 -1 -43 -3.5t-55 -9
t-58 -17t-52.5 -25.5t-38.5 -35.5t-15 -46.5q0 -32 10.5 -49.5t27.5 -26t38.5 -10.5t43.5 -2q19 0 43 6t46 19t37 33.5t15 49.5q0 24 0.5 51.5t0.5 65.5zM373 664q-5 -21 -14.5 -41.5t-26 -37t-39.5 -26.5t-55 -10t-55.5 10t-39.5 26.5t-25 37t-13 41.5h33q10 -39 38 -59.5
t62 -20.5q35 0 61.5 20.5t37.5 59.5h36z" />
    <glyph glyph-name="Aogonek" unicode="&#x104;" horiz-adv-x="552" 
d="M623 -126q-20 -23 -53 -36t-64.5 -10.5t-55 22t-23.5 61.5q0 29 14.5 55t36.5 44q-37 110 -77 225q-32 1 -67.5 1h-64.5h-67t-70 -1q-22 -61 -42.5 -120t-40.5 -118q-5 2 -11.5 3t-12.5 1q-8 0 -16.5 -1t-15.5 -3q69 172 130 345t126 344q15 -3 31 -3t30 3
q59 -167 121.5 -344.5t128.5 -344.5q-10 2 -19 3t-20 1h-6q-12 -15 -20.5 -33t-8.5 -38q0 -30 17 -46.5t41 -16.5q16 0 33 5.5t33 16.5zM145 272q30 -1 63 -1h60t59 0.5t62 1.5q-30 87 -61 172.5t-61 166.5z" />
    <glyph glyph-name="aogonek" unicode="&#x105;" horiz-adv-x="486" 
d="M507 -134q-20 -23 -53 -36t-64.5 -10.5t-55 22t-23.5 61.5q0 28 13 52.5t33 42.5q-1 0 -2 -1q0 12 0.5 28.5t1.5 33.5q-15 -21 -36 -34.5t-43.5 -21.5t-45 -11t-40.5 -3q-30 0 -58.5 6t-51 20t-36 37t-13.5 58q0 32 17 57.5t44.5 44t62.5 32t71 22.5t70.5 14.5t60.5 8.5
q-4 75 -33 110.5t-94 35.5q-26 0 -55.5 -9.5t-48.5 -29.5q2 -5 4.5 -10.5t2.5 -12.5q0 -14 -10.5 -24.5t-26.5 -10.5q-15 0 -25.5 10t-10.5 24q0 17 13 30q30 37 74.5 53.5t85.5 16.5q39 0 72 -11t57.5 -34t38.5 -58.5t14 -83.5q0 -23 -0.5 -47t-1.5 -48q-2 -46 1 -93.5
t12 -91.5h-19q-15 -17 -27 -38t-12 -45q0 -30 17 -46.5t41 -16.5q16 0 33 5.5t33 16.5zM358 251q-17 -1 -43 -3.5t-55 -9t-58 -17t-52.5 -25.5t-38.5 -35.5t-15 -46.5q0 -32 10.5 -49.5t27.5 -26t38.5 -10.5t43.5 -2q19 0 43 6t46 19t37 33.5t15 49.5q0 24 0.5 51.5
t0.5 65.5z" />
    <glyph glyph-name="Cacute" unicode="&#x106;" horiz-adv-x="675" 
d="M631 76q-51 -46 -118 -67t-129 -21q-73 0 -135.5 26t-108 73t-71.5 111.5t-26 141.5q0 73 26.5 138.5t73.5 115t111 78t138 28.5q54 0 109 -19.5t96 -61.5q14 -13 28 -36.5t14 -43.5q0 -17 -12 -28t-28 -11q-17 0 -29.5 12t-12.5 29q0 10 4.5 17t12.5 13
q-11 22 -31.5 38.5t-46.5 27.5t-54 17t-54 6q-61 0 -111.5 -27.5t-86.5 -72.5t-56 -101.5t-20 -114.5q0 -69 21.5 -127.5t59.5 -101t89 -66.5t111 -24q67 0 121.5 16.5t102.5 50.5zM401 749h-24l108 140q10 15 27.5 33.5t36.5 18.5q14 0 23.5 -8t9.5 -21q0 -2 -1 -5.5
t-5.5 -8.5t-13.5 -13.5t-25 -21.5z" />
    <glyph glyph-name="cacute" unicode="&#x107;" horiz-adv-x="505" 
d="M479 93q-38 -54 -89.5 -79t-112.5 -25q-50 0 -92.5 18.5t-74 51t-49.5 77t-18 95.5q0 50 19 94t51 76.5t74 51.5t89 19q42 0 84 -17.5t75 -61.5q12 -14 12 -29t-11.5 -26t-26.5 -11q-16 0 -26.5 11t-10.5 26q0 6 1.5 12.5t5.5 11.5q-2 4 -4.5 6t-5.5 4q-37 36 -93 36
q-35 0 -66 -15.5t-54 -43t-36 -64.5t-13 -80t13 -80.5t36.5 -65t56 -43.5t71.5 -16q54 0 98.5 19t83.5 61zM290 549h-24l108 140q10 15 27.5 33.5t36.5 18.5q14 0 23.5 -8t9.5 -21q0 -2 -1 -5.5t-5.5 -8.5t-13.5 -13.5t-25 -21.5z" />
    <glyph glyph-name="Ccircumflex" unicode="&#x108;" horiz-adv-x="675" 
d="M631 76q-51 -46 -118 -67t-129 -21q-73 0 -135.5 26t-108 73t-71.5 111.5t-26 141.5q0 73 26.5 138.5t73.5 115t111 78t138 28.5q54 0 109 -19.5t96 -61.5q14 -13 28 -36.5t14 -43.5q0 -17 -12 -28t-28 -11q-17 0 -29.5 12t-12.5 29q0 10 4.5 17t12.5 13
q-11 22 -31.5 38.5t-46.5 27.5t-54 17t-54 6q-61 0 -111.5 -27.5t-86.5 -72.5t-56 -101.5t-20 -114.5q0 -69 21.5 -127.5t59.5 -101t89 -66.5t111 -24q67 0 121.5 16.5t102.5 50.5zM511 751l-122 111l-121 -111h-43l164 176l165 -176h-43z" />
    <glyph glyph-name="ccircumflex" unicode="&#x109;" horiz-adv-x="505" 
d="M479 93q-38 -54 -89.5 -79t-112.5 -25q-50 0 -92.5 18.5t-74 51t-49.5 77t-18 95.5q0 50 19 94t51 76.5t74 51.5t89 19q42 0 84 -17.5t75 -61.5q12 -14 12 -29t-11.5 -26t-26.5 -11q-16 0 -26.5 11t-10.5 26q0 6 1.5 12.5t5.5 11.5q-2 4 -4.5 6t-5.5 4q-37 36 -93 36
q-35 0 -66 -15.5t-54 -43t-36 -64.5t-13 -80t13 -80.5t36.5 -65t56 -43.5t71.5 -16q54 0 98.5 19t83.5 61zM400 551l-122 111l-121 -111h-43l164 176l165 -176h-43z" />
    <glyph glyph-name="Cdotaccent" unicode="&#x10a;" horiz-adv-x="675" 
d="M631 76q-51 -46 -118 -67t-129 -21q-73 0 -135.5 26t-108 73t-71.5 111.5t-26 141.5q0 73 26.5 138.5t73.5 115t111 78t138 28.5q54 0 109 -19.5t96 -61.5q14 -13 28 -36.5t14 -43.5q0 -17 -12 -28t-28 -11q-17 0 -29.5 12t-12.5 29q0 10 4.5 17t12.5 13
q-11 22 -31.5 38.5t-46.5 27.5t-54 17t-54 6q-61 0 -111.5 -27.5t-86.5 -72.5t-56 -101.5t-20 -114.5q0 -69 21.5 -127.5t59.5 -101t89 -66.5t111 -24q67 0 121.5 16.5t102.5 50.5zM425 784q0 -14 -11 -24t-25 -10q-16 0 -26 10t-10 24q0 15 10 25t26 10q14 0 25 -10t11 -25
z" />
    <glyph glyph-name="cdotaccent" unicode="&#x10b;" horiz-adv-x="505" 
d="M479 93q-38 -54 -89.5 -79t-112.5 -25q-50 0 -92.5 18.5t-74 51t-49.5 77t-18 95.5q0 50 19 94t51 76.5t74 51.5t89 19q42 0 84 -17.5t75 -61.5q12 -14 12 -29t-11.5 -26t-26.5 -11q-16 0 -26.5 11t-10.5 26q0 6 1.5 12.5t5.5 11.5q-2 4 -4.5 6t-5.5 4q-37 36 -93 36
q-35 0 -66 -15.5t-54 -43t-36 -64.5t-13 -80t13 -80.5t36.5 -65t56 -43.5t71.5 -16q54 0 98.5 19t83.5 61zM314 584q0 -14 -11 -24t-25 -10q-16 0 -26 10t-10 24q0 15 10 25t26 10q14 0 25 -10t11 -25z" />
    <glyph glyph-name="Ccaron" unicode="&#x10c;" horiz-adv-x="675" 
d="M631 76q-51 -46 -118 -67t-129 -21q-73 0 -135.5 26t-108 73t-71.5 111.5t-26 141.5q0 73 26.5 138.5t73.5 115t111 78t138 28.5q54 0 109 -19.5t96 -61.5q14 -13 28 -36.5t14 -43.5q0 -17 -12 -28t-28 -11q-17 0 -29.5 12t-12.5 29q0 10 4.5 17t12.5 13
q-11 22 -31.5 38.5t-46.5 27.5t-54 17t-54 6q-61 0 -111.5 -27.5t-86.5 -72.5t-56 -101.5t-20 -114.5q0 -69 21.5 -127.5t59.5 -101t89 -66.5t111 -24q67 0 121.5 16.5t102.5 50.5zM255 896l35 3l99 -88l97 88l37 -3l-134 -147z" />
    <glyph glyph-name="ccaron" unicode="&#x10d;" horiz-adv-x="505" 
d="M479 93q-38 -54 -89.5 -79t-112.5 -25q-50 0 -92.5 18.5t-74 51t-49.5 77t-18 95.5q0 50 19 94t51 76.5t74 51.5t89 19q42 0 84 -17.5t75 -61.5q12 -14 12 -29t-11.5 -26t-26.5 -11q-16 0 -26.5 11t-10.5 26q0 6 1.5 12.5t5.5 11.5q-2 4 -4.5 6t-5.5 4q-37 36 -93 36
q-35 0 -66 -15.5t-54 -43t-36 -64.5t-13 -80t13 -80.5t36.5 -65t56 -43.5t71.5 -16q54 0 98.5 19t83.5 61zM144 696l35 3l99 -88l97 88l37 -3l-134 -147z" />
    <glyph glyph-name="Dcaron" unicode="&#x10e;" horiz-adv-x="637" 
d="M73 0q1 38 2 82t2 89t1 89.5v82.5v82t-1 89.5t-2 89.5t-2 82q8 -1 15.5 -1h15.5h12.5t18 0.5t30 0.5h47.5q88 0 159 -21.5t120.5 -64t76 -106t26.5 -146.5q0 -74 -24.5 -137.5t-74 -110t-123.5 -73.5t-172 -27q-26 0 -42.5 0.5t-26 0.5t-15 0.5t-9.5 0.5q-8 0 -17 -0.5
t-17 -1.5zM220 38q72 0 128.5 23.5t95 65.5t59 98.5t20.5 122.5q0 77 -24.5 133.5t-66.5 94t-98 55.5t-120 18h-73q-2 -72 -2.5 -154.5t-0.5 -151.5v-72.5t0.5 -78.5t1 -79.5t1.5 -74.5h79zM144 866l35 3l99 -88l97 88l37 -3l-134 -147z" />
    <glyph glyph-name="dcaron" unicode="&#x10f;" horiz-adv-x="785" 
d="M405 0q1 19 1.5 40t0.5 44q-25 -45 -68.5 -70t-96.5 -25q-39 0 -75 14t-63.5 42t-44 71t-16.5 102q0 55 19 102t52 80.5t78 52.5t97 19q30 0 61.5 -6.5t60.5 -26.5q0 41 -0.5 85t-1.5 84t-3.5 71t-6.5 47q17 0 36 2.5t38 7.5q-2 -41 -3 -89.5t-1.5 -99t-0.5 -99.5v-90
v-85.5t0.5 -94t1 -93.5t2.5 -85q-9 1 -17 2t-16 1t-17 -1t-17 -2zM411 395q-23 16 -52 27.5t-70 11.5q-45 0 -79 -17.5t-57 -47t-34.5 -69t-11.5 -82.5q0 -33 8 -67t26 -61t47.5 -44.5t73.5 -17.5q26 0 49.5 9.5t43 27t33.5 41t21 50.5q1 54 1.5 108t0.5 99v32zM601 523
q17 63 29.5 106t25.5 73q3 8 9.5 13t18.5 5q15 0 26.5 -11.5t6.5 -27.5q-2 -6 -7 -16.5t-16.5 -29t-29.5 -47.5t-46 -72z" />
    <glyph glyph-name="Dcroat" unicode="&#x110;" horiz-adv-x="633" 
d="M-57 367q32 -1 63.5 -1.5t66.5 -0.5v79t-1 84t-2 82.5t-2 75.5q8 -2 17 -2h17q5 0 11.5 0.5t18 0.5t29.5 0.5t46 0.5q88 0 159 -21.5t121 -64t76.5 -106t26.5 -146.5q0 -74 -24.5 -137.5t-74 -110t-123.5 -73.5t-173 -27q-26 0 -42.5 0.5t-26 1t-15 1t-9.5 0.5
q-18 0 -34 -3q1 36 2 78t2 85.5t1 86.5v81q-34 0 -66 -0.5t-64 -0.5v37zM215 38q72 0 128.5 23.5t95.5 65.5t59.5 98.5t20.5 122.5q0 77 -24.5 133.5t-66.5 94t-98 55.5t-120 18h-73q-2 -66 -3 -142t-1 -142q35 0 66 0.5t67 1.5v-37q-34 1 -66 1h-67v-71.5t0.5 -75.5
t1.5 -75.5t2 -70.5h78z" />
    <glyph glyph-name="dcroat" unicode="&#x111;" horiz-adv-x="544" 
d="M588 555q0 -5 -0.5 -9t-0.5 -9t0.5 -10t0.5 -8l-120 2q-1 -44 -0.5 -86t0.5 -77v-85.5t0.5 -94t1 -93.5t2.5 -85q-9 1 -17 2t-16 1t-17 -1t-17 -2q1 19 1.5 40t0.5 44q-25 -45 -68.5 -70t-96.5 -25q-39 0 -75 14t-63.5 42t-44 71t-16.5 102q0 55 19 102t52 80.5t78 52.5
t97 19q30 0 61.5 -6.5t60.5 -26.5v82l-120 -3q1 4 1 8.5v9.5v9.5t-1 9.5q27 -1 58.5 -1.5t60.5 -0.5q-1 57 -3.5 104.5t-7.5 68.5q17 0 36 2.5t38 7.5q-2 -40 -3 -87t-2 -96q30 0 61.5 0.5t58.5 1.5zM411 395q-23 16 -52 27.5t-70 11.5q-45 0 -79 -17.5t-57 -47t-34.5 -69
t-11.5 -82.5q0 -33 8 -67t26 -61t47.5 -44.5t73.5 -17.5q26 0 49.5 9.5t43 27t33.5 41t21 50.5q1 54 1.5 108t0.5 99v32z" />
    <glyph glyph-name="Emacron" unicode="&#x112;" horiz-adv-x="512" 
d="M470 -3q-105 3 -193 4t-169 1q-8 0 -17.5 -0.5t-17.5 -1.5q2 38 3 82t2 89t1 89.5v82.5v82.5t-1 90t-2 89t-3 81.5q8 -2 17.5 -2h17.5q81 0 162 1t167 4q-3 -12 -3 -22q0 -13 3 -23q-32 1 -70 2t-77 1.5t-77 0.5h-71q-2 -64 -2.5 -136t-0.5 -135q64 0 128.5 0.5
t127.5 2.5q-3 -12 -3 -23q0 -12 3 -24q-74 2 -134 3t-122 1v-70.5t0.5 -76.5t1 -77.5t1.5 -72.5h78t89.5 0.5t88 1t72.5 1.5q-3 -12 -3 -24t3 -22zM425 760q-41 1 -82.5 1h-81.5h-82.5t-82.5 -1v37q52 -1 88.5 -1.5t76.5 -0.5h37.5t38 0.5t41 1t47.5 0.5v-37z" />
    <glyph glyph-name="emacron" unicode="&#x113;" horiz-adv-x="522" 
d="M479 99q-37 -55 -89 -82.5t-114 -27.5q-55 0 -98 19.5t-73 53t-46 77.5t-16 94q0 51 18.5 94.5t50.5 75.5t75 50.5t91 18.5q33 0 65.5 -9t58 -26.5t41 -43t15.5 -58.5q0 -44 -18.5 -74t-49 -48t-70 -25.5t-80.5 -7.5q-31 0 -67 8t-64 20q3 -38 17 -71.5t36.5 -58.5
t53.5 -39t68 -14q54 0 98.5 22t83.5 65zM108 249q25 -14 63 -23t71 -9q30 0 58.5 5t50.5 18t35.5 36t13.5 58q0 23 -10 41.5t-27 32t-39.5 20.5t-47.5 7q-36 0 -65.5 -15.5t-51.5 -41t-35 -59.5t-16 -70zM437 560q-41 1 -82.5 1h-81.5h-82.5t-82.5 -1v37q52 -1 88.5 -1.5
t76.5 -0.5h37.5t38 0.5t41 1t47.5 0.5v-37z" />
    <glyph glyph-name="Ebreve" unicode="&#x114;" horiz-adv-x="512" 
d="M470 -3q-105 3 -193 4t-169 1q-8 0 -17.5 -0.5t-17.5 -1.5q2 38 3 82t2 89t1 89.5v82.5v82.5t-1 90t-2 89t-3 81.5q8 -2 17.5 -2h17.5q81 0 162 1t167 4q-3 -12 -3 -22q0 -13 3 -23q-32 1 -70 2t-77 1.5t-77 0.5h-71q-2 -64 -2.5 -136t-0.5 -135q64 0 128.5 0.5
t127.5 2.5q-3 -12 -3 -23q0 -12 3 -24q-74 2 -134 3t-122 1v-70.5t0.5 -76.5t1 -77.5t1.5 -72.5h78t89.5 0.5t88 1t72.5 1.5q-3 -12 -3 -24t3 -22zM399 864q-5 -21 -14.5 -41.5t-26 -37t-39.5 -26.5t-55 -10t-55.5 10t-39.5 26.5t-25 37t-13 41.5h33q10 -39 38 -59.5
t62 -20.5q35 0 61.5 20.5t37.5 59.5h36z" />
    <glyph glyph-name="ebreve" unicode="&#x115;" horiz-adv-x="522" 
d="M479 99q-37 -55 -89 -82.5t-114 -27.5q-55 0 -98 19.5t-73 53t-46 77.5t-16 94q0 51 18.5 94.5t50.5 75.5t75 50.5t91 18.5q33 0 65.5 -9t58 -26.5t41 -43t15.5 -58.5q0 -44 -18.5 -74t-49 -48t-70 -25.5t-80.5 -7.5q-31 0 -67 8t-64 20q3 -38 17 -71.5t36.5 -58.5
t53.5 -39t68 -14q54 0 98.5 22t83.5 65zM108 249q25 -14 63 -23t71 -9q30 0 58.5 5t50.5 18t35.5 36t13.5 58q0 23 -10 41.5t-27 32t-39.5 20.5t-47.5 7q-36 0 -65.5 -15.5t-51.5 -41t-35 -59.5t-16 -70zM411 664q-5 -21 -14.5 -41.5t-26 -37t-39.5 -26.5t-55 -10t-55.5 10
t-39.5 26.5t-25 37t-13 41.5h33q10 -39 38 -59.5t62 -20.5q35 0 61.5 20.5t37.5 59.5h36z" />
    <glyph glyph-name="Edotaccent" unicode="&#x116;" horiz-adv-x="512" 
d="M470 -3q-105 3 -193 4t-169 1q-8 0 -17.5 -0.5t-17.5 -1.5q2 38 3 82t2 89t1 89.5v82.5v82.5t-1 90t-2 89t-3 81.5q8 -2 17.5 -2h17.5q81 0 162 1t167 4q-3 -12 -3 -22q0 -13 3 -23q-32 1 -70 2t-77 1.5t-77 0.5h-71q-2 -64 -2.5 -136t-0.5 -135q64 0 128.5 0.5
t127.5 2.5q-3 -12 -3 -23q0 -12 3 -24q-74 2 -134 3t-122 1v-70.5t0.5 -76.5t1 -77.5t1.5 -72.5h78t89.5 0.5t88 1t72.5 1.5q-3 -12 -3 -24t3 -22zM298 784q0 -14 -11 -24t-25 -10q-16 0 -26 10t-10 24q0 15 10 25t26 10q14 0 25 -10t11 -25z" />
    <glyph glyph-name="edotaccent" unicode="&#x117;" horiz-adv-x="522" 
d="M479 99q-37 -55 -89 -82.5t-114 -27.5q-55 0 -98 19.5t-73 53t-46 77.5t-16 94q0 51 18.5 94.5t50.5 75.5t75 50.5t91 18.5q33 0 65.5 -9t58 -26.5t41 -43t15.5 -58.5q0 -44 -18.5 -74t-49 -48t-70 -25.5t-80.5 -7.5q-31 0 -67 8t-64 20q3 -38 17 -71.5t36.5 -58.5
t53.5 -39t68 -14q54 0 98.5 22t83.5 65zM108 249q25 -14 63 -23t71 -9q30 0 58.5 5t50.5 18t35.5 36t13.5 58q0 23 -10 41.5t-27 32t-39.5 20.5t-47.5 7q-36 0 -65.5 -15.5t-51.5 -41t-35 -59.5t-16 -70zM311 584q0 -14 -11 -24t-25 -10q-16 0 -26 10t-10 24q0 15 10 25
t26 10q14 0 25 -10t11 -25z" />
    <glyph glyph-name="Eogonek" unicode="&#x118;" horiz-adv-x="512" 
d="M454 -134q-20 -23 -53 -36t-64.5 -10.5t-55 22t-23.5 61.5q0 29 14 54.5t36 43.5q-54 1 -103 1h-97q-8 0 -17.5 -0.5t-17.5 -1.5q2 38 3 82t2 89t1 89.5v82.5v82.5t-1 90t-2 89t-3 81.5q8 -2 17.5 -2h17.5q81 0 162 1t167 4q-3 -12 -3 -22q0 -13 3 -23q-32 1 -70 2
t-77 1.5t-77 0.5h-71q-2 -64 -2.5 -136t-0.5 -135q64 0 128.5 0.5t127.5 2.5q-3 -12 -3 -23q0 -12 3 -24q-74 2 -134 3t-122 1v-70.5t0.5 -76.5t1 -77.5t1.5 -72.5h78t89.5 0.5t88 1t72.5 1.5q-3 -12 -3 -24t3 -22q-32 1 -61 2t-57 1q-14 -16 -24.5 -35.5t-10.5 -42.5
q0 -30 17 -46.5t41 -16.5q16 0 33 5.5t33 16.5z" />
    <glyph glyph-name="eogonek" unicode="&#x119;" horiz-adv-x="522" 
d="M402 -126q-20 -23 -53 -36t-64.5 -10.5t-55 22t-23.5 61.5q0 23 9 43.5t23 37.5q-46 6 -82.5 27.5t-61.5 54t-38 73.5t-13 86q0 51 18.5 94.5t50.5 75.5t75 50.5t91 18.5q33 0 65.5 -9t58 -26.5t41 -43t15.5 -58.5q0 -44 -18.5 -74t-49 -48t-70 -25.5t-80.5 -7.5
q-31 0 -67 8t-64 20q3 -38 17 -71.5t36.5 -58.5t53.5 -39t68 -14q54 0 98.5 22t83.5 65l13 -13q-35 -53 -85 -80.5t-109 -29.5q-9 -13 -14.5 -28t-5.5 -31q0 -30 17 -46.5t41 -16.5q16 0 33 5.5t33 16.5zM108 249q25 -14 63 -23t71 -9q30 0 58.5 5t50.5 18t35.5 36t13.5 58
q0 23 -10 41.5t-27 32t-39.5 20.5t-47.5 7q-36 0 -65.5 -15.5t-51.5 -41t-35 -59.5t-16 -70z" />
    <glyph glyph-name="Ecaron" unicode="&#x11a;" horiz-adv-x="512" 
d="M470 -3q-105 3 -193 4t-169 1q-8 0 -17.5 -0.5t-17.5 -1.5q2 38 3 82t2 89t1 89.5v82.5v82.5t-1 90t-2 89t-3 81.5q8 -2 17.5 -2h17.5q81 0 162 1t167 4q-3 -12 -3 -22q0 -13 3 -23q-32 1 -70 2t-77 1.5t-77 0.5h-71q-2 -64 -2.5 -136t-0.5 -135q64 0 128.5 0.5
t127.5 2.5q-3 -12 -3 -23q0 -12 3 -24q-74 2 -134 3t-122 1v-70.5t0.5 -76.5t1 -77.5t1.5 -72.5h78t89.5 0.5t88 1t72.5 1.5q-3 -12 -3 -24t3 -22zM128 896l35 3l99 -88l97 88l37 -3l-134 -147z" />
    <glyph glyph-name="ecaron" unicode="&#x11b;" horiz-adv-x="522" 
d="M479 99q-37 -55 -89 -82.5t-114 -27.5q-55 0 -98 19.5t-73 53t-46 77.5t-16 94q0 51 18.5 94.5t50.5 75.5t75 50.5t91 18.5q33 0 65.5 -9t58 -26.5t41 -43t15.5 -58.5q0 -44 -18.5 -74t-49 -48t-70 -25.5t-80.5 -7.5q-31 0 -67 8t-64 20q3 -38 17 -71.5t36.5 -58.5
t53.5 -39t68 -14q54 0 98.5 22t83.5 65zM108 249q25 -14 63 -23t71 -9q30 0 58.5 5t50.5 18t35.5 36t13.5 58q0 23 -10 41.5t-27 32t-39.5 20.5t-47.5 7q-36 0 -65.5 -15.5t-51.5 -41t-35 -59.5t-16 -70zM141 696l35 3l99 -88l97 88l37 -3l-134 -147z" />
    <glyph glyph-name="Gcircumflex" unicode="&#x11c;" horiz-adv-x="699" 
d="M385 327q33 -1 62 -1.5t58.5 -1t62 -0.5h71.5q-2 -30 -3 -58t-1.5 -58.5t-0.5 -66.5v-82q-27 -19 -59.5 -32.5t-66.5 -22t-68 -12.5t-64 -4q-73 0 -134 26t-105.5 73t-69 111.5t-24.5 141.5q0 73 26 138.5t72 115t109.5 78t137.5 28.5q27 0 59.5 -7.5t64 -21t59 -32.5
t43.5 -43q9 -14 15 -27t6 -30t-12 -28t-27 -11q-17 0 -29.5 12t-12.5 29q0 10 4.5 17t12.5 13q-11 22 -32 38.5t-46.5 27.5t-53.5 17t-54 6q-61 0 -111 -27.5t-85.5 -72.5t-55 -101.5t-19.5 -114.5q0 -69 20.5 -127.5t58 -100.5t89 -65.5t113.5 -23.5q19 0 41.5 2.5t46 8
t46.5 13.5t43 20l-1 213h-48t-43.5 -0.5t-44.5 -1t-50 -1.5q2 6 2 12v12v11t-2 11zM510 751l-122 111l-121 -111h-43l164 176l165 -176h-43z" />
    <glyph glyph-name="gcircumflex" unicode="&#x11d;" horiz-adv-x="537" 
d="M401 416q24 -23 38 -51.5t14 -61.5q0 -34 -15.5 -64.5t-42.5 -53.5t-63 -36.5t-78 -13.5h-17t-16 2q-13 -3 -28.5 -8t-29 -12.5t-22.5 -18.5t-9 -26q0 -21 29.5 -34t73.5 -23t95.5 -20t95.5 -25.5t73.5 -39.5t29.5 -61t-23 -63t-60 -42.5t-84 -24.5t-94 -8t-91 8.5
t-78.5 25.5t-55.5 43t-21 61q0 18 9 37t25 35.5t38.5 30t49.5 21.5q-13 4 -26.5 11.5t-24.5 17.5t-18 21.5t-7 24.5q0 15 8.5 28.5t22 24.5t31.5 19.5t37 12.5q-51 20 -81 60.5t-30 89.5q0 34 15.5 65t42 54t62.5 36.5t78 13.5q55 0 101 -23q38 -1 74 0t73 2
q-1 -5 -1.5 -9.5t-0.5 -9.5t0.5 -9t1.5 -9zM201 -23q-12 -2 -32 -7.5t-38.5 -17t-32 -30t-13.5 -46.5q0 -29 17.5 -49.5t44.5 -34t59.5 -19.5t63.5 -6q32 0 67 5t63.5 17t47 31.5t18.5 49.5q0 16 -13.5 29.5t-36 23.5t-50.5 18.5t-57.5 14.5t-57.5 11t-50 10zM390 303
q0 24 -8.5 47.5t-25 42.5t-42.5 30.5t-60 11.5t-59.5 -11.5t-42 -30.5t-25 -42.5t-8.5 -47.5t8.5 -47t25 -42t42 -30.5t59.5 -11.5t60 11.5t42.5 30.5t25 42t8.5 47zM376 551l-122 111l-121 -111h-43l164 176l165 -176h-43z" />
    <glyph glyph-name="Gbreve" unicode="&#x11e;" horiz-adv-x="699" 
d="M385 327q33 -1 62 -1.5t58.5 -1t62 -0.5h71.5q-2 -30 -3 -58t-1.5 -58.5t-0.5 -66.5v-82q-27 -19 -59.5 -32.5t-66.5 -22t-68 -12.5t-64 -4q-73 0 -134 26t-105.5 73t-69 111.5t-24.5 141.5q0 73 26 138.5t72 115t109.5 78t137.5 28.5q27 0 59.5 -7.5t64 -21t59 -32.5
t43.5 -43q9 -14 15 -27t6 -30t-12 -28t-27 -11q-17 0 -29.5 12t-12.5 29q0 10 4.5 17t12.5 13q-11 22 -32 38.5t-46.5 27.5t-53.5 17t-54 6q-61 0 -111 -27.5t-85.5 -72.5t-55 -101.5t-19.5 -114.5q0 -69 20.5 -127.5t58 -100.5t89 -65.5t113.5 -23.5q19 0 41.5 2.5t46 8
t46.5 13.5t43 20l-1 213h-48t-43.5 -0.5t-44.5 -1t-50 -1.5q2 6 2 12v12v11t-2 11zM524 864q-5 -21 -14.5 -41.5t-26 -37t-39.5 -26.5t-55 -10t-55.5 10t-39.5 26.5t-25 37t-13 41.5h33q10 -39 38 -59.5t62 -20.5q35 0 61.5 20.5t37.5 59.5h36z" />
    <glyph glyph-name="gbreve" unicode="&#x11f;" horiz-adv-x="537" 
d="M401 416q24 -23 38 -51.5t14 -61.5q0 -34 -15.5 -64.5t-42.5 -53.5t-63 -36.5t-78 -13.5h-17t-16 2q-13 -3 -28.5 -8t-29 -12.5t-22.5 -18.5t-9 -26q0 -21 29.5 -34t73.5 -23t95.5 -20t95.5 -25.5t73.5 -39.5t29.5 -61t-23 -63t-60 -42.5t-84 -24.5t-94 -8t-91 8.5
t-78.5 25.5t-55.5 43t-21 61q0 18 9 37t25 35.5t38.5 30t49.5 21.5q-13 4 -26.5 11.5t-24.5 17.5t-18 21.5t-7 24.5q0 15 8.5 28.5t22 24.5t31.5 19.5t37 12.5q-51 20 -81 60.5t-30 89.5q0 34 15.5 65t42 54t62.5 36.5t78 13.5q55 0 101 -23q38 -1 74 0t73 2
q-1 -5 -1.5 -9.5t-0.5 -9.5t0.5 -9t1.5 -9zM201 -23q-12 -2 -32 -7.5t-38.5 -17t-32 -30t-13.5 -46.5q0 -29 17.5 -49.5t44.5 -34t59.5 -19.5t63.5 -6q32 0 67 5t63.5 17t47 31.5t18.5 49.5q0 16 -13.5 29.5t-36 23.5t-50.5 18.5t-57.5 14.5t-57.5 11t-50 10zM390 303
q0 24 -8.5 47.5t-25 42.5t-42.5 30.5t-60 11.5t-59.5 -11.5t-42 -30.5t-25 -42.5t-8.5 -47.5t8.5 -47t25 -42t42 -30.5t59.5 -11.5t60 11.5t42.5 30.5t25 42t8.5 47zM390 664q-5 -21 -14.5 -41.5t-26 -37t-39.5 -26.5t-55 -10t-55.5 10t-39.5 26.5t-25 37t-13 41.5h33
q10 -39 38 -59.5t62 -20.5q35 0 61.5 20.5t37.5 59.5h36z" />
    <glyph glyph-name="Gdotaccent" unicode="&#x120;" horiz-adv-x="699" 
d="M385 327q33 -1 62 -1.5t58.5 -1t62 -0.5h71.5q-2 -30 -3 -58t-1.5 -58.5t-0.5 -66.5v-82q-27 -19 -59.5 -32.5t-66.5 -22t-68 -12.5t-64 -4q-73 0 -134 26t-105.5 73t-69 111.5t-24.5 141.5q0 73 26 138.5t72 115t109.5 78t137.5 28.5q27 0 59.5 -7.5t64 -21t59 -32.5
t43.5 -43q9 -14 15 -27t6 -30t-12 -28t-27 -11q-17 0 -29.5 12t-12.5 29q0 10 4.5 17t12.5 13q-11 22 -32 38.5t-46.5 27.5t-53.5 17t-54 6q-61 0 -111 -27.5t-85.5 -72.5t-55 -101.5t-19.5 -114.5q0 -69 20.5 -127.5t58 -100.5t89 -65.5t113.5 -23.5q19 0 41.5 2.5t46 8
t46.5 13.5t43 20l-1 213h-48t-43.5 -0.5t-44.5 -1t-50 -1.5q2 6 2 12v12v11t-2 11zM424 784q0 -14 -11 -24t-25 -10q-16 0 -26 10t-10 24q0 15 10 25t26 10q14 0 25 -10t11 -25z" />
    <glyph glyph-name="gdotaccent" unicode="&#x121;" horiz-adv-x="537" 
d="M401 416q24 -23 38 -51.5t14 -61.5q0 -34 -15.5 -64.5t-42.5 -53.5t-63 -36.5t-78 -13.5h-17t-16 2q-13 -3 -28.5 -8t-29 -12.5t-22.5 -18.5t-9 -26q0 -21 29.5 -34t73.5 -23t95.5 -20t95.5 -25.5t73.5 -39.5t29.5 -61t-23 -63t-60 -42.5t-84 -24.5t-94 -8t-91 8.5
t-78.5 25.5t-55.5 43t-21 61q0 18 9 37t25 35.5t38.5 30t49.5 21.5q-13 4 -26.5 11.5t-24.5 17.5t-18 21.5t-7 24.5q0 15 8.5 28.5t22 24.5t31.5 19.5t37 12.5q-51 20 -81 60.5t-30 89.5q0 34 15.5 65t42 54t62.5 36.5t78 13.5q55 0 101 -23q38 -1 74 0t73 2
q-1 -5 -1.5 -9.5t-0.5 -9.5t0.5 -9t1.5 -9zM201 -23q-12 -2 -32 -7.5t-38.5 -17t-32 -30t-13.5 -46.5q0 -29 17.5 -49.5t44.5 -34t59.5 -19.5t63.5 -6q32 0 67 5t63.5 17t47 31.5t18.5 49.5q0 16 -13.5 29.5t-36 23.5t-50.5 18.5t-57.5 14.5t-57.5 11t-50 10zM390 303
q0 24 -8.5 47.5t-25 42.5t-42.5 30.5t-60 11.5t-59.5 -11.5t-42 -30.5t-25 -42.5t-8.5 -47.5t8.5 -47t25 -42t42 -30.5t59.5 -11.5t60 11.5t42.5 30.5t25 42t8.5 47zM290 584q0 -14 -11 -24t-25 -10q-16 0 -26 10t-10 24q0 15 10 25t26 10q14 0 25 -10t11 -25z" />
    <glyph glyph-name="uni0122" unicode="&#x122;" horiz-adv-x="699" 
d="M385 327q33 -1 62 -1.5t58.5 -1t62 -0.5h71.5q-2 -30 -3 -58t-1.5 -58.5t-0.5 -66.5v-82q-27 -19 -59.5 -32.5t-66.5 -22t-68 -12.5t-64 -4q-73 0 -134 26t-105.5 73t-69 111.5t-24.5 141.5q0 73 26 138.5t72 115t109.5 78t137.5 28.5q27 0 59.5 -7.5t64 -21t59 -32.5
t43.5 -43q9 -14 15 -27t6 -30t-12 -28t-27 -11q-17 0 -29.5 12t-12.5 29q0 10 4.5 17t12.5 13q-11 22 -32 38.5t-46.5 27.5t-53.5 17t-54 6q-61 0 -111 -27.5t-85.5 -72.5t-55 -101.5t-19.5 -114.5q0 -69 20.5 -127.5t58 -100.5t89 -65.5t113.5 -23.5q19 0 41.5 2.5t46 8
t46.5 13.5t43 20l-1 213h-48t-43.5 -0.5t-44.5 -1t-50 -1.5q2 6 2 12v12v11t-2 11zM286 -350q17 63 29 106t25 73q8 18 28 18q13 0 22.5 -7.5t11.5 -19.5q1 -3 1.5 -5.5t-0.5 -7.5q-2 -6 -7 -16t-16.5 -29t-30.5 -48t-47 -72z" />
    <glyph glyph-name="uni0123" unicode="&#x123;" horiz-adv-x="537" 
d="M401 416q24 -23 38 -51.5t14 -61.5q0 -34 -15.5 -64.5t-42.5 -53.5t-63 -36.5t-78 -13.5h-17t-16 2q-13 -3 -28.5 -8t-29 -12.5t-22.5 -18.5t-9 -26q0 -21 29.5 -34t73.5 -23t95.5 -20t95.5 -25.5t73.5 -39.5t29.5 -61t-23 -63t-60 -42.5t-84 -24.5t-94 -8t-91 8.5
t-78.5 25.5t-55.5 43t-21 61q0 18 9 37t25 35.5t38.5 30t49.5 21.5q-13 4 -26.5 11.5t-24.5 17.5t-18 21.5t-7 24.5q0 15 8.5 28.5t22 24.5t31.5 19.5t37 12.5q-51 20 -81 60.5t-30 89.5q0 34 15.5 65t42 54t62.5 36.5t78 13.5q55 0 101 -23q38 -1 74 0t73 2
q-1 -5 -1.5 -9.5t-0.5 -9.5t0.5 -9t1.5 -9zM201 -23q-12 -2 -32 -7.5t-38.5 -17t-32 -30t-13.5 -46.5q0 -29 17.5 -49.5t44.5 -34t59.5 -19.5t63.5 -6q32 0 67 5t63.5 17t47 31.5t18.5 49.5q0 16 -13.5 29.5t-36 23.5t-50.5 18.5t-57.5 14.5t-57.5 11t-50 10zM390 303
q0 24 -8.5 47.5t-25 42.5t-42.5 30.5t-60 11.5t-59.5 -11.5t-42 -30.5t-25 -42.5t-8.5 -47.5t8.5 -47t25 -42t42 -30.5t59.5 -11.5t60 11.5t42.5 30.5t25 42t8.5 47zM303 596q17 63 29.5 106t25.5 73q3 8 9.5 13t18.5 5q15 0 26.5 -11.5t6.5 -27.5q-2 -6 -7 -16.5t-16.5 -29
t-29.5 -47.5t-46 -72z" />
    <glyph glyph-name="Hcircumflex" unicode="&#x124;" horiz-adv-x="625" 
d="M477 0q2 37 3.5 79.5t2 86.5t1 87.5t0.5 81.5q-43 2 -85.5 2h-85.5h-86.5t-85.5 -2v-81.5t1 -87.5t2 -86.5t3 -79.5q-18 3 -37 3q-16 0 -34 -3q2 38 3.5 82t2 89t0.5 89.5v82.5v82t-0.5 89.5t-2 89.5t-3.5 82q18 -3 34 -3q19 0 37 3q-2 -34 -3 -73.5t-2 -80.5t-1 -82v-78
q85 -3 171 -3t172 3q0 37 -0.5 78l-1 82t-2 80.5t-3.5 73.5q18 -3 36 -3q15 0 36 3q-2 -38 -3.5 -82t-2.5 -89.5t-1 -89.5v-82v-82.5t1 -89.5t2.5 -89t3.5 -82q-21 3 -36 3q-18 0 -36 -3zM434 776l-122 111l-121 -111h-43l164 176l165 -176h-43z" />
    <glyph glyph-name="hcircumflex" unicode="&#x125;" horiz-adv-x="540" 
d="M488 230v-54.5t0.5 -60.5t1 -60.5t2.5 -54.5q-15 3 -32 3q-9 0 -17.5 -1t-16.5 -2q1 25 2 54.5t1.5 60t0.5 60v55.5v19q0 33 -7 66t-23.5 59.5t-44.5 43t-70 16.5q-30 0 -57.5 -12t-49 -32t-35.5 -47t-17 -57q0 -72 1 -148t3 -138q-9 1 -17 2t-16 1t-17 -1t-17 -2
q2 38 3 84.5t2 95t1 96v87.5v99t-1 107t-3.5 94.5t-7.5 62.5q17 0 36 2.5t38 7.5q-2 -41 -2.5 -89.5t-1.5 -98.5t-1 -98v-86q10 25 28 45t40.5 34t48.5 21.5t52 7.5q42 0 77 -13.5t61 -41t40.5 -69.5t14.5 -99v-19zM218 758l-122 111l-121 -111h-43l164 176l165 -176h-43z
" />
    <glyph glyph-name="Hbar" unicode="&#x126;" horiz-adv-x="636" 
d="M489 335q-39 1 -78 1h-77h-94t-94 -1v-81.5t0.5 -87.5t2 -86.5t3.5 -79.5q-20 3 -37 3q-16 0 -34 -3q2 38 3 82t2 89t1 89.5v82.5v87t-1 95q-20 -1 -39 -1.5t-32 -0.5q1 5 1 9v9v9.5t-1 9.5q14 -1 31.5 -1h38.5q-1 33 -1.5 65.5t-2.5 61.5q9 -2 17.5 -2h16.5h18.5t18.5 2
q-2 -29 -3 -61.5t-2 -67.5h339q-1 35 -1.5 67t-2.5 62q9 -2 18 -2h18q8 0 16.5 0.5t19.5 1.5q-2 -29 -3 -61t-2 -66h37t30 1v-37q-12 0 -30 0.5t-38 0.5q-2 -48 -1.5 -94.5t0.5 -86.5v-82.5t1 -89.5t2.5 -89t3.5 -82q-21 3 -36 3q-18 0 -36 -3q2 37 3.5 79.5t2 86.5t1 87.5
t0.5 81.5zM146 525v-153q48 -1 96 -1.5t96 -0.5q38 0 75.5 0.5t75.5 1.5l-2 153h-341z" />
    <glyph glyph-name="hbar" unicode="&#x127;" horiz-adv-x="540" 
d="M263 548q-34 1 -68 1h-68q-1 -51 -1 -99v-86q10 25 28 45t40.5 34t48.5 21.5t52 7.5q42 0 77 -13.5t61 -41t40.5 -69.5t14.5 -99v-19v-54.5t0.5 -60.5t1 -60.5t2.5 -54.5q-15 3 -32 3q-9 0 -17.5 -1t-16.5 -2q1 25 2 54.5t1.5 60t0.5 60v55.5v19q0 33 -7 66t-23.5 59.5
t-44.5 43t-70 16.5q-30 0 -57.5 -12t-49 -32t-35.5 -47t-17 -57q0 -72 1 -148t3 -138q-9 1 -17 2t-16 1t-17 -1t-17 -2q2 38 3 84.5t2 95t1 96v87.5v89t-1 97h-67.5t-66.5 -1v37q42 -1 72.5 -1.5t60.5 -0.5q-1 48 -3 86t-7 57q17 0 36 2.5t38 7.5q-2 -34 -2.5 -72.5
t-1.5 -80.5q30 0 61.5 0.5t74.5 1.5v-37z" />
    <glyph glyph-name="Itilde" unicode="&#x128;" horiz-adv-x="209" 
d="M77 0q2 38 3.5 82t2 89t0.5 89.5v82.5v82t-0.5 89.5t-2 89.5t-3.5 82q18 -3 34 -3q19 0 37 3q-2 -38 -3 -82t-2 -89.5t-1 -89.5v-82v-82.5t1 -89.5t2 -89t3 -82q-18 3 -37 3q-16 0 -34 -3zM265 842q-8 -35 -32 -60.5t-66 -25.5q-17 0 -36 7t-38.5 15t-38.5 15t-36 7
q-18 0 -36.5 -10t-24.5 -39l-29 9q7 31 32.5 57t68.5 26q17 0 35 -7t36 -16t36 -16t35 -7q18 0 37 11t29 41z" />
    <glyph glyph-name="itilde" unicode="&#x129;" horiz-adv-x="224" 
d="M279 636q-8 -35 -32 -60.5t-66 -25.5q-17 0 -36 7t-38.5 15t-38.5 15t-36 7q-18 0 -36.5 -10t-24.5 -39l-29 9q7 31 32.5 57t68.5 26q17 0 35 -7t36 -16t36 -16t35 -7q18 0 37 11t29 41zM78 0q5 51 5.5 111t0.5 113q0 35 -0.5 69.5t-1 65.5t-2.5 56t-5 41q18 -1 37 0
t37 7q-3 -51 -4.5 -111.5t-1.5 -120.5q0 -54 1 -116.5t5 -114.5q-10 1 -18 2t-17 1t-18 -1z" />
    <glyph glyph-name="Imacron" unicode="&#x12a;" horiz-adv-x="221" 
d="M79 0q2 38 3.5 82t2 89t0.5 89.5v82.5v82t-0.5 89.5t-2 89.5t-3.5 82q18 -3 34 -3q19 0 37 3q-2 -38 -3 -82t-2 -89.5t-1 -89.5v-82v-82.5t1 -89.5t2 -89t3 -82q-18 3 -37 3q-16 0 -34 -3zM273 766q-41 1 -82.5 1h-81.5h-82.5t-82.5 -1v37q52 -1 88.5 -1.5t76.5 -0.5
h37.5t38 0.5t41 1t47.5 0.5v-37z" />
    <glyph glyph-name="imacron" unicode="&#x12b;" horiz-adv-x="224" 
d="M278 560q-41 1 -82.5 1h-81.5h-82.5t-82.5 -1v37q52 -1 88.5 -1.5t76.5 -0.5h37.5t38 0.5t41 1t47.5 0.5v-37zM78 0q5 51 5.5 111t0.5 113q0 35 -0.5 69.5t-1 65.5t-2.5 56t-5 41q18 -1 37 0t37 7q-3 -51 -4.5 -111.5t-1.5 -120.5q0 -54 1 -116.5t5 -114.5q-10 1 -18 2
t-17 1t-18 -1z" />
    <glyph glyph-name="Ibreve" unicode="&#x12c;" horiz-adv-x="218" 
d="M79 0q2 38 3.5 82t2 89t0.5 89.5v82.5v82t-0.5 89.5t-2 89.5t-3.5 82q18 -3 34 -3q19 0 37 3q-2 -38 -3 -82t-2 -89.5t-1 -89.5v-82v-82.5t1 -89.5t2 -89t3 -82q-18 3 -37 3q-16 0 -34 -3zM244 870q-5 -21 -14.5 -41.5t-26 -37t-39.5 -26.5t-55 -10t-55.5 10t-39.5 26.5
t-25 37t-13 41.5h33q10 -39 38 -59.5t62 -20.5q35 0 61.5 20.5t37.5 59.5h36z" />
    <glyph glyph-name="ibreve" unicode="&#x12d;" horiz-adv-x="224" 
d="M252 664q-5 -21 -14.5 -41.5t-26 -37t-39.5 -26.5t-55 -10t-55.5 10t-39.5 26.5t-25 37t-13 41.5h33q10 -39 38 -59.5t62 -20.5q35 0 61.5 20.5t37.5 59.5h36zM78 0q5 51 5.5 111t0.5 113q0 35 -0.5 69.5t-1 65.5t-2.5 56t-5 41q18 -1 37 0t37 7q-3 -51 -4.5 -111.5
t-1.5 -120.5q0 -54 1 -116.5t5 -114.5q-10 1 -18 2t-17 1t-18 -1z" />
    <glyph glyph-name="Iogonek" unicode="&#x12e;" horiz-adv-x="216" 
d="M216 -122q-20 -23 -53 -36t-64.5 -10.5t-55 22t-23.5 61.5q0 25 10.5 47.5t27.5 39.5q2 38 3.5 81.5t2 88.5t0.5 89v82v82t-0.5 89.5t-2 89.5t-3.5 82q18 -3 34 -3q19 0 37 3q-2 -38 -3 -82t-2 -89.5t-1 -89.5v-82v-82.5t1 -89.5t2 -89t3 -82l-23 3q-11 -15 -19 -32
t-8 -37q0 -30 17 -46.5t41 -16.5q16 0 33 5.5t33 16.5z" />
    <glyph glyph-name="iogonek" unicode="&#x12f;" horiz-adv-x="186" 
d="M212 -132q-20 -23 -53 -36t-64.5 -10.5t-55 22t-23.5 61.5q0 28 13.5 53t33.5 42h-6q4 51 5 111t1 113q0 35 -0.5 69.5t-1.5 65.5t-3 56t-5 41q18 -1 37 0q21 2 37 7q-3 -51 -4 -111.5t-1 -120.5q0 -54 0.5 -116.5t4.5 -114.5q-5 0 -9 0.5t-8 1.5q-14 -16 -24.5 -35.5
t-10.5 -42.5q0 -30 17 -46.5t41 -16.5q16 0 33 5.5t33 16.5zM131 623q0 -15 -11 -26.5t-27 -11.5q-15 0 -26 11.5t-11 26.5t11 25.5t26 10.5q16 0 27 -10.5t11 -25.5z" />
    <glyph glyph-name="Idotaccent" unicode="&#x130;" horiz-adv-x="223" 
d="M76 0q2 38 3.5 82t2 89t0.5 89.5v82.5v82t-0.5 89.5t-2 89.5t-3.5 82q18 -3 34 -3q19 0 37 3q-2 -38 -3 -82t-2 -89.5t-1 -89.5v-82v-82.5t1 -89.5t2 -89t3 -82q-18 3 -37 3q-16 0 -34 -3zM144 790q0 -14 -11 -24t-25 -10q-16 0 -26 10t-10 24q0 15 10 25t26 10
q14 0 25 -10t11 -25z" />
    <glyph glyph-name="dotlessi" unicode="&#x131;" horiz-adv-x="224" 
d="M78 0q5 51 5.5 111t0.5 113q0 35 -0.5 69.5t-1 65.5t-2.5 56t-5 41q18 -1 37 0t37 7q-3 -51 -4.5 -111.5t-1.5 -120.5q0 -54 1 -116.5t5 -114.5q-10 1 -18 2t-17 1t-18 -1z" />
    <glyph glyph-name="IJ" unicode="&#x132;" horiz-adv-x="635" 
d="M308 -255q16 22 31 46t26 54t18 68.5t7 91.5q0 36 0.5 79.5t0.5 88.5t0.5 88.5t0.5 81.5v82.5t-1 90t-2 89t-2 81.5q16 -3 34 -3t36 3q-2 -38 -3 -81.5t-2 -89t-1 -90v-82.5q0 -68 1.5 -145.5t1.5 -149.5q0 -14 0.5 -27t-0.5 -25q-1 -35 -6 -62.5t-18.5 -57t-39 -64
t-67.5 -82.5z" />
    <glyph glyph-name="ij" unicode="&#x133;" horiz-adv-x="366" 
d="M57 0q4 51 5 111t1 113q0 35 -0.5 69.5t-1.5 65.5t-3 56t-5 41q18 -1 37 0q21 2 37 7q-3 -51 -4 -111.5t-1 -120.5q0 -54 0.5 -116.5t4.5 -114.5q-10 1 -18 2t-16 1q-10 0 -18.5 -1t-17.5 -2zM131 623q0 -15 -11 -26.5t-27 -11.5q-15 0 -26 11.5t-11 26.5t11 25.5
t26 10.5q16 0 27 -10.5t11 -25.5zM164 -255q31 43 55.5 88t26.5 102q0 48 0.5 92t1.5 86q1 28 1 54.5v54.5q0 35 -1 69.5t-2 65.5t-2.5 56.5t-4.5 42.5q17 -1 36 0q21 2 37 7q-3 -50 -4 -112t-1 -120q0 -51 0.5 -94.5t0.5 -89.5q0 -26 0.5 -52t-1.5 -55q-1 -14 -5.5 -30.5
t-18 -40.5t-38 -57.5t-65.5 -81.5zM278 585q-16 0 -27 11.5t-11 26.5q0 16 11 26.5t27 10.5t27 -10.5t11 -26.5q0 -15 -11 -26.5t-27 -11.5z" />
    <glyph glyph-name="Jcircumflex" unicode="&#x134;" horiz-adv-x="235" 
d="M5 -255q16 22 31 46t26 54t18 68.5t7 91.5q0 36 0.5 79.5t0.5 88.5t0.5 88.5t0.5 81.5v82.5t-1 90t-2 89t-2 81.5q16 -3 34 -3t36 3q-2 -38 -3 -81.5t-2 -89t-1 -90v-82.5q0 -68 1.5 -145.5t1.5 -149.5q0 -14 0.5 -27t-0.5 -25q-1 -35 -6 -62.5t-18.5 -57t-39 -64
t-67.5 -82.5zM241 753l-122 111l-121 -111h-43l164 176l165 -176h-43z" />
    <glyph glyph-name="jcircumflex" unicode="&#x135;" horiz-adv-x="180" 
d="M-22 -255q31 43 55.5 88t25.5 102l2 178q1 28 1 54.5v54.5q0 35 -0.5 69.5t-1.5 65.5t-3 56.5t-5 42.5q18 -1 37 0q22 2 38 7q-3 -50 -4 -112t-1 -120q0 -51 0.5 -94.5t0.5 -89.5v-52t-1 -55q-2 -14 -6.5 -30.5t-18 -40.5t-38 -57.5t-65.5 -81.5zM211 547l-122 111
l-121 -111h-43l164 176l165 -176h-43z" />
    <glyph glyph-name="uni0136" unicode="&#x136;" horiz-adv-x="615" 
d="M586 -9q-38 16 -71 32.5t-64.5 36t-61.5 43.5t-62 56l-189 181q0 -91 1 -180.5t4 -159.5q-18 3 -36 3t-34 -3q1 38 2 82t2 89t1 89.5v82.5v82t-1 89.5t-2 89.5t-2 82q8 -2 17 -2h17h18t18 2q-2 -35 -2.5 -76t-1.5 -84.5t-1 -87.5v-85q81 81 163.5 161t171.5 172
q18 -3 30 -3q13 0 34 3l-336 -322q85 -85 166 -163q30 -31 56.5 -57.5t53 -50t55.5 -44.5t64 -41zM239 -350q17 63 29 106t25 73q8 18 28 18q13 0 22.5 -7.5t11.5 -19.5q1 -3 1.5 -5.5t-0.5 -7.5q-2 -6 -7 -16t-16.5 -29t-30.5 -48t-47 -72z" />
    <glyph glyph-name="uni0137" unicode="&#x137;" horiz-adv-x="477" 
d="M451 -15q-61 28 -104.5 58.5t-80.5 72.5l-140 153q0 -69 1 -140t3 -129q-9 1 -17 2t-16 1t-17 -1t-17 -2q2 38 3 84.5t2 95t1 96v87.5v99t-1 107t-3.5 94.5t-7.5 62.5q17 0 36 2.5t38 7.5q-2 -41 -3 -89.5t-1.5 -99t-0.5 -99.5v-90v-80l253 193q16 -3 35 -3q16 0 36 3
q-29 -21 -62.5 -45t-68 -49t-68 -49.5t-62.5 -46.5q24 -24 49.5 -52t51.5 -55.5t52 -53.5t50 -46q19 -26 35.5 -41.5t36.5 -28.5zM175 -350q17 63 29 106t25 73q8 18 28 18q13 0 22.5 -7.5t11.5 -19.5q1 -3 1.5 -5.5t-0.5 -7.5q-2 -6 -7 -16t-16.5 -29t-30.5 -48t-47 -72z
" />
    <glyph glyph-name="Lacute" unicode="&#x139;" horiz-adv-x="478" 
d="M473 -3q-78 2 -146.5 4t-135.5 2q-57 0 -115 -3q2 38 3.5 82t2 89t0.5 89.5v82.5v82t-0.5 89.5t-2 89.5t-3.5 82q9 -2 18 -2h17h18t19 2q-2 -38 -3.5 -82t-2 -89.5t-0.5 -89.5v-82v-71.5t0.5 -78t1 -78.5t2.5 -75h79t88.5 0.5t86.5 1.5t73 3v-48zM125 755h-24l108 140
q10 15 27.5 33.5t36.5 18.5q14 0 23.5 -8t9.5 -21q0 -2 -1 -5.5t-5.5 -8.5t-13.5 -13.5t-25 -21.5z" />
    <glyph glyph-name="lacute" unicode="&#x13a;" horiz-adv-x="188" 
d="M149 721h-19q-2 -41 -3 -88t-1 -95v-94.5v-85.5v-85.5t0.5 -94t1 -93.5t2.5 -85q-9 1 -17 2t-16 1t-17 -1t-17 -2q2 38 3 84.5t2 95t1 96v87.5v99t-1 107t-3.5 94.5t-7.5 62.5q17 0 36 2.5t38 7.5q0 -2 -0.5 -4t-0.5 -4l103 133q10 15 27.5 33.5t36.5 18.5q14 0 23.5 -8
t9.5 -21q0 -2 -1 -5.5t-5.5 -8.5t-13.5 -13.5t-25 -21.5z" />
    <glyph glyph-name="uni013B" unicode="&#x13b;" horiz-adv-x="478" 
d="M473 -3q-78 2 -146.5 4t-135.5 2q-57 0 -115 -3q2 38 3.5 82t2 89t0.5 89.5v82.5v82t-0.5 89.5t-2 89.5t-3.5 82q9 -2 18 -2h17h18t19 2q-2 -38 -3.5 -82t-2 -89.5t-0.5 -89.5v-82v-71.5t0.5 -78t1 -78.5t2.5 -75h79t88.5 0.5t86.5 1.5t73 3v-48zM176 -350q17 63 29 106
t25 73q8 18 28 18q13 0 22.5 -7.5t11.5 -19.5q1 -3 1.5 -5.5t-0.5 -7.5q-2 -6 -7 -16t-16.5 -29t-30.5 -48t-47 -72z" />
    <glyph glyph-name="uni013C" unicode="&#x13c;" horiz-adv-x="188" 
d="M63 0q2 38 3 84.5t2 95t1 96v87.5v99t-1 107t-3.5 94.5t-7.5 62.5q17 0 36 2.5t38 7.5q-2 -41 -3 -89.5t-1.5 -99t-0.5 -99.5v-90v-85.5t0.5 -94t1 -93.5t2.5 -85q-9 1 -17 2t-16 1t-17 -1t-17 -2zM31 -350q17 63 29 106t25 73q8 18 28 18q13 0 22.5 -7.5t11.5 -19.5
q1 -3 1.5 -5.5t-0.5 -7.5q-2 -6 -7 -16t-16.5 -29t-30.5 -48t-47 -72z" />
    <glyph glyph-name="Lcaron" unicode="&#x13d;" horiz-adv-x="478" 
d="M473 -3q-78 2 -146.5 4t-135.5 2q-57 0 -115 -3q2 38 3.5 82t2 89t0.5 89.5v82.5v82t-0.5 89.5t-2 89.5t-3.5 82q9 -2 18 -2h17h18t19 2q-2 -38 -3.5 -82t-2 -89.5t-0.5 -89.5v-82v-71.5t0.5 -78t1 -78.5t2.5 -75h79t88.5 0.5t86.5 1.5t73 3v-48zM204 694q17 63 29.5 106
t25.5 73q3 8 9.5 13t18.5 5q15 0 26.5 -11.5t6.5 -27.5q-2 -6 -7 -16.5t-16.5 -29t-29.5 -47.5t-46 -72z" />
    <glyph glyph-name="lcaron" unicode="&#x13e;" horiz-adv-x="429" 
d="M63 0q2 38 3 84.5t2 95t1 96v87.5v99t-1 107t-3.5 94.5t-7.5 62.5q17 0 36 2.5t38 7.5q-2 -41 -3 -89.5t-1.5 -99t-0.5 -99.5v-90v-85.5t0.5 -94t1 -93.5t2.5 -85q-9 1 -17 2t-16 1t-17 -1t-17 -2zM245 523q17 63 29.5 106t25.5 73q3 8 9.5 13t18.5 5q15 0 26.5 -11.5
t6.5 -27.5q-2 -6 -7 -16.5t-16.5 -29t-29.5 -47.5t-46 -72z" />
    <glyph glyph-name="Ldot" unicode="&#x13f;" horiz-adv-x="478" 
d="M473 -3q-78 2 -146.5 4t-135.5 2q-57 0 -115 -3q2 38 3.5 82t2 89t0.5 89.5v82.5v82t-0.5 89.5t-2 89.5t-3.5 82q9 -2 18 -2h17h18t19 2q-2 -38 -3.5 -82t-2 -89.5t-0.5 -89.5v-82v-71.5t0.5 -78t1 -78.5t2.5 -75h79t88.5 0.5t86.5 1.5t73 3v-48zM308 487q0 -15 -11 -26
t-27 -11t-27 11t-11 26q0 16 11 26t27 10t27 -10t11 -26z" />
    <glyph glyph-name="ldot" unicode="&#x140;" horiz-adv-x="392" 
d="M63 0q2 38 3 84.5t2 95t1 96v87.5v99t-1 107t-3.5 94.5t-7.5 62.5q17 0 36 2.5t38 7.5q-2 -41 -3 -89.5t-1.5 -99t-0.5 -99.5v-90v-85.5t0.5 -94t1 -93.5t2.5 -85q-9 1 -17 2t-16 1t-17 -1t-17 -2zM328 307q0 -15 -11 -26t-27 -11t-27 11t-11 26q0 16 11 26t27 10t27 -10
t11 -26z" />
    <glyph glyph-name="Lslash" unicode="&#x141;" horiz-adv-x="501" 
d="M496 -3q-72 2 -137.5 3.5t-129.5 1.5h-76q-14 0 -27 -0.5t-27 -1.5q3 60 4 131t2 139q-42 -38 -80 -75t-76 -72q1 7 1.5 13t0.5 12q0 7 -0.5 13.5t-1.5 13.5q30 26 72.5 65.5t83.5 77.5v86t-1 96t-2 97t-3 89q8 -2 17.5 -2h17.5h17t19 2q-2 -35 -3 -76t-2 -83.5t-1 -84
v-78.5l159 152q-1 -7 -1.5 -13.5t-0.5 -13.5q0 -6 0.5 -12.5t1.5 -13.5l-159 -148q0 -64 0.5 -137t3.5 -138h79t89 0.5t86.5 1.5t73.5 3v-48z" />
    <glyph glyph-name="lslash" unicode="&#x142;" horiz-adv-x="232" 
d="M-70 193q1 7 1.5 13t0.5 12q0 7 -0.5 13.5t-1.5 13.5q16 13 35.5 30.5t40.5 37t42.5 40t42.5 40.5v94t-1 98t-3.5 85t-6.5 56q17 0 35.5 2.5t37.5 7.5q-2 -32 -2.5 -69.5t-1.5 -76.5t-1 -78v-75q50 48 89.5 86.5t64.5 61.5q-1 -7 -1 -13.5v-13.5v-13.5t1 -13.5
q-15 -13 -33.5 -30t-38.5 -35.5t-41 -38.5t-41 -39v-30v-85.5t0.5 -94t1 -93.5t2.5 -85q-9 1 -17 2t-16 1t-17 -1t-17 -2q2 36 3 80t2 90t1 91v84q-44 -41 -83.5 -78t-77.5 -74z" />
    <glyph glyph-name="Nacute" unicode="&#x143;" 
d="M663 0q-8 1 -14.5 1h-12.5h-11.5t-13.5 -1q-116 152 -236.5 302t-251.5 304q-1 -75 -1 -141v-122v-82.5t0.5 -89.5t1.5 -89t2 -82q-8 1 -14.5 1h-12.5h-12t-14 -1q2 38 3 82t2 89t1 89.5v82.5v82.5t-1 90t-2 89t-3 81.5q10 -2 16.5 -2h12.5h12.5t17.5 2
q69 -85 131.5 -162t121 -149.5t115 -142.5t113.5 -142q2 61 2 129v124v82.5t-0.5 90t-1.5 89t-2 81.5q9 -2 15 -2h11h11t17 2q-5 -108 -5.5 -192.5t-0.5 -150.5v-82.5t0.5 -89.5t1.5 -89t2 -82zM380 755h-24l108 140q10 15 27.5 33.5t36.5 18.5q14 0 23.5 -8t9.5 -21
q0 -2 -1 -5.5t-5.5 -8.5t-13.5 -13.5t-25 -21.5z" />
    <glyph glyph-name="nacute" unicode="&#x144;" horiz-adv-x="537" 
d="M485 230v-54.5t0.5 -60.5t1 -60.5t2.5 -54.5q-15 3 -32 3q-9 0 -17.5 -1t-16.5 -2q1 25 2 54.5t1.5 60t0.5 60v55.5v19q0 33 -7 66t-23.5 59.5t-44.5 43t-70 16.5q-31 0 -58.5 -12t-49 -32.5t-35 -48t-17.5 -57.5v-53q0 -59 1 -121t4 -110q-20 3 -34 3q-17 0 -35 -3
q1 24 2 52.5t2 58t1 58.5v54q0 35 -0.5 69.5t-1.5 64.5t-3 54t-5 38q15 0 34.5 3.5t39.5 11.5q-2 -22 -2.5 -46.5t-1.5 -50.5q10 24 28 43.5t41 33t48.5 21t51.5 7.5q42 0 77 -13.5t61 -41t40.5 -69.5t14.5 -99v-19zM293 549h-24l108 140q10 15 27.5 33.5t36.5 18.5
q14 0 23.5 -8t9.5 -21q0 -2 -1 -5.5t-5.5 -8.5t-13.5 -13.5t-25 -21.5z" />
    <glyph glyph-name="uni0145" unicode="&#x145;" 
d="M663 0q-8 1 -14.5 1h-12.5h-11.5t-13.5 -1q-116 152 -236.5 302t-251.5 304q-1 -75 -1 -141v-122v-82.5t0.5 -89.5t1.5 -89t2 -82q-8 1 -14.5 1h-12.5h-12t-14 -1q2 38 3 82t2 89t1 89.5v82.5v82.5t-1 90t-2 89t-3 81.5q10 -2 16.5 -2h12.5h12.5t17.5 2
q69 -85 131.5 -162t121 -149.5t115 -142.5t113.5 -142q2 61 2 129v124v82.5t-0.5 90t-1.5 89t-2 81.5q9 -2 15 -2h11h11t17 2q-5 -108 -5.5 -192.5t-0.5 -150.5v-82.5t0.5 -89.5t1.5 -89t2 -82zM305 -350q17 63 29 106t25 73q8 18 28 18q13 0 22.5 -7.5t11.5 -19.5
q1 -3 1.5 -5.5t-0.5 -7.5q-2 -6 -7 -16t-16.5 -29t-30.5 -48t-47 -72z" />
    <glyph glyph-name="uni0146" unicode="&#x146;" horiz-adv-x="537" 
d="M485 230v-54.5t0.5 -60.5t1 -60.5t2.5 -54.5q-15 3 -32 3q-9 0 -17.5 -1t-16.5 -2q1 25 2 54.5t1.5 60t0.5 60v55.5v19q0 33 -7 66t-23.5 59.5t-44.5 43t-70 16.5q-31 0 -58.5 -12t-49 -32.5t-35 -48t-17.5 -57.5v-53q0 -59 1 -121t4 -110q-20 3 -34 3q-17 0 -35 -3
q1 24 2 52.5t2 58t1 58.5v54q0 35 -0.5 69.5t-1.5 64.5t-3 54t-5 38q15 0 34.5 3.5t39.5 11.5q-2 -22 -2.5 -46.5t-1.5 -50.5q10 24 28 43.5t41 33t48.5 21t51.5 7.5q42 0 77 -13.5t61 -41t40.5 -69.5t14.5 -99v-19zM205 -350q17 63 29 106t25 73q8 18 28 18q13 0 22.5 -7.5
t11.5 -19.5q1 -3 1.5 -5.5t-0.5 -7.5q-2 -6 -7 -16t-16.5 -29t-30.5 -48t-47 -72z" />
    <glyph glyph-name="Ncaron" unicode="&#x147;" 
d="M663 0q-8 1 -14.5 1h-12.5h-11.5t-13.5 -1q-116 152 -236.5 302t-251.5 304q-1 -75 -1 -141v-122v-82.5t0.5 -89.5t1.5 -89t2 -82q-8 1 -14.5 1h-12.5h-12t-14 -1q2 38 3 82t2 89t1 89.5v82.5v82.5t-1 90t-2 89t-3 81.5q10 -2 16.5 -2h12.5h12.5t17.5 2
q69 -85 131.5 -162t121 -149.5t115 -142.5t113.5 -142q2 61 2 129v124v82.5t-0.5 90t-1.5 89t-2 81.5q9 -2 15 -2h11h11t17 2q-5 -108 -5.5 -192.5t-0.5 -150.5v-82.5t0.5 -89.5t1.5 -89t2 -82zM244 902l35 3l99 -88l97 88l37 -3l-134 -147z" />
    <glyph glyph-name="ncaron" unicode="&#x148;" horiz-adv-x="537" 
d="M485 230v-54.5t0.5 -60.5t1 -60.5t2.5 -54.5q-15 3 -32 3q-9 0 -17.5 -1t-16.5 -2q1 25 2 54.5t1.5 60t0.5 60v55.5v19q0 33 -7 66t-23.5 59.5t-44.5 43t-70 16.5q-31 0 -58.5 -12t-49 -32.5t-35 -48t-17.5 -57.5v-53q0 -59 1 -121t4 -110q-20 3 -34 3q-17 0 -35 -3
q1 24 2 52.5t2 58t1 58.5v54q0 35 -0.5 69.5t-1.5 64.5t-3 54t-5 38q15 0 34.5 3.5t39.5 11.5q-2 -22 -2.5 -46.5t-1.5 -50.5q10 24 28 43.5t41 33t48.5 21t51.5 7.5q42 0 77 -13.5t61 -41t40.5 -69.5t14.5 -99v-19zM147 696l35 3l99 -88l97 88l37 -3l-134 -147z" />
    <glyph glyph-name="napostrophe" unicode="&#x149;" horiz-adv-x="537" 
d="M485 230v-54.5t0.5 -60.5t1 -60.5t2.5 -54.5q-15 3 -32 3q-9 0 -17.5 -1t-16.5 -2q1 25 2 54.5t1.5 60t0.5 60v55.5v19q0 33 -7 66t-23.5 59.5t-44.5 43t-70 16.5q-31 0 -58.5 -12t-49 -32.5t-35 -48t-17.5 -57.5v-53q0 -59 1 -121t4 -110q-20 3 -34 3q-17 0 -35 -3
q1 24 2 52.5t2 58t1 58.5v54q0 35 -0.5 69.5t-1.5 64.5t-3 54t-5 38q15 0 34.5 3.5t39.5 11.5q-2 -22 -2.5 -46.5t-1.5 -50.5q10 24 28 43.5t41 33t48.5 21t51.5 7.5q42 0 77 -13.5t61 -41t40.5 -69.5t14.5 -99v-19zM53 508q17 63 29 106t25 73q8 18 28 18q13 0 22.5 -7.5
t11.5 -19.5q1 -3 1.5 -5.5t-0.5 -7.5q-2 -6 -7 -16t-16.5 -29t-30.5 -48t-47 -72z" />
    <glyph glyph-name="Eng" unicode="&#x14a;" 
d="M526 -255q16 22 31 45.5t26 53.5t18 68.5t7 90.5q-115 151 -235 300.5t-250 302.5q-1 -75 -1 -141v-122v-82.5t0.5 -89.5t1.5 -89t2 -82l-27 1l-26 -1q2 38 3 82t2 89t1 89.5v82.5v82.5t-1 90t-2 89t-3 81.5q10 -2 16.5 -2h12.5h12.5t17.5 2q68 -84 130 -160.5
t120 -148.5t114 -141.5t113 -140.5q0 61 1 126.5t1 121.5v82.5t-1 90t-2 89t-3 81.5q9 -1 17.5 -1.5t17.5 -0.5t18 0.5t18 1.5q-3 -62 -4.5 -117t-1.5 -108v-118q0 -66 1.5 -140.5t1.5 -143.5v-63q-1 -35 -6 -62.5t-18.5 -57t-39 -64t-67.5 -82.5z" />
    <glyph glyph-name="eng" unicode="&#x14b;" horiz-adv-x="537" 
d="M485 230q0 -62 1.5 -137t-0.5 -153q-2 -14 -6.5 -30.5t-18 -40.5t-38 -57.5t-65.5 -81.5l-16 15q21 29 36 54.5t24.5 52.5t14.5 60t5 77q1 51 3 109.5t2 131.5v19q0 33 -7 66t-23.5 59.5t-44.5 43t-70 16.5q-31 0 -58.5 -12t-49 -32.5t-35 -48t-17.5 -57.5v-53
q0 -59 1 -121t4 -110q-20 3 -34 3q-17 0 -35 -3q1 24 2 52.5t2 58t1 58.5v54q0 35 -0.5 69.5t-1.5 64.5t-3 54t-5 38q15 0 34.5 3.5t39.5 11.5q-2 -22 -2.5 -46.5t-1.5 -50.5q20 47 66 75t96 30h17.5t16.5 -2q37 -4 67.5 -19.5t52.5 -43t34 -67t12 -91.5v-19z" />
    <glyph glyph-name="Omacron" unicode="&#x14c;" 
d="M368 -11q-60 0 -118.5 21.5t-104.5 65.5t-74 110.5t-28 157.5q0 89 28 156t74 111.5t104.5 66.5t118.5 22q59 0 117.5 -22.5t105 -67t75.5 -111t29 -155.5q0 -90 -29 -157t-75.5 -111t-105 -65.5t-117.5 -21.5zM368 27q47 0 93 19t82.5 58t59 99t22.5 141q0 79 -22.5 139
t-59 99.5t-82.5 59.5t-93 20q-48 0 -93.5 -19.5t-81 -59.5t-57.5 -99.5t-22 -139.5q0 -82 22 -141.5t57.5 -98.5t81 -58t93.5 -19zM531 760q-41 1 -82.5 1h-81.5h-82.5t-82.5 -1v37q52 -1 88.5 -1.5t76.5 -0.5h37.5t38 0.5t41 1t47.5 0.5v-37z" />
    <glyph glyph-name="omacron" unicode="&#x14d;" horiz-adv-x="576" 
d="M274 -11q-45 0 -87 15.5t-75 45.5t-53 75.5t-20 105.5t20 105t53 75.5t75 45.5t87 15q43 0 85 -15t75 -45.5t53 -75.5t20 -105t-20 -105.5t-53 -75.5t-75 -45.5t-85 -15.5zM274 25q31 0 61.5 13t54.5 39t38.5 64.5t14.5 89.5q0 50 -14.5 88.5t-38.5 64t-54.5 38.5
t-61.5 13q-33 0 -63.5 -13t-54.5 -38.5t-38.5 -64t-14.5 -88.5q0 -51 14.5 -89.5t38.5 -64.5t54.5 -39t63.5 -13zM433 572q-41 1 -82.5 1h-81.5h-82.5t-82.5 -1v37q52 -1 88.5 -1.5t76.5 -0.5h37.5t38 0.5t41 1t47.5 0.5v-37z" />
    <glyph glyph-name="Obreve" unicode="&#x14e;" 
d="M368 -11q-60 0 -118.5 21.5t-104.5 65.5t-74 110.5t-28 157.5q0 89 28 156t74 111.5t104.5 66.5t118.5 22q59 0 117.5 -22.5t105 -67t75.5 -111t29 -155.5q0 -90 -29 -157t-75.5 -111t-105 -65.5t-117.5 -21.5zM368 27q47 0 93 19t82.5 58t59 99t22.5 141q0 79 -22.5 139
t-59 99.5t-82.5 59.5t-93 20q-48 0 -93.5 -19.5t-81 -59.5t-57.5 -99.5t-22 -139.5q0 -82 22 -141.5t57.5 -98.5t81 -58t93.5 -19zM505 864q-5 -21 -14.5 -41.5t-26 -37t-39.5 -26.5t-55 -10t-55.5 10t-39.5 26.5t-25 37t-13 41.5h33q10 -39 38 -59.5t62 -20.5
q35 0 61.5 20.5t37.5 59.5h36z" />
    <glyph glyph-name="obreve" unicode="&#x14f;" horiz-adv-x="554" 
d="M278 -11q-45 0 -87 15.5t-75 45.5t-53 75.5t-20 105.5t20 105t53 75.5t75 45.5t87 15q43 0 85 -15t75 -45.5t53 -75.5t20 -105t-20 -105.5t-53 -75.5t-75 -45.5t-85 -15.5zM278 25q31 0 61.5 13t54.5 39t38.5 64.5t14.5 89.5q0 50 -14.5 88.5t-38.5 64t-54.5 38.5
t-61.5 13q-33 0 -63.5 -13t-54.5 -38.5t-38.5 -64t-14.5 -88.5q0 -51 14.5 -89.5t38.5 -64.5t54.5 -39t63.5 -13zM414 664q-5 -21 -14.5 -41.5t-26 -37t-39.5 -26.5t-55 -10t-55.5 10t-39.5 26.5t-25 37t-13 41.5h33q10 -39 38 -59.5t62 -20.5q35 0 61.5 20.5t37.5 59.5h36z
" />
    <glyph glyph-name="Ohungarumlaut" unicode="&#x150;" 
d="M368 -11q-60 0 -118.5 21.5t-104.5 65.5t-74 110.5t-28 157.5q0 89 28 156t74 111.5t104.5 66.5t118.5 22q59 0 117.5 -22.5t105 -67t75.5 -111t29 -155.5q0 -90 -29 -157t-75.5 -111t-105 -65.5t-117.5 -21.5zM368 27q47 0 93 19t82.5 58t59 99t22.5 141q0 79 -22.5 139
t-59 99.5t-82.5 59.5t-93 20q-48 0 -93.5 -19.5t-81 -59.5t-57.5 -99.5t-22 -139.5q0 -82 22 -141.5t57.5 -98.5t81 -58t93.5 -19zM420 753q10 16 25 41t32 49t34 42.5t31 20.5q8 0 21.5 -8t17.5 -19q-3 -13 -19 -30.5t-38 -35.5t-45 -34.5t-40 -25.5h-19zM287 753
q9 14 24 38.5t32 49.5t34 44t32 21q8 0 22 -8t18 -19q-3 -13 -19.5 -30.5t-38 -35.5t-45 -34.5t-40.5 -25.5h-19z" />
    <glyph glyph-name="ohungarumlaut" unicode="&#x151;" horiz-adv-x="554" 
d="M278 -11q-45 0 -87 15.5t-75 45.5t-53 75.5t-20 105.5t20 105t53 75.5t75 45.5t87 15q43 0 85 -15t75 -45.5t53 -75.5t20 -105t-20 -105.5t-53 -75.5t-75 -45.5t-85 -15.5zM278 25q31 0 61.5 13t54.5 39t38.5 64.5t14.5 89.5q0 50 -14.5 88.5t-38.5 64t-54.5 38.5
t-61.5 13q-33 0 -63.5 -13t-54.5 -38.5t-38.5 -64t-14.5 -88.5q0 -51 14.5 -89.5t38.5 -64.5t54.5 -39t63.5 -13zM329 553q10 16 25 41t32 49t34 42.5t31 20.5q8 0 21.5 -8t17.5 -19q-3 -13 -19 -30.5t-38 -35.5t-45 -34.5t-40 -25.5h-19zM196 553q9 14 24 38.5t32 49.5
t34 44t32 21q8 0 22 -8t18 -19q-3 -13 -19.5 -30.5t-38 -35.5t-45 -34.5t-40.5 -25.5h-19z" />
    <glyph glyph-name="OE" unicode="&#x152;" horiz-adv-x="1050" 
d="M951 -3q-88 2 -180 3.5t-183 1.5q-8 0 -17 -0.5t-17 -1.5q0 11 0.5 22.5t1.5 24.5q-42 -32 -91 -46.5t-97 -14.5q-60 0 -118.5 22t-104.5 66.5t-74 112t-28 158.5q0 89 28 155.5t74 111t104.5 66.5t118.5 22q48 0 97 -15.5t91 -46.5q-1 13 -1.5 25t-0.5 23q8 -2 17 -2h17
q81 0 163 1t168 4v-45q-32 1 -70 2t-77.5 1.5t-78 0.5h-71.5q-2 -64 -2.5 -136t-0.5 -135q64 0 129.5 0.5t126.5 2.5v-47q-74 2 -133.5 3t-122.5 1v-70.5t0.5 -76.5t1 -77.5t1.5 -72.5h78.5t90 0.5t88 1t72.5 1.5v-46zM558 138q1 52 1 105.5v99.5v99.5t-1 105.5
q-34 57 -85 85.5t-105 28.5q-48 0 -93.5 -19.5t-81 -59t-57.5 -99t-22 -139.5q0 -82 22 -142.5t57.5 -100t81 -59t93.5 -19.5q54 0 105 27.5t85 86.5z" />
    <glyph glyph-name="oe" unicode="&#x153;" horiz-adv-x="930" 
d="M890 99q-38 -55 -90 -80t-114 -25q-72 0 -123.5 34t-77.5 88q-15 -31 -37 -54t-49 -38.5t-56.5 -23t-59.5 -7.5q-45 0 -87 15t-75 45t-53 75t-20 105t20 105t53 74.5t75 44.5t87 15q31 0 61 -8t56.5 -23.5t48.5 -39.5t37 -56q29 57 82.5 92t119.5 35q33 0 65.5 -9.5
t58 -27.5t41.5 -43.5t16 -56.5q0 -42 -18.5 -71.5t-49 -48t-70 -27t-80.5 -8.5q-32 0 -67.5 8t-63.5 20q3 -38 16.5 -70.5t36 -56.5t53.5 -37.5t68 -13.5q54 0 98 19.5t85 62.5zM283 29q31 0 61.5 13t54.5 38.5t38.5 63.5t14.5 89q0 50 -14.5 88t-38.5 63.5t-54.5 38
t-61.5 12.5q-33 0 -63.5 -12.5t-54.5 -38t-38.5 -63.5t-14.5 -88q0 -51 14.5 -89t38.5 -63.5t54.5 -38.5t63.5 -13zM518 249q25 -14 63 -23t72 -9q30 0 58 6t50 19.5t35.5 36t13.5 55.5q0 21 -10 39.5t-27 32t-39.5 21.5t-47.5 8q-36 0 -65.5 -15.5t-51.5 -41t-35 -59.5
t-16 -70z" />
    <glyph glyph-name="Racute" unicode="&#x154;" horiz-adv-x="535" 
d="M515 -6q-34 18 -61 34.5t-51.5 37.5t-48 47.5t-50.5 64.5l-87 127h-79v-76.5t1 -79.5t2 -78t3 -71q-18 3 -36 3t-34 -3q2 38 3 82t2 89t1 89.5v82.5v82t-1 89.5t-2 89.5t-3 82q8 -1 15.5 -1.5t14.5 -0.5q5 0 16 0.5t24.5 0.5t28 0.5t25.5 0.5q58 0 102.5 -15.5t75 -42
t46.5 -61t16 -72.5q0 -27 -9.5 -55t-28 -52t-47.5 -43t-68 -29q31 -48 58 -91.5t55 -82t58.5 -71.5t68.5 -60zM203 341q46 0 77 13.5t50.5 35.5t28 49.5t8.5 55.5t-8 56t-27.5 49.5t-51 35t-78.5 13.5h-60q-2 -36 -2.5 -75.5t-1 -79.5t-0.5 -79v-74h65zM229 749h-24l108 140
q10 15 27.5 33.5t36.5 18.5q14 0 23.5 -8t9.5 -21q0 -2 -1 -5.5t-5.5 -8.5t-13.5 -13.5t-25 -21.5z" />
    <glyph glyph-name="racute" unicode="&#x155;" horiz-adv-x="352" 
d="M347 420q0 -19 -13 -27.5t-27 -7.5q-14 0 -25 10t-11 29q-5 5 -13.5 5.5t-18.5 -0.5q-25 -2 -46.5 -17.5t-37.5 -42t-25 -62t-9 -77.5q0 -58 1.5 -120t3.5 -110q-20 3 -33 3q-18 0 -36 -3q2 24 3 53.5t2 60t1 60v55.5q0 33 -0.5 65.5t-1.5 61.5t-3 53t-5 40q15 0 34 3.5
t40 11.5q-1 -22 -2 -47.5t-1 -50.5q18 44 56.5 74t87.5 30q10 0 23.5 -2.5t26 -8.5t21 -15.5t8.5 -23.5zM254 549h-24l108 140q10 15 27.5 33.5t36.5 18.5q14 0 23.5 -8t9.5 -21q0 -2 -1 -5.5t-5.5 -8.5t-13.5 -13.5t-25 -21.5z" />
    <glyph glyph-name="uni0156" unicode="&#x156;" horiz-adv-x="535" 
d="M515 -6q-34 18 -61 34.5t-51.5 37.5t-48 47.5t-50.5 64.5l-87 127h-79v-76.5t1 -79.5t2 -78t3 -71q-18 3 -36 3t-34 -3q2 38 3 82t2 89t1 89.5v82.5v82t-1 89.5t-2 89.5t-3 82q8 -1 15.5 -1.5t14.5 -0.5q5 0 16 0.5t24.5 0.5t28 0.5t25.5 0.5q58 0 102.5 -15.5t75 -42
t46.5 -61t16 -72.5q0 -27 -9.5 -55t-28 -52t-47.5 -43t-68 -29q31 -48 58 -91.5t55 -82t58.5 -71.5t68.5 -60zM203 341q46 0 77 13.5t50.5 35.5t28 49.5t8.5 55.5t-8 56t-27.5 49.5t-51 35t-78.5 13.5h-60q-2 -36 -2.5 -75.5t-1 -79.5t-0.5 -79v-74h65zM204 -350
q17 63 29 106t25 73q8 18 28 18q13 0 22.5 -7.5t11.5 -19.5q1 -3 1.5 -5.5t-0.5 -7.5q-2 -6 -7 -16t-16.5 -29t-30.5 -48t-47 -72z" />
    <glyph glyph-name="uni0157" unicode="&#x157;" horiz-adv-x="352" 
d="M347 420q0 -19 -13 -27.5t-27 -7.5q-14 0 -25 10t-11 29q-5 5 -13.5 5.5t-18.5 -0.5q-25 -2 -46.5 -17.5t-37.5 -42t-25 -62t-9 -77.5q0 -58 1.5 -120t3.5 -110q-20 3 -33 3q-18 0 -36 -3q2 24 3 53.5t2 60t1 60v55.5q0 33 -0.5 65.5t-1.5 61.5t-3 53t-5 40q15 0 34 3.5
t40 11.5q-1 -22 -2 -47.5t-1 -50.5q18 44 56.5 74t87.5 30q10 0 23.5 -2.5t26 -8.5t21 -15.5t8.5 -23.5zM113 -350q17 63 29 106t25 73q8 18 28 18q13 0 22.5 -7.5t11.5 -19.5q1 -3 1.5 -5.5t-0.5 -7.5q-2 -6 -7 -16t-16.5 -29t-30.5 -48t-47 -72z" />
    <glyph glyph-name="Rcaron" unicode="&#x158;" horiz-adv-x="535" 
d="M515 -6q-34 18 -61 34.5t-51.5 37.5t-48 47.5t-50.5 64.5l-87 127h-79v-76.5t1 -79.5t2 -78t3 -71q-18 3 -36 3t-34 -3q2 38 3 82t2 89t1 89.5v82.5v82t-1 89.5t-2 89.5t-3 82q8 -1 15.5 -1.5t14.5 -0.5q5 0 16 0.5t24.5 0.5t28 0.5t25.5 0.5q58 0 102.5 -15.5t75 -42
t46.5 -61t16 -72.5q0 -27 -9.5 -55t-28 -52t-47.5 -43t-68 -29q31 -48 58 -91.5t55 -82t58.5 -71.5t68.5 -60zM203 341q46 0 77 13.5t50.5 35.5t28 49.5t8.5 55.5t-8 56t-27.5 49.5t-51 35t-78.5 13.5h-60q-2 -36 -2.5 -75.5t-1 -79.5t-0.5 -79v-74h65zM89 896l35 3l99 -88
l97 88l37 -3l-134 -147z" />
    <glyph glyph-name="rcaron" unicode="&#x159;" horiz-adv-x="352" 
d="M347 420q0 -19 -13 -27.5t-27 -7.5q-14 0 -25 10t-11 29q-5 5 -13.5 5.5t-18.5 -0.5q-25 -2 -46.5 -17.5t-37.5 -42t-25 -62t-9 -77.5q0 -58 1.5 -120t3.5 -110q-20 3 -33 3q-18 0 -36 -3q2 24 3 53.5t2 60t1 60v55.5q0 33 -0.5 65.5t-1.5 61.5t-3 53t-5 40q15 0 34 3.5
t40 11.5q-1 -22 -2 -47.5t-1 -50.5q18 44 56.5 74t87.5 30q10 0 23.5 -2.5t26 -8.5t21 -15.5t8.5 -23.5zM108 696l35 3l99 -88l97 88l37 -3l-134 -147z" />
    <glyph glyph-name="Sacute" unicode="&#x15a;" horiz-adv-x="535" 
d="M99 84q29 -30 69.5 -43t74.5 -13q28 0 60.5 7.5t60 24t45.5 43.5t18 65q0 44 -27 75t-68 56t-88.5 47.5t-88.5 49.5t-68 61.5t-27 83.5q0 38 20 67.5t51.5 49.5t70 30.5t75.5 10.5q30 0 65.5 -7.5t64.5 -24.5q7 -4 17.5 -12.5t20 -19t16.5 -22t7 -23.5q0 -14 -9 -24.5
t-23 -12.5q-14 -3 -27 5t-17 23q-5 16 6 33q-23 27 -57.5 37t-68.5 10q-27 0 -53.5 -8t-47.5 -22.5t-34 -35t-13 -46.5q0 -40 27.5 -69t68 -53t88.5 -47t88.5 -51.5t68 -66t27.5 -90.5q0 -47 -21.5 -81.5t-56.5 -57t-78.5 -33.5t-86.5 -11q-37 0 -76 9.5t-71 26t-52.5 38
t-20.5 44.5q0 17 11.5 28.5t28.5 11.5t28.5 -11.5t11.5 -28.5q0 -11 -10 -23zM284 749h-24l108 140q10 15 27.5 33.5t36.5 18.5q14 0 23.5 -8t9.5 -21q0 -2 -1 -5.5t-5.5 -8.5t-13.5 -13.5t-25 -21.5z" />
    <glyph glyph-name="sacute" unicode="&#x15b;" horiz-adv-x="382" 
d="M85 60q20 -20 45.5 -27.5t45.5 -7.5q19 0 39 4.5t36.5 15t27.5 27t11 39.5q0 27 -18 47t-45 37.5t-58 34t-58 36t-45 43.5t-18 57q0 28 13.5 48.5t34.5 33t46.5 18.5t49.5 6q18 0 41.5 -4.5t44.5 -14t35.5 -23.5t14.5 -33q0 -14 -9.5 -23t-21.5 -9t-21.5 9t-9.5 23
q0 3 0.5 7t4.5 7q-14 13 -34.5 19.5t-42.5 6.5q-42 0 -65.5 -21.5t-23.5 -46.5t18 -44t45 -35.5t58.5 -33t58.5 -36.5t45 -45.5t18 -60.5q0 -32 -14 -55.5t-37.5 -39t-53.5 -23t-62 -7.5q-24 0 -51 6t-50 17.5t-38.5 27t-15.5 35.5q0 12 10 20.5t22 8.5t21.5 -8.5t9.5 -20.5
q0 -3 -1.5 -8t-2.5 -7zM205 549h-24l108 140q10 15 27.5 33.5t36.5 18.5q14 0 23.5 -8t9.5 -21q0 -2 -1 -5.5t-5.5 -8.5t-13.5 -13.5t-25 -21.5z" />
    <glyph glyph-name="Scircumflex" unicode="&#x15c;" horiz-adv-x="535" 
d="M99 84q29 -30 69.5 -43t74.5 -13q28 0 60.5 7.5t60 24t45.5 43.5t18 65q0 44 -27 75t-68 56t-88.5 47.5t-88.5 49.5t-68 61.5t-27 83.5q0 38 20 67.5t51.5 49.5t70 30.5t75.5 10.5q30 0 65.5 -7.5t64.5 -24.5q7 -4 17.5 -12.5t20 -19t16.5 -22t7 -23.5q0 -14 -9 -24.5
t-23 -12.5q-14 -3 -27 5t-17 23q-5 16 6 33q-23 27 -57.5 37t-68.5 10q-27 0 -53.5 -8t-47.5 -22.5t-34 -35t-13 -46.5q0 -40 27.5 -69t68 -53t88.5 -47t88.5 -51.5t68 -66t27.5 -90.5q0 -47 -21.5 -81.5t-56.5 -57t-78.5 -33.5t-86.5 -11q-37 0 -76 9.5t-71 26t-52.5 38
t-20.5 44.5q0 17 11.5 28.5t28.5 11.5t28.5 -11.5t11.5 -28.5q0 -11 -10 -23zM393 751l-122 111l-121 -111h-43l164 176l165 -176h-43z" />
    <glyph glyph-name="scircumflex" unicode="&#x15d;" horiz-adv-x="382" 
d="M85 60q20 -20 45.5 -27.5t45.5 -7.5q19 0 39 4.5t36.5 15t27.5 27t11 39.5q0 27 -18 47t-45 37.5t-58 34t-58 36t-45 43.5t-18 57q0 28 13.5 48.5t34.5 33t46.5 18.5t49.5 6q18 0 41.5 -4.5t44.5 -14t35.5 -23.5t14.5 -33q0 -14 -9.5 -23t-21.5 -9t-21.5 9t-9.5 23
q0 3 0.5 7t4.5 7q-14 13 -34.5 19.5t-42.5 6.5q-42 0 -65.5 -21.5t-23.5 -46.5t18 -44t45 -35.5t58.5 -33t58.5 -36.5t45 -45.5t18 -60.5q0 -32 -14 -55.5t-37.5 -39t-53.5 -23t-62 -7.5q-24 0 -51 6t-50 17.5t-38.5 27t-15.5 35.5q0 12 10 20.5t22 8.5t21.5 -8.5t9.5 -20.5
q0 -3 -1.5 -8t-2.5 -7zM315 551l-122 111l-121 -111h-43l164 176l165 -176h-43z" />
    <glyph glyph-name="Scedilla" unicode="&#x15e;" horiz-adv-x="535" 
d="M184 -171q17 -7 32 -11t26 -4q24 0 46 11t22 37q0 12 -6.5 20t-16 13t-22 7.5t-24.5 2.5q-13 2 -25 0l43 84h-10q-37 0 -76 9.5t-71 26t-52.5 38t-20.5 44.5q0 17 11.5 28.5t28.5 11.5t28.5 -11.5t11.5 -28.5q0 -11 -10 -23q29 -30 69.5 -43t74.5 -13q28 0 60.5 7.5
t60 24t45.5 43.5t18 65q0 44 -27 75t-68 56t-88.5 47.5t-88.5 49.5t-68 61.5t-27 83.5q0 38 20 67.5t51.5 49.5t70 30.5t75.5 10.5q30 0 65.5 -7.5t64.5 -24.5q7 -4 17.5 -12.5t20 -19t16.5 -22t7 -23.5q0 -14 -9 -24.5t-23 -12.5q-14 -3 -27 5t-17 23q-5 16 6 33
q-23 27 -57.5 37t-68.5 10q-27 0 -53.5 -8t-47.5 -22.5t-34 -35t-13 -46.5q0 -40 27.5 -69t68 -53t88.5 -47t88.5 -51.5t68 -66t27.5 -90.5q0 -40 -15.5 -70.5t-41.5 -52.5t-60 -35.5t-70 -19.5l-30 -57q25 -1 42.5 -8.5t29 -18t17 -23.5t5.5 -26q0 -29 -26.5 -53t-74.5 -30
q-16 -3 -29 -2q-20 1 -40 7t-34 13z" />
    <glyph glyph-name="scedilla" unicode="&#x15f;" horiz-adv-x="382" 
d="M107 -171q17 -7 32 -11t26 -4q24 0 46 11t22 37q0 12 -6.5 20t-16 13t-22 7.5t-24.5 2.5q-13 2 -25 0l43 84h-1q-24 0 -51 6t-50 17.5t-38.5 27t-15.5 35.5q0 12 10 20.5t22 8.5t21.5 -8.5t9.5 -20.5q0 -3 -1.5 -8t-2.5 -7q20 -20 45.5 -27.5t45.5 -7.5q19 0 39 4.5
t36.5 15t27.5 27t11 39.5q0 27 -18 47t-45 37.5t-58 34t-58 36t-45 43.5t-18 57q0 28 13.5 48.5t34.5 33t46.5 18.5t49.5 6q18 0 41.5 -4.5t44.5 -14t35.5 -23.5t14.5 -33q0 -14 -9.5 -23t-21.5 -9t-21.5 9t-9.5 23q0 3 0.5 7t4.5 7q-14 13 -34.5 19.5t-42.5 6.5
q-42 0 -65.5 -21.5t-23.5 -46.5t18 -44t45 -35.5t58.5 -33t58.5 -36.5t45 -45.5t18 -60.5q0 -26 -9.5 -46.5t-26 -35.5t-38.5 -25t-47 -14l-29 -56q25 -1 42.5 -8.5t29 -18t17 -23.5t5.5 -26q0 -29 -26.5 -53t-74.5 -30q-16 -3 -29 -2q-20 1 -40 7t-34 13z" />
    <glyph glyph-name="Scaron" unicode="&#x160;" horiz-adv-x="535" 
d="M99 84q29 -30 69.5 -43t74.5 -13q28 0 60.5 7.5t60 24t45.5 43.5t18 65q0 44 -27 75t-68 56t-88.5 47.5t-88.5 49.5t-68 61.5t-27 83.5q0 38 20 67.5t51.5 49.5t70 30.5t75.5 10.5q30 0 65.5 -7.5t64.5 -24.5q7 -4 17.5 -12.5t20 -19t16.5 -22t7 -23.5q0 -14 -9 -24.5
t-23 -12.5q-14 -3 -27 5t-17 23q-5 16 6 33q-23 27 -57.5 37t-68.5 10q-27 0 -53.5 -8t-47.5 -22.5t-34 -35t-13 -46.5q0 -40 27.5 -69t68 -53t88.5 -47t88.5 -51.5t68 -66t27.5 -90.5q0 -47 -21.5 -81.5t-56.5 -57t-78.5 -33.5t-86.5 -11q-37 0 -76 9.5t-71 26t-52.5 38
t-20.5 44.5q0 17 11.5 28.5t28.5 11.5t28.5 -11.5t11.5 -28.5q0 -11 -10 -23zM138 896l35 3l99 -88l97 88l37 -3l-134 -147z" />
    <glyph glyph-name="scaron" unicode="&#x161;" horiz-adv-x="382" 
d="M85 60q20 -20 45.5 -27.5t45.5 -7.5q19 0 39 4.5t36.5 15t27.5 27t11 39.5q0 27 -18 47t-45 37.5t-58 34t-58 36t-45 43.5t-18 57q0 28 13.5 48.5t34.5 33t46.5 18.5t49.5 6q18 0 41.5 -4.5t44.5 -14t35.5 -23.5t14.5 -33q0 -14 -9.5 -23t-21.5 -9t-21.5 9t-9.5 23
q0 3 0.5 7t4.5 7q-14 13 -34.5 19.5t-42.5 6.5q-42 0 -65.5 -21.5t-23.5 -46.5t18 -44t45 -35.5t58.5 -33t58.5 -36.5t45 -45.5t18 -60.5q0 -32 -14 -55.5t-37.5 -39t-53.5 -23t-62 -7.5q-24 0 -51 6t-50 17.5t-38.5 27t-15.5 35.5q0 12 10 20.5t22 8.5t21.5 -8.5t9.5 -20.5
q0 -3 -1.5 -8t-2.5 -7zM59 696l35 3l99 -88l97 88l37 -3l-134 -147z" />
    <glyph glyph-name="uni0162" unicode="&#x162;" horiz-adv-x="606" 
d="M267 0q2 38 3 82t2 89t1 89.5v82.5v68t-0.5 78.5t-1.5 80.5t-2 75h-57.5t-47.5 -0.5t-47.5 -1t-57.5 -0.5q1 5 1.5 11t0.5 11t-0.5 10.5t-1.5 10.5q36 0 62.5 -0.5t52.5 -1t56 -0.5h72h66t56 0.5t56 1t66 0.5q-3 -11 -3 -21t3 -22q-33 0 -57.5 0.5t-48 1t-48 0.5h-57.5
q-1 -35 -1.5 -75t-0.5 -80.5v-78.5v-68v-82.5t1 -89.5t1.5 -89t2.5 -82q-10 1 -18.5 2t-17.5 1q-8 0 -17.5 -1t-17.5 -2zM239 -350q17 63 29 106t25 73q8 18 28 18q13 0 22.5 -7.5t11.5 -19.5q1 -3 1.5 -5.5t-0.5 -7.5q-2 -6 -7 -16t-16.5 -29t-30.5 -48t-47 -72z" />
    <glyph glyph-name="uni0163" unicode="&#x163;" horiz-adv-x="361" 
d="M348 63q-26 -33 -55.5 -53.5t-71.5 -20.5q-60 0 -98 32.5t-38 101.5v304q-19 0 -37 -0.5t-36 -1.5q2 10 2 18q0 9 -2 19q18 -1 36.5 -1.5t37.5 -0.5q1 25 10.5 49t26 44t39 35t51.5 22l8 -19q-22 -12 -36 -28t-22 -34t-11 -36t-3 -33q65 0 108.5 0.5t84.5 2.5
q-3 -9 -3 -20t3 -18q-38 1 -81 1.5t-112 0.5v-292q0 -55 24.5 -80.5t62.5 -25.5q32 0 53.5 12t46.5 33zM115 -350q17 63 29 106t25 73q8 18 28 18q13 0 22.5 -7.5t11.5 -19.5q1 -3 1.5 -5.5t-0.5 -7.5q-2 -6 -7 -16t-16.5 -29t-30.5 -48t-47 -72z" />
    <glyph glyph-name="Tcaron" unicode="&#x164;" horiz-adv-x="606" 
d="M267 0q2 38 3 82t2 89t1 89.5v82.5v68t-0.5 78.5t-1.5 80.5t-2 75h-57.5t-47.5 -0.5t-47.5 -1t-57.5 -0.5q1 5 1.5 11t0.5 11t-0.5 10.5t-1.5 10.5q36 0 62.5 -0.5t52.5 -1t56 -0.5h72h66t56 0.5t56 1t66 0.5q-3 -11 -3 -21t3 -22q-33 0 -57.5 0.5t-48 1t-48 0.5h-57.5
q-1 -35 -1.5 -75t-0.5 -80.5v-78.5v-68v-82.5t1 -89.5t1.5 -89t2.5 -82q-10 1 -18.5 2t-17.5 1q-8 0 -17.5 -1t-17.5 -2zM169 856l35 3l99 -88l97 88l37 -3l-134 -147z" />
    <glyph glyph-name="tcaron" unicode="&#x165;" horiz-adv-x="587" 
d="M348 63q-26 -33 -55.5 -53.5t-71.5 -20.5q-60 0 -98 32.5t-38 101.5v304q-19 0 -37 -0.5t-36 -1.5q2 10 2 18q0 9 -2 19q18 -1 36.5 -1.5t37.5 -0.5q1 25 10.5 49t26 44t39 35t51.5 22l8 -19q-22 -12 -36 -28t-22 -34t-11 -36t-3 -33q65 0 108.5 0.5t84.5 2.5
q-3 -9 -3 -20t3 -18q-38 1 -81 1.5t-112 0.5v-292q0 -55 24.5 -80.5t62.5 -25.5q32 0 53.5 12t46.5 33zM403 537q17 63 29.5 106t25.5 73q3 8 9.5 13t18.5 5q15 0 26.5 -11.5t6.5 -27.5q-2 -6 -7 -16.5t-16.5 -29t-29.5 -47.5t-46 -72z" />
    <glyph glyph-name="Tbar" unicode="&#x166;" horiz-adv-x="606" 
d="M467 374q-34 1 -66.5 1h-67.5v-32v-82.5t1 -89.5t1.5 -89t2.5 -82q-10 1 -18.5 2t-16.5 1q-9 0 -18 -1l-18 -2q2 38 3 82t2 89t1 89.5v82.5v32h-68t-67 -1v37q38 -1 70 -1.5t65 -0.5q0 57 -1 118t-3 117q-67 0 -132.5 -0.5t-131.5 -0.5q3 22 3 43h591v-21.5t2 -21.5
l-265 1q-2 -56 -2.5 -117t-0.5 -118q32 0 64 0.5t70 1.5v-37z" />
    <glyph glyph-name="tbar" unicode="&#x167;" horiz-adv-x="361" 
d="M349 68q-24 -32 -54.5 -52t-65.5 -21q-15 -2 -27 1q-60 8 -89 45.5t-29 112.5v156q-18 0 -35.5 -0.5t-36.5 -0.5v37l72 -2v83q-19 0 -36.5 -0.5t-35.5 -1.5v37l73 -2q3 51 36.5 92.5t90.5 55.5l9 -19q-23 -12 -37 -28t-21.5 -33t-10.5 -35t-3 -33q65 0 109 0.5t85 2.5
v-38q-38 1 -82 1.5t-113 0.5v-83h40q39 0 75.5 1t77.5 1v-37q-38 1 -75.5 1h-78.5h-39v-170q0 -55 24.5 -80.5t62.5 -25.5q29 0 52.5 13t49.5 35z" />
    <glyph glyph-name="Utilde" unicode="&#x168;" horiz-adv-x="646" 
d="M532 687q9 -3 21 -3q11 0 22 3v-436q0 -57 -13 -98.5t-34 -70.5t-47 -47.5t-53 -28.5t-51.5 -13.5t-42.5 -3.5q-50 0 -97.5 12t-84 42t-59 82t-22.5 132v430q10 -2 20 -2.5t18 -0.5t16 0.5t19 2.5v-431q0 -48 10.5 -90t33 -73t58.5 -48.5t88 -17.5q91 0 144.5 55
t53.5 165v440zM498 836q-8 -35 -32 -60.5t-66 -25.5q-17 0 -36 7t-38.5 15t-38.5 15t-36 7q-18 0 -36.5 -10t-24.5 -39l-29 9q7 31 32.5 57t68.5 26q17 0 35 -7t36 -16t36 -16t35 -7q18 0 37 11t29 41z" />
    <glyph glyph-name="utilde" unicode="&#x169;" horiz-adv-x="539" 
d="M417 203v63t-0.5 68.5t-1.5 67.5t-3 61q19 -3 34 -3q17 0 35 3q-2 -24 -2.5 -52.5t-1.5 -58t-1 -58.5v-54q0 -35 0.5 -69.5t1.5 -65.5t3.5 -56t6.5 -41q-16 1 -32 0q-21 -2 -42 -9q1 22 2 47.5t1 52.5q-10 -24 -27.5 -44t-39 -34t-46.5 -22t-49 -9q-10 0 -20 0.5t-19 1.5
q-73 9 -118 64t-45 158v19v54.5t-0.5 60t-1.5 60.5t-2 55q15 -3 32 -3q19 0 34 3q-2 -25 -2.5 -54.5t-1 -60t-0.5 -60.5v-55v-19q0 -34 7 -67t23.5 -59.5t44.5 -43t70 -16.5q34 0 63 14t50.5 38t34 55.5t13.5 67.5zM423 636q-8 -35 -32 -60.5t-66 -25.5q-17 0 -36 7
t-38.5 15t-38.5 15t-36 7q-18 0 -36.5 -10t-24.5 -39l-29 9q7 31 32.5 57t68.5 26q17 0 35 -7t36 -16t36 -16t35 -7q18 0 37 11t29 41z" />
    <glyph glyph-name="Umacron" unicode="&#x16a;" horiz-adv-x="646" 
d="M532 687q9 -3 21 -3q11 0 22 3v-436q0 -57 -13 -98.5t-34 -70.5t-47 -47.5t-53 -28.5t-51.5 -13.5t-42.5 -3.5q-50 0 -97.5 12t-84 42t-59 82t-22.5 132v430q10 -2 20 -2.5t18 -0.5t16 0.5t19 2.5v-431q0 -48 10.5 -90t33 -73t58.5 -48.5t88 -17.5q91 0 144.5 55
t53.5 165v440zM497 760q-41 1 -82.5 1h-81.5h-82.5t-82.5 -1v37q52 -1 88.5 -1.5t76.5 -0.5h37.5t38 0.5t41 1t47.5 0.5v-37z" />
    <glyph glyph-name="umacron" unicode="&#x16b;" horiz-adv-x="539" 
d="M417 203v63t-0.5 68.5t-1.5 67.5t-3 61q19 -3 34 -3q17 0 35 3q-2 -24 -2.5 -52.5t-1.5 -58t-1 -58.5v-54q0 -35 0.5 -69.5t1.5 -65.5t3.5 -56t6.5 -41q-16 1 -32 0q-21 -2 -42 -9q1 22 2 47.5t1 52.5q-10 -24 -27.5 -44t-39 -34t-46.5 -22t-49 -9q-10 0 -20 0.5t-19 1.5
q-73 9 -118 64t-45 158v19v54.5t-0.5 60t-1.5 60.5t-2 55q15 -3 32 -3q19 0 34 3q-2 -25 -2.5 -54.5t-1 -60t-0.5 -60.5v-55v-19q0 -34 7 -67t23.5 -59.5t44.5 -43t70 -16.5q34 0 63 14t50.5 38t34 55.5t13.5 67.5zM422 560q-41 1 -82.5 1h-81.5h-82.5t-82.5 -1v37
q52 -1 88.5 -1.5t76.5 -0.5h37.5t38 0.5t41 1t47.5 0.5v-37z" />
    <glyph glyph-name="Ubreve" unicode="&#x16c;" horiz-adv-x="646" 
d="M532 687q9 -3 21 -3q11 0 22 3v-436q0 -57 -13 -98.5t-34 -70.5t-47 -47.5t-53 -28.5t-51.5 -13.5t-42.5 -3.5q-50 0 -97.5 12t-84 42t-59 82t-22.5 132v430q10 -2 20 -2.5t18 -0.5t16 0.5t19 2.5v-431q0 -48 10.5 -90t33 -73t58.5 -48.5t88 -17.5q91 0 144.5 55
t53.5 165v440zM471 864q-5 -21 -14.5 -41.5t-26 -37t-39.5 -26.5t-55 -10t-55.5 10t-39.5 26.5t-25 37t-13 41.5h33q10 -39 38 -59.5t62 -20.5q35 0 61.5 20.5t37.5 59.5h36z" />
    <glyph glyph-name="ubreve" unicode="&#x16d;" horiz-adv-x="539" 
d="M417 203v63t-0.5 68.5t-1.5 67.5t-3 61q19 -3 34 -3q17 0 35 3q-2 -24 -2.5 -52.5t-1.5 -58t-1 -58.5v-54q0 -35 0.5 -69.5t1.5 -65.5t3.5 -56t6.5 -41q-16 1 -32 0q-21 -2 -42 -9q1 22 2 47.5t1 52.5q-10 -24 -27.5 -44t-39 -34t-46.5 -22t-49 -9q-10 0 -20 0.5t-19 1.5
q-73 9 -118 64t-45 158v19v54.5t-0.5 60t-1.5 60.5t-2 55q15 -3 32 -3q19 0 34 3q-2 -25 -2.5 -54.5t-1 -60t-0.5 -60.5v-55v-19q0 -34 7 -67t23.5 -59.5t44.5 -43t70 -16.5q34 0 63 14t50.5 38t34 55.5t13.5 67.5zM396 664q-5 -21 -14.5 -41.5t-26 -37t-39.5 -26.5t-55 -10
t-55.5 10t-39.5 26.5t-25 37t-13 41.5h33q10 -39 38 -59.5t62 -20.5q35 0 61.5 20.5t37.5 59.5h36z" />
    <glyph glyph-name="Uring" unicode="&#x16e;" horiz-adv-x="646" 
d="M532 687q9 -3 21 -3q11 0 22 3v-436q0 -57 -13 -98.5t-34 -70.5t-47 -47.5t-53 -28.5t-51.5 -13.5t-42.5 -3.5q-50 0 -97.5 12t-84 42t-59 82t-22.5 132v430q10 -2 20 -2.5t18 -0.5t16 0.5t19 2.5v-431q0 -48 10.5 -90t33 -73t58.5 -48.5t88 -17.5q91 0 144.5 55
t53.5 165v440zM432 876q0 -23 -8.5 -43t-23.5 -34.5t-35 -23t-42 -8.5q-23 0 -43 8.5t-35 23t-23.5 34t-8.5 42.5q0 22 8.5 42t23.5 35t35 23.5t43 8.5q22 0 42 -8.5t35 -23.5t23.5 -34.5t8.5 -41.5zM322 804q28 0 50 19.5t22 52.5t-22 52t-50 19t-49.5 -18.5t-21.5 -52.5
q0 -33 22 -52.5t49 -19.5z" />
    <glyph glyph-name="uring" unicode="&#x16f;" horiz-adv-x="539" 
d="M417 203v63t-0.5 68.5t-1.5 67.5t-3 61q19 -3 34 -3q17 0 35 3q-2 -24 -2.5 -52.5t-1.5 -58t-1 -58.5v-54q0 -35 0.5 -69.5t1.5 -65.5t3.5 -56t6.5 -41q-16 1 -32 0q-21 -2 -42 -9q1 22 2 47.5t1 52.5q-10 -24 -27.5 -44t-39 -34t-46.5 -22t-49 -9q-10 0 -20 0.5t-19 1.5
q-73 9 -118 64t-45 158v19v54.5t-0.5 60t-1.5 60.5t-2 55q15 -3 32 -3q19 0 34 3q-2 -25 -2.5 -54.5t-1 -60t-0.5 -60.5v-55v-19q0 -34 7 -67t23.5 -59.5t44.5 -43t70 -16.5q34 0 63 14t50.5 38t34 55.5t13.5 67.5zM378 651q0 -23 -8.5 -43t-23.5 -34.5t-35 -23t-42 -8.5
q-23 0 -43 8.5t-35 23t-23.5 34t-8.5 42.5q0 22 8.5 42t23.5 35t35 23.5t43 8.5q22 0 42 -8.5t35 -23.5t23.5 -34.5t8.5 -41.5zM268 579q28 0 50 19.5t22 52.5t-22 52t-50 19t-49.5 -18.5t-21.5 -52.5q0 -33 22 -52.5t49 -19.5z" />
    <glyph glyph-name="Uhungarumlaut" unicode="&#x170;" horiz-adv-x="646" 
d="M532 687q9 -3 21 -3q11 0 22 3v-436q0 -57 -13 -98.5t-34 -70.5t-47 -47.5t-53 -28.5t-51.5 -13.5t-42.5 -3.5q-50 0 -97.5 12t-84 42t-59 82t-22.5 132v430q10 -2 20 -2.5t18 -0.5t16 0.5t19 2.5v-431q0 -48 10.5 -90t33 -73t58.5 -48.5t88 -17.5q91 0 144.5 55
t53.5 165v440zM390 753q10 16 25 41t32 49t34 42.5t31 20.5q8 0 21.5 -8t17.5 -19q-3 -13 -19 -30.5t-38 -35.5t-45 -34.5t-40 -25.5h-19zM257 753q9 14 24 38.5t32 49.5t34 44t32 21q8 0 22 -8t18 -19q-3 -13 -19.5 -30.5t-38 -35.5t-45 -34.5t-40.5 -25.5h-19z" />
    <glyph glyph-name="uhungarumlaut" unicode="&#x171;" horiz-adv-x="539" 
d="M417 203v63t-0.5 68.5t-1.5 67.5t-3 61q19 -3 34 -3q17 0 35 3q-2 -24 -2.5 -52.5t-1.5 -58t-1 -58.5v-54q0 -35 0.5 -69.5t1.5 -65.5t3.5 -56t6.5 -41q-16 1 -32 0q-21 -2 -42 -9q1 22 2 47.5t1 52.5q-10 -24 -27.5 -44t-39 -34t-46.5 -22t-49 -9q-10 0 -20 0.5t-19 1.5
q-73 9 -118 64t-45 158v19v54.5t-0.5 60t-1.5 60.5t-2 55q15 -3 32 -3q19 0 34 3q-2 -25 -2.5 -54.5t-1 -60t-0.5 -60.5v-55v-19q0 -34 7 -67t23.5 -59.5t44.5 -43t70 -16.5q34 0 63 14t50.5 38t34 55.5t13.5 67.5zM311 553q10 16 25 41t32 49t34 42.5t31 20.5q8 0 21.5 -8
t17.5 -19q-3 -13 -19 -30.5t-38 -35.5t-45 -34.5t-40 -25.5h-19zM178 553q9 14 24 38.5t32 49.5t34 44t32 21q8 0 22 -8t18 -19q-3 -13 -19.5 -30.5t-38 -35.5t-45 -34.5t-40.5 -25.5h-19z" />
    <glyph glyph-name="Uogonek" unicode="&#x172;" horiz-adv-x="646" 
d="M489 -129q-20 -23 -53 -36t-64.5 -10.5t-55 22t-23.5 61.5q0 23 9 43.5t23 37.5q-49 1 -94.5 13.5t-81 43t-57 82t-21.5 129.5v430q10 -2 20 -2.5t18 -0.5t16 0.5t19 2.5v-431q0 -48 10.5 -90t33 -73t58.5 -48.5t88 -17.5q91 0 144.5 55t53.5 165v440q9 -3 21 -3
q11 0 22 3v-436q0 -71 -19.5 -118.5t-49.5 -77t-64.5 -44t-64.5 -18.5q-11 -14 -18 -31t-7 -35q0 -30 17 -46.5t41 -16.5q16 0 33 5.5t33 16.5z" />
    <glyph glyph-name="uogonek" unicode="&#x173;" horiz-adv-x="539" 
d="M571 -127q-20 -23 -53 -36t-64.5 -10.5t-55 22t-23.5 61.5q0 26 11.5 49.5t29.5 40.5q-1 0 -2 -1q1 22 2 47.5t1 52.5q-10 -24 -27.5 -44t-39 -34t-46.5 -22t-49 -9q-10 0 -20 0.5t-19 1.5q-73 9 -118 64t-45 158v19v54.5t-0.5 60t-1.5 60.5t-2 55q15 -3 32 -3q19 0 34 3
q-2 -25 -2.5 -54.5t-1 -60t-0.5 -60.5v-55v-19q0 -34 7 -67t23.5 -59.5t44.5 -43t70 -16.5q34 0 63 14t50.5 38t34 55.5t13.5 67.5v63t-0.5 68.5t-1.5 67.5t-3 61q19 -3 34 -3q17 0 35 3q-2 -24 -2.5 -52.5t-1.5 -58t-1 -58.5v-54q0 -35 0.5 -69.5t1.5 -65.5t3.5 -56
t6.5 -41q-5 0 -9 0.5t-9 0.5q-14 -17 -25 -37t-11 -43q0 -30 17 -46.5t41 -16.5q16 0 33 5.5t33 16.5z" />
    <glyph glyph-name="Wcircumflex" unicode="&#x174;" horiz-adv-x="875" 
d="M550 -2q-29 82 -59 168.5t-62 174.5q-31 -87 -62 -172.5t-63 -170.5l-16 2t-15 1t-15 -1t-15 -2q-58 166 -121.5 343.5t-128.5 344.5q19 -3 39 -3q17 0 37 3q24 -73 50.5 -151t54.5 -157t56 -157t56 -151q29 82 59.5 165t61.5 167q-25 72 -51 143.5t-54 140.5
q19 -3 35 -3q14 0 34 3q16 -48 33.5 -98.5t35.5 -102.5q20 52 37.5 101.5t34.5 99.5q9 -3 19 -3q14 0 29 3q-26 -64 -50.5 -128.5t-48.5 -128.5q33 -93 66.5 -183.5t66.5 -175.5q53 153 110.5 310t107.5 306q10 -3 23 -3q18 0 32 3q-69 -172 -130 -344.5t-126 -343.5
q-8 1 -15.5 2t-14.5 1q-8 0 -16 -1t-15 -2zM553 751l-122 111l-121 -111h-43l164 176l165 -176h-43z" />
    <glyph glyph-name="wcircumflex" unicode="&#x175;" horiz-adv-x="799" 
d="M549 -5q-16 51 -34.5 104t-38.5 104.5t-39.5 99.5t-37.5 89q-35 -84 -76 -188t-75 -209q-15 3 -29 3q-17 0 -30 -3q-42 122 -90 242t-96 226q8 -2 16.5 -3t16.5 -1q9 0 17 1t17 3q35 -99 77 -196.5t85 -197.5q24 58 43 110t36 100t32 93t31 91q7 -2 14 -3t15 -1t15 1
t15 3q35 -98 76 -196t83 -198q23 53 42 102.5t36.5 97.5l35 96t36.5 98q7 -2 13.5 -3t13.5 -1q8 0 14 1t14 3q-48 -106 -98 -226t-92 -242q-14 3 -30 3q-15 0 -28 -3zM519 551l-122 111l-121 -111h-43l164 176l165 -176h-43z" />
    <glyph glyph-name="Ycircumflex" unicode="&#x176;" horiz-adv-x="580" 
d="M252 0q1 31 2 67.5t2 74t1 75.5v73q-31 45 -66 101t-69 111.5t-64.5 104t-51.5 79.5q21 -3 42 -3q19 0 42 3q19 -33 46 -81t56.5 -98.5t57.5 -97.5t50 -77q24 31 55 78.5t62.5 98t59 98t44.5 79.5q12 -3 26 -3q13 0 27 3q-20 -28 -50 -74t-65.5 -99.5t-72 -109
t-69.5 -103.5q0 -75 1.5 -154t3.5 -146q-18 3 -36 3q-16 0 -34 -3zM416 751l-122 111l-121 -111h-43l164 176l165 -176h-43z" />
    <glyph glyph-name="ycircumflex" unicode="&#x177;" horiz-adv-x="445" 
d="M69 463q18 -47 35 -93t36 -94t40 -99t48 -109q26 58 48 109.5t40.5 99.5t35 93.5t31.5 92.5q15 -3 30 -3q16 0 33 3q-17 -35 -30 -63.5t-25.5 -56.5t-25.5 -58t-29.5 -68.5t-37 -88.5t-48.5 -118q-16 -38 -29.5 -69t-29 -59.5t-35 -57.5t-46.5 -64q-11 -9 -22 -12
q-10 -1 -19 0q-12 2 -20.5 12.5t-8.5 22.5q0 16 11 26t27 10q18 0 29 -12q9 13 18.5 30t20 40.5t22.5 53.5t27 71q-32 86 -58.5 151t-49.5 118t-44.5 98.5t-43.5 93.5q8 -2 17 -3t18 -1t18 1t17 3zM350 551l-122 111l-121 -111h-43l164 176l165 -176h-43z" />
    <glyph glyph-name="Ydieresis" unicode="&#x178;" horiz-adv-x="580" 
d="M252 0q1 31 2 67.5t2 74t1 75.5v73q-31 45 -66 101t-69 111.5t-64.5 104t-51.5 79.5q21 -3 42 -3q19 0 42 3q19 -33 46 -81t56.5 -98.5t57.5 -97.5t50 -77q24 31 55 78.5t62.5 98t59 98t44.5 79.5q12 -3 26 -3q13 0 27 3q-20 -28 -50 -74t-65.5 -99.5t-72 -109
t-69.5 -103.5q0 -75 1.5 -154t3.5 -146q-18 3 -36 3q-16 0 -34 -3zM237 830q0 -14 -10.5 -24t-26.5 -10q-14 0 -24.5 10t-10.5 24q0 15 10.5 25.5t24.5 10.5q16 0 26.5 -10.5t10.5 -25.5zM447 830q0 -14 -11.5 -24t-26.5 -10q-14 0 -24.5 10t-10.5 24q0 15 10.5 25.5
t24.5 10.5q15 0 26.5 -10.5t11.5 -25.5z" />
    <glyph glyph-name="Zacute" unicode="&#x179;" horiz-adv-x="639" 
d="M616 44q-2 -6 -3 -12t-1 -11t1 -10.5t2 -10.5q-37 0 -70 1t-65.5 1.5t-65.5 1t-70 0.5q-70 0 -150 -1.5t-152 -2.5q1 5 1 14q0 10 -1 15q34 45 77 103t88.5 120.5t90.5 124.5t83 115t65.5 93t39.5 58q-23 0 -42.5 0.5t-38.5 1.5t-38.5 1.5t-43.5 0.5q-53 0 -115.5 -2
t-119.5 -2q3 9 3 21t-3 21q66 -1 125.5 -1.5t124.5 -0.5q56 0 114.5 0.5t116.5 1.5q-3 -9 -3 -16q0 -4 0.5 -7t1.5 -7l-438 -612q59 0 117 -0.5t114 -0.5q67 0 129 1t126 1zM346 749h-24l108 140q10 15 27.5 33.5t36.5 18.5q14 0 23.5 -8t9.5 -21q0 -2 -1 -5.5t-5.5 -8.5
t-13.5 -13.5t-25 -21.5z" />
    <glyph glyph-name="zacute" unicode="&#x17a;" horiz-adv-x="443" 
d="M421 38q-4 -8 -4 -19t4 -19q-46 1 -100 1h-102h-90.5t-93.5 -1q1 3 1 12v6.5t-1 5.5q49 68 90.5 125.5t75.5 107t62 91t51 78.5h-97h-79t-78 -1q2 8 2 18q0 9 -2 19q41 -1 87.5 -1.5t86.5 -0.5t78 0.5t81 1.5q-1 -4 -1.5 -7t-0.5 -6q0 -2 2 -10q-72 -101 -140.5 -200.5
t-136.5 -201.5q36 0 72 -1t73 -1q40 0 79.5 1.5t80.5 1.5zM244 549h-24l108 140q10 15 27.5 33.5t36.5 18.5q14 0 23.5 -8t9.5 -21q0 -2 -1 -5.5t-5.5 -8.5t-13.5 -13.5t-25 -21.5z" />
    <glyph glyph-name="Zdotaccent" unicode="&#x17b;" horiz-adv-x="639" 
d="M616 44q-2 -6 -3 -12t-1 -11t1 -10.5t2 -10.5q-37 0 -70 1t-65.5 1.5t-65.5 1t-70 0.5q-70 0 -150 -1.5t-152 -2.5q1 5 1 14q0 10 -1 15q34 45 77 103t88.5 120.5t90.5 124.5t83 115t65.5 93t39.5 58q-23 0 -42.5 0.5t-38.5 1.5t-38.5 1.5t-43.5 0.5q-53 0 -115.5 -2
t-119.5 -2q3 9 3 21t-3 21q66 -1 125.5 -1.5t124.5 -0.5q56 0 114.5 0.5t116.5 1.5q-3 -9 -3 -16q0 -4 0.5 -7t1.5 -7l-438 -612q59 0 117 -0.5t114 -0.5q67 0 129 1t126 1zM370 784q0 -14 -11 -24t-25 -10q-16 0 -26 10t-10 24q0 15 10 25t26 10q14 0 25 -10t11 -25z" />
    <glyph glyph-name="zdotaccent" unicode="&#x17c;" horiz-adv-x="443" 
d="M421 38q-4 -8 -4 -19t4 -19q-46 1 -100 1h-102h-90.5t-93.5 -1q1 3 1 12v6.5t-1 5.5q49 68 90.5 125.5t75.5 107t62 91t51 78.5h-97h-79t-78 -1q2 8 2 18q0 9 -2 19q41 -1 87.5 -1.5t86.5 -0.5t78 0.5t81 1.5q-1 -4 -1.5 -7t-0.5 -6q0 -2 2 -10q-72 -101 -140.5 -200.5
t-136.5 -201.5q36 0 72 -1t73 -1q40 0 79.5 1.5t80.5 1.5zM268 584q0 -14 -11 -24t-25 -10q-16 0 -26 10t-10 24q0 15 10 25t26 10q14 0 25 -10t11 -25z" />
    <glyph glyph-name="Zcaron" unicode="&#x17d;" horiz-adv-x="639" 
d="M616 44q-2 -6 -3 -12t-1 -11t1 -10.5t2 -10.5q-37 0 -70 1t-65.5 1.5t-65.5 1t-70 0.5q-70 0 -150 -1.5t-152 -2.5q1 5 1 14q0 10 -1 15q34 45 77 103t88.5 120.5t90.5 124.5t83 115t65.5 93t39.5 58q-23 0 -42.5 0.5t-38.5 1.5t-38.5 1.5t-43.5 0.5q-53 0 -115.5 -2
t-119.5 -2q3 9 3 21t-3 21q66 -1 125.5 -1.5t124.5 -0.5q56 0 114.5 0.5t116.5 1.5q-3 -9 -3 -16q0 -4 0.5 -7t1.5 -7l-438 -612q59 0 117 -0.5t114 -0.5q67 0 129 1t126 1zM200 896l35 3l99 -88l97 88l37 -3l-134 -147z" />
    <glyph glyph-name="zcaron" unicode="&#x17e;" horiz-adv-x="443" 
d="M421 38q-4 -8 -4 -19t4 -19q-46 1 -100 1h-102h-90.5t-93.5 -1q1 3 1 12v6.5t-1 5.5q49 68 90.5 125.5t75.5 107t62 91t51 78.5h-97h-79t-78 -1q2 8 2 18q0 9 -2 19q41 -1 87.5 -1.5t86.5 -0.5t78 0.5t81 1.5q-1 -4 -1.5 -7t-0.5 -6q0 -2 2 -10q-72 -101 -140.5 -200.5
t-136.5 -201.5q36 0 72 -1t73 -1q40 0 79.5 1.5t80.5 1.5zM98 696l35 3l99 -88l97 88l37 -3l-134 -147z" />
    <glyph glyph-name="florin" unicode="&#x192;" horiz-adv-x="742" 
d="M295 127q10 37 17.5 65.5t15 59t17.5 68t26 93.5h-84l13 43h82l21 70q7 23 15 43.5t16 40.5q13 36 31 60.5t39.5 40t45 22.5t46.5 7q22 0 46 -6.5t44 -19t33 -29.5t13 -38q0 -9 -7.5 -16t-16.5 -7q-3 -9 -10.5 -15.5t-19.5 -4.5q-11 2 -18.5 10.5t-7.5 20.5q0 7 3 15
t14 18q-14 17 -30.5 27t-48.5 10q-26 0 -45 -12.5t-33.5 -33.5t-24.5 -48.5t-18 -57.5l-26 -97h98l-14 -43h-95l-70 -265q-20 -76 -33.5 -125.5t-25.5 -84.5q-30 -88 -81 -133t-117 -45q-22 0 -46 7t-43.5 19t-32.5 29t-13 38q0 9 7.5 16.5t16.5 7.5q3 9 11 15.5t20 4.5
q11 -2 18 -11t7 -20q0 -8 -3 -16t-14 -17q14 -16 30.5 -27t47.5 -11q27 0 49.5 17t40.5 44.5t32.5 63t25.5 72t20 72t16 63.5z" />
    <glyph glyph-name="AEacute" unicode="&#x1fc;" horiz-adv-x="867" 
d="M825 -3q-88 2 -179.5 3.5t-181.5 1.5q-10 0 -18.5 -0.5t-16.5 -1.5q3 50 3.5 107.5t1.5 114.5q-30 1 -59.5 1h-55.5q-28 0 -59 -0.5t-61 -0.5q-36 -59 -71 -117t-70 -118q-14 3 -28 3t-29 -3q21 30 41.5 60.5t46 69.5t57.5 89t74.5 117.5t97 156t126.5 204.5q81 0 172 1
t177 4v-45q-32 1 -70 2t-77 1.5t-77.5 0.5h-71.5q-2 -64 -2.5 -136t-0.5 -135q65 0 130 0.5t127 2.5v-47q-74 2 -134 3t-123 1v-70.5t0.5 -76.5t1 -77.5t1.5 -72.5h78t89.5 0.5t87.5 1t73 1.5v-46zM434 260q1 19 1 38.5v37.5v46v105.5t-2 108.5q-49 -75 -98 -154.5
t-95 -154.5l-18 -27h212zM453 720h-24l108 140q10 15 27.5 33.5t36.5 18.5q14 0 23.5 -8t9.5 -21q0 -2 -1 -5.5t-5.5 -8.5t-13.5 -13.5t-25 -21.5z" />
    <glyph glyph-name="aeacute" unicode="&#x1fd;" horiz-adv-x="843" 
d="M800 99q-38 -55 -90 -80t-114 -25q-60 0 -104 26t-70 69q0 -42 9 -84q-15 2 -32 0q-20 -1 -41 -8q0 12 0.5 26t1.5 31q-13 -18 -34.5 -30.5t-45 -21t-46.5 -12t-39 -3.5q-30 0 -58.5 6.5t-51 20.5t-36 37.5t-13.5 58.5q0 32 17 57.5t44.5 44t62.5 32t71 22.5t70.5 14.5
t60.5 8.5q-3 75 -32.5 110.5t-94.5 35.5q-26 0 -55.5 -9.5t-48.5 -29.5q2 -5 4.5 -10.5t2.5 -12.5q0 -14 -10.5 -24.5t-26.5 -10.5q-15 0 -25.5 10t-10.5 24q0 8 4 16t10 14q30 37 74 53.5t85 16.5q59 0 103.5 -27.5t61.5 -86.5q30 51 81.5 82.5t113.5 31.5q33 0 65.5 -9
t58 -26.5t41.5 -43t16 -58.5q0 -44 -18.5 -74t-49 -48t-70 -25.5t-80.5 -7.5q-32 0 -67.5 8t-63.5 20q3 -38 16.5 -70.5t36 -56.5t53.5 -37.5t68 -13.5q54 0 98 19.5t85 62.5zM428 249q25 -14 63 -23t72 -9q30 0 58 5t50 18t35.5 36t13.5 58q0 23 -10 41.5t-27 32
t-39.5 20.5t-47.5 7q-36 0 -65.5 -15.5t-51.5 -41t-35 -59.5t-16 -70zM361 249q-17 -1 -42.5 -4t-54.5 -9.5t-58.5 -17t-53 -25.5t-38 -34.5t-14.5 -44.5q0 -32 10.5 -50t27.5 -27t38.5 -11t43.5 -2q18 0 42.5 6.5t46 20t36.5 34t15 49.5q0 24 0.5 50.5t0.5 64.5zM408 548
h-24l108 140q10 15 27.5 33.5t36.5 18.5q14 0 23.5 -8t9.5 -21q0 -2 -1 -5.5t-5.5 -8.5t-13.5 -13.5t-25 -21.5z" />
    <glyph glyph-name="Oslashacute" unicode="&#x1fe;" 
d="M258 -90q-7 2 -15 2h-17h-15.5t-15.5 -2l37 105q-40 18 -74.5 47.5t-60 71t-40 94t-14.5 117.5q0 89 28 155.5t74 111t104.5 66.5t118.5 22q47 0 95 -17l17 46q13 -3 32 -3q8 0 15.5 0.5t15.5 2.5l-24 -66q37 -20 69 -49.5t56 -69t37.5 -89.5t13.5 -110q0 -90 -29 -157.5
t-75.5 -112.5t-105 -67t-117.5 -22q-39 0 -80 11zM345 328q26 78 52 157.5t53 160.5q-11 4 -21 7t-21 5q-24 5 -48 3q-47 -2 -91 -22t-78.5 -59.5t-55.5 -98t-21 -136.5q0 -110 39 -180.5t96 -103.5zM368 24q47 0 93 20t82.5 59.5t59 100t22.5 141.5q0 49 -9.5 91t-26 75.5
t-39 59.5t-48.5 44q-54 -152 -104.5 -298.5t-96.5 -282.5q17 -5 33.5 -7.5t33.5 -2.5zM382 755h-25l82 108q9 12 16 22t15 19t18.5 17.5t25.5 17.5q14 7 22 7q26 -3 26 -28q0 -2 -1 -5.5t-5.5 -8.5t-13.5 -13.5t-25 -21.5z" />
    <glyph glyph-name="oslashacute" unicode="&#x1ff;" horiz-adv-x="554" 
d="M178 -67q-6 0 -12.5 0.5t-13.5 0.5h-13.5t-12.5 -1q7 21 14 41l14 40q-28 12 -52.5 32t-42.5 47.5t-28 62.5t-10 77q0 60 20 105t53 74.5t75 44.5t87 15q14 0 27.5 -2t26.5 -5l21 63q6 0 12.5 -0.5t14.5 -0.5h13t13 1l-26 -78q28 -12 52 -32t41.5 -47t27.5 -61.5
t10 -76.5q0 -60 -20 -105t-53 -75t-75 -45t-85 -15q-15 0 -28.5 2t-27.5 4zM172 57q13 38 25.5 72.5t24.5 69.5l15 45q16 46 31 92t31 93q-21 6 -43 6q-32 0 -62 -12t-53.5 -36.5t-38.5 -60.5t-16 -84q0 -30 4 -53q8 -47 30 -80t52 -52zM214 36q20 -7 42 -7q31 0 61 12.5
t53.5 37t38.5 61t16 84.5q0 33 -6 62q-9 42 -30 71.5t-48 47.5l-60 -176zM276 540h-25l108 140q10 15 27.5 33.5t36.5 18.5q14 0 24 -8t10 -20q0 -5 -7 -15t-38 -35z" />
    <glyph glyph-name="uni0218" unicode="&#x218;" horiz-adv-x="535" 
d="M99 84q29 -30 69.5 -43t74.5 -13q28 0 60.5 7.5t60 24t45.5 43.5t18 65q0 44 -27 75t-68 56t-88.5 47.5t-88.5 49.5t-68 61.5t-27 83.5q0 38 20 67.5t51.5 49.5t70 30.5t75.5 10.5q30 0 65.5 -7.5t64.5 -24.5q7 -4 17.5 -12.5t20 -19t16.5 -22t7 -23.5q0 -14 -9 -24.5
t-23 -12.5q-14 -3 -27 5t-17 23q-5 16 6 33q-23 27 -57.5 37t-68.5 10q-27 0 -53.5 -8t-47.5 -22.5t-34 -35t-13 -46.5q0 -40 27.5 -69t68 -53t88.5 -47t88.5 -51.5t68 -66t27.5 -90.5q0 -47 -21.5 -81.5t-56.5 -57t-78.5 -33.5t-86.5 -11q-37 0 -76 9.5t-71 26t-52.5 38
t-20.5 44.5q0 17 11.5 28.5t28.5 11.5t28.5 -11.5t11.5 -28.5q0 -11 -10 -23z" />
    <glyph glyph-name="uni0219" unicode="&#x219;" horiz-adv-x="382" 
d="M85 60q20 -20 45.5 -27.5t45.5 -7.5q19 0 39 4.5t36.5 15t27.5 27t11 39.5q0 27 -18 47t-45 37.5t-58 34t-58 36t-45 43.5t-18 57q0 28 13.5 48.5t34.5 33t46.5 18.5t49.5 6q18 0 41.5 -4.5t44.5 -14t35.5 -23.5t14.5 -33q0 -14 -9.5 -23t-21.5 -9t-21.5 9t-9.5 23
q0 3 0.5 7t4.5 7q-14 13 -34.5 19.5t-42.5 6.5q-42 0 -65.5 -21.5t-23.5 -46.5t18 -44t45 -35.5t58.5 -33t58.5 -36.5t45 -45.5t18 -60.5q0 -32 -14 -55.5t-37.5 -39t-53.5 -23t-62 -7.5q-24 0 -51 6t-50 17.5t-38.5 27t-15.5 35.5q0 12 10 20.5t22 8.5t21.5 -8.5t9.5 -20.5
q0 -3 -1.5 -8t-2.5 -7zM128 -350q17 63 29 106t25 73q8 18 28 18q13 0 22.5 -7.5t11.5 -19.5q1 -3 1.5 -5.5t-0.5 -7.5q-2 -6 -7 -16t-16.5 -29t-30.5 -48t-47 -72z" />
    <glyph glyph-name="uni0237" unicode="&#x237;" horiz-adv-x="180" 
d="M-22 -255q31 43 55.5 88t25.5 102l2 178q1 28 1 54.5v54.5q0 35 -0.5 69.5t-1.5 65.5t-3 56.5t-5 42.5q18 -1 37 0q22 2 38 7q-3 -50 -4 -112t-1 -120q0 -51 0.5 -94.5t0.5 -89.5v-52t-1 -55q-2 -14 -6.5 -30.5t-18 -40.5t-38 -57.5t-65.5 -81.5z" />
    <glyph glyph-name="circumflex" unicode="&#x2c6;" horiz-adv-x="266" 
d="M256 551l-122 111l-121 -111h-43l164 176l165 -176h-43z" />
    <glyph glyph-name="caron" unicode="&#x2c7;" horiz-adv-x="206" 
d="M-31 694l35 3l99 -88l97 88l37 -3l-134 -147z" />
    <glyph glyph-name="breve" unicode="&#x2d8;" horiz-adv-x="280" 
d="M274 665q-5 -21 -14.5 -41.5t-26 -37t-39.5 -26.5t-55 -10t-55.5 10t-39.5 26.5t-25 37t-13 41.5h33q10 -39 38 -59.5t62 -20.5q35 0 61.5 20.5t37.5 59.5h36z" />
    <glyph glyph-name="dotaccent" unicode="&#x2d9;" horiz-adv-x="216" 
d="M144 594q0 -14 -11 -24t-25 -10q-16 0 -26 10t-10 24q0 15 10 25t26 10q14 0 25 -10t11 -25z" />
    <glyph glyph-name="ring" unicode="&#x2da;" horiz-adv-x="253" 
d="M235 651q0 -23 -8.5 -43t-23.5 -34.5t-35 -23t-42 -8.5q-23 0 -43 8.5t-35 23t-23.5 34t-8.5 42.5q0 22 8.5 42t23.5 35t35 23.5t43 8.5q22 0 42 -8.5t35 -23.5t23.5 -34.5t8.5 -41.5zM125 579q28 0 50 19.5t22 52.5t-22 52t-50 19t-49.5 -18.5t-21.5 -52.5
q0 -33 22 -52.5t49 -19.5z" />
    <glyph glyph-name="ogonek" unicode="&#x2db;" horiz-adv-x="251" 
d="M270 -126q-20 -23 -53 -36t-64.5 -10.5t-55 22t-23.5 61.5q0 32 18 61t44 46h41q-17 -17 -30.5 -39.5t-13.5 -48.5q0 -30 17 -46.5t41 -16.5q16 0 33 5.5t33 16.5z" />
    <glyph glyph-name="tilde" unicode="&#x2dc;" horiz-adv-x="241" 
d="M289 644q-8 -35 -32 -60.5t-66 -25.5q-17 0 -36 7t-38.5 15t-38.5 15t-36 7q-18 0 -36.5 -10t-24.5 -39l-29 9q7 31 32.5 57t68.5 26q17 0 35 -7t36 -16t36 -16t35 -7q18 0 37 11t29 41z" />
    <glyph glyph-name="hungarumlaut" unicode="&#x2dd;" horiz-adv-x="180" 
d="M93 551q10 16 25 41t32 49t34 42.5t31 20.5q8 0 21.5 -8t17.5 -19q-3 -13 -19 -30.5t-38 -35.5t-45 -34.5t-40 -25.5h-19zM-40 551q9 14 24 38.5t32 49.5t34 44t32 21q8 0 22 -8t18 -19q-3 -13 -19.5 -30.5t-38 -35.5t-45 -34.5t-40.5 -25.5h-19z" />
    <glyph glyph-name="uni0446" unicode="&#x446;" horiz-adv-x="570" 
d="M284 -14q-62 0 -107.5 21t-76.5 55t-46 77.5t-15 88.5q0 46 15 89.5t46 78t76.5 55.5t107.5 21q61 0 107.5 -21t77.5 -55.5t46.5 -78t15.5 -89.5q0 -45 -15.5 -88.5t-46.5 -77.5t-77.5 -55t-107.5 -21zM284 23q46 0 80.5 17.5t57 46.5t33.5 66t11 75q0 39 -11 76
t-33.5 66.5t-57 47t-80.5 17.5q-45 0 -79 -17.5t-56.5 -47t-33.5 -66.5t-11 -76q0 -38 11 -75t33.5 -66t56 -46.5t79.5 -17.5z" />
    <glyph glyph-name="uni0447" unicode="&#x447;" horiz-adv-x="423" 
d="M281 0q-8 1 -16.5 1h-17.5h-16.5t-16.5 -1q2 46 2.5 79t1 59t0.5 49.5t-0.5 50.5t-1 61.5t-0.5 83.5q-16 -11 -29.5 -22.5t-30.5 -24.5q-5 8 -11 16.5t-12 16.5q29 26 56.5 51t56.5 52q4 -1 8 -1h9h9t9 1q-2 -71 -3.5 -117t-1.5 -84v-54.5t1 -57t1.5 -69t2.5 -90.5z" />
    <glyph glyph-name="uni0448" unicode="&#x448;" horiz-adv-x="568" 
d="M498 0q-54 1 -107 1h-107h-107t-107 -1q0 3 0.5 6t0.5 8t-0.5 9t-0.5 7q91 34 155 69.5t104.5 71t59 69.5t18.5 64q0 34 -12.5 59t-32.5 41t-46 23.5t-54 7.5t-56.5 -10.5t-54.5 -36.5q3 -4 5 -14q2 -11 0 -16q-2 -12 -11.5 -20.5t-23.5 -8.5q-16 0 -27 11.5t-11 25.5
q0 12 7 24q15 21 35 36.5t43 25.5t47.5 15t48.5 5q39 0 76 -10t66 -30t47 -51.5t18 -73.5q0 -31 -15 -64.5t-48 -68t-85.5 -68.5t-127.5 -65h303q-1 -5 -1 -11.5v-11.5v-9t1 -9z" />
    <glyph glyph-name="Wgrave" unicode="&#x1e80;" horiz-adv-x="875" 
d="M550 -2q-29 82 -59 168.5t-62 174.5q-31 -87 -62 -172.5t-63 -170.5l-16 2t-15 1t-15 -1t-15 -2q-58 166 -121.5 343.5t-128.5 344.5q19 -3 39 -3q17 0 37 3q24 -73 50.5 -151t54.5 -157t56 -157t56 -151q29 82 59.5 165t61.5 167q-25 72 -51 143.5t-54 140.5
q19 -3 35 -3q14 0 34 3q16 -48 33.5 -98.5t35.5 -102.5q20 52 37.5 101.5t34.5 99.5q9 -3 19 -3q14 0 29 3q-26 -64 -50.5 -128.5t-48.5 -128.5q33 -93 66.5 -183.5t66.5 -175.5q53 153 110.5 310t107.5 306q10 -3 23 -3q18 0 32 3q-69 -172 -130 -344.5t-126 -343.5
q-8 1 -15.5 2t-14.5 1q-8 0 -16 -1t-15 -2zM421 749l-139 118q-14 12 -24.5 23t-19.5 22q7 9 18.5 16.5t23.5 12.5q45 -38 85.5 -86.5t84.5 -105.5h-29z" />
    <glyph glyph-name="wgrave" unicode="&#x1e81;" horiz-adv-x="799" 
d="M549 -5q-16 51 -34.5 104t-38.5 104.5t-39.5 99.5t-37.5 89q-35 -84 -76 -188t-75 -209q-15 3 -29 3q-17 0 -30 -3q-42 122 -90 242t-96 226q8 -2 16.5 -3t16.5 -1q9 0 17 1t17 3q35 -99 77 -196.5t85 -197.5q24 58 43 110t36 100t32 93t31 91q7 -2 14 -3t15 -1t15 1
t15 3q35 -98 76 -196t83 -198q23 53 42 102.5t36.5 97.5l35 96t36.5 98q7 -2 13.5 -3t13.5 -1q8 0 14 1t14 3q-48 -106 -98 -226t-92 -242q-14 3 -30 3q-15 0 -28 -3zM387 549l-139 118q-14 12 -24.5 23t-19.5 22q7 9 18.5 16.5t23.5 12.5q45 -38 85.5 -86.5t84.5 -105.5
h-29z" />
    <glyph glyph-name="Wacute" unicode="&#x1e82;" horiz-adv-x="875" 
d="M550 -2q-29 82 -59 168.5t-62 174.5q-31 -87 -62 -172.5t-63 -170.5l-16 2t-15 1t-15 -1t-15 -2q-58 166 -121.5 343.5t-128.5 344.5q19 -3 39 -3q17 0 37 3q24 -73 50.5 -151t54.5 -157t56 -157t56 -151q29 82 59.5 165t61.5 167q-25 72 -51 143.5t-54 140.5
q19 -3 35 -3q14 0 34 3q16 -48 33.5 -98.5t35.5 -102.5q20 52 37.5 101.5t34.5 99.5q9 -3 19 -3q14 0 29 3q-26 -64 -50.5 -128.5t-48.5 -128.5q33 -93 66.5 -183.5t66.5 -175.5q53 153 110.5 310t107.5 306q10 -3 23 -3q18 0 32 3q-69 -172 -130 -344.5t-126 -343.5
q-8 1 -15.5 2t-14.5 1q-8 0 -16 -1t-15 -2zM443 749h-24l108 140q10 15 27.5 33.5t36.5 18.5q14 0 23.5 -8t9.5 -21q0 -2 -1 -5.5t-5.5 -8.5t-13.5 -13.5t-25 -21.5z" />
    <glyph glyph-name="wacute" unicode="&#x1e83;" horiz-adv-x="799" 
d="M549 -5q-16 51 -34.5 104t-38.5 104.5t-39.5 99.5t-37.5 89q-35 -84 -76 -188t-75 -209q-15 3 -29 3q-17 0 -30 -3q-42 122 -90 242t-96 226q8 -2 16.5 -3t16.5 -1q9 0 17 1t17 3q35 -99 77 -196.5t85 -197.5q24 58 43 110t36 100t32 93t31 91q7 -2 14 -3t15 -1t15 1
t15 3q35 -98 76 -196t83 -198q23 53 42 102.5t36.5 97.5l35 96t36.5 98q7 -2 13.5 -3t13.5 -1q8 0 14 1t14 3q-48 -106 -98 -226t-92 -242q-14 3 -30 3q-15 0 -28 -3zM410 549h-24l108 140q10 15 27.5 33.5t36.5 18.5q14 0 23.5 -8t9.5 -21q0 -2 -1 -5.5t-5.5 -8.5
t-13.5 -13.5t-25 -21.5z" />
    <glyph glyph-name="Wdieresis" unicode="&#x1e84;" horiz-adv-x="875" 
d="M550 -2q-29 82 -59 168.5t-62 174.5q-31 -87 -62 -172.5t-63 -170.5l-16 2t-15 1t-15 -1t-15 -2q-58 166 -121.5 343.5t-128.5 344.5q19 -3 39 -3q17 0 37 3q24 -73 50.5 -151t54.5 -157t56 -157t56 -151q29 82 59.5 165t61.5 167q-25 72 -51 143.5t-54 140.5
q19 -3 35 -3q14 0 34 3q16 -48 33.5 -98.5t35.5 -102.5q20 52 37.5 101.5t34.5 99.5q9 -3 19 -3q14 0 29 3q-26 -64 -50.5 -128.5t-48.5 -128.5q33 -93 66.5 -183.5t66.5 -175.5q53 153 110.5 310t107.5 306q10 -3 23 -3q18 0 32 3q-69 -172 -130 -344.5t-126 -343.5
q-8 1 -15.5 2t-14.5 1q-8 0 -16 -1t-15 -2zM372 810q0 -14 -10.5 -24t-26.5 -10q-14 0 -24.5 10t-10.5 24q0 15 10.5 25.5t24.5 10.5q16 0 26.5 -10.5t10.5 -25.5zM582 810q0 -14 -11.5 -24t-26.5 -10q-14 0 -24.5 10t-10.5 24q0 15 10.5 25.5t24.5 10.5q15 0 26.5 -10.5
t11.5 -25.5z" />
    <glyph glyph-name="wdieresis" unicode="&#x1e85;" horiz-adv-x="799" 
d="M549 -5q-16 51 -34.5 104t-38.5 104.5t-39.5 99.5t-37.5 89q-35 -84 -76 -188t-75 -209q-15 3 -29 3q-17 0 -30 -3q-42 122 -90 242t-96 226q8 -2 16.5 -3t16.5 -1q9 0 17 1t17 3q35 -99 77 -196.5t85 -197.5q24 58 43 110t36 100t32 93t31 91q7 -2 14 -3t15 -1t15 1
t15 3q35 -98 76 -196t83 -198q23 53 42 102.5t36.5 97.5l35 96t36.5 98q7 -2 13.5 -3t13.5 -1q8 0 14 1t14 3q-48 -106 -98 -226t-92 -242q-14 3 -30 3q-15 0 -28 -3zM338 610q0 -14 -10.5 -24t-26.5 -10q-14 0 -24.5 10t-10.5 24q0 15 10.5 25.5t24.5 10.5q16 0 26.5 -10.5
t10.5 -25.5zM548 610q0 -14 -11.5 -24t-26.5 -10q-14 0 -24.5 10t-10.5 24q0 15 10.5 25.5t24.5 10.5q15 0 26.5 -10.5t11.5 -25.5z" />
    <glyph glyph-name="Ygrave" unicode="&#x1ef2;" horiz-adv-x="580" 
d="M252 0q1 31 2 67.5t2 74t1 75.5v73q-31 45 -66 101t-69 111.5t-64.5 104t-51.5 79.5q21 -3 42 -3q19 0 42 3q19 -33 46 -81t56.5 -98.5t57.5 -97.5t50 -77q24 31 55 78.5t62.5 98t59 98t44.5 79.5q12 -3 26 -3q13 0 27 3q-20 -28 -50 -74t-65.5 -99.5t-72 -109
t-69.5 -103.5q0 -75 1.5 -154t3.5 -146q-18 3 -36 3q-16 0 -34 -3zM284 749l-139 118q-14 12 -24.5 23t-19.5 22q7 9 18.5 16.5t23.5 12.5q45 -38 85.5 -86.5t84.5 -105.5h-29z" />
    <glyph glyph-name="ygrave" unicode="&#x1ef3;" horiz-adv-x="445" 
d="M69 463q18 -47 35 -93t36 -94t40 -99t48 -109q26 58 48 109.5t40.5 99.5t35 93.5t31.5 92.5q15 -3 30 -3q16 0 33 3q-17 -35 -30 -63.5t-25.5 -56.5t-25.5 -58t-29.5 -68.5t-37 -88.5t-48.5 -118q-16 -38 -29.5 -69t-29 -59.5t-35 -57.5t-46.5 -64q-11 -9 -22 -12
q-10 -1 -19 0q-12 2 -20.5 12.5t-8.5 22.5q0 16 11 26t27 10q18 0 29 -12q9 13 18.5 30t20 40.5t22.5 53.5t27 71q-32 86 -58.5 151t-49.5 118t-44.5 98.5t-43.5 93.5q8 -2 17 -3t18 -1t18 1t17 3zM218 549l-139 118q-14 12 -24.5 23t-19.5 22q7 9 18.5 16.5t23.5 12.5
q45 -38 85.5 -86.5t84.5 -105.5h-29z" />
    <glyph glyph-name="endash" unicode="&#x2013;" horiz-adv-x="545" 
d="M545 261q-1 -5 -1 -9v-9v-9.5t1 -9.5q-19 1 -50 1.5t-68 1t-77.5 1t-77.5 0.5q-88 0 -158.5 -1t-113.5 -2q0 4 0.5 8.5t0.5 9.5t-0.5 9t-0.5 9q19 -1 49.5 -1.5t67 -1t76.5 -0.5h78q89 0 159.5 0.5t114.5 2.5z" />
    <glyph glyph-name="emdash" unicode="&#x2014;" horiz-adv-x="1019" 
d="M1019 224q-22 1 -76.5 1.5t-126.5 1t-154 1t-158 0.5q-90 0 -171 -0.5t-147 -1t-114 -1t-72 -0.5q0 4 0.5 8.5t0.5 8.5q0 5 -0.5 9.5t-0.5 9.5q21 -1 75 -1.5t125.5 -1t153 -0.5h156.5h172.5t148.5 0.5t115.5 1t72.5 1.5v-37z" />
    <glyph glyph-name="quoteleft" unicode="&#x2018;" horiz-adv-x="241" 
d="M222 703q-17 -63 -29 -106t-25 -73q-4 -8 -10.5 -13t-18.5 -5q-14 0 -26 11.5t-7 27.5q1 6 6.5 16.5t16.5 29t29.5 47.5t46.5 72z" />
    <glyph glyph-name="quoteright" unicode="&#x2019;" horiz-adv-x="241" 
d="M57 524q17 63 29.5 105.5t25.5 72.5q3 8 9.5 13t18.5 5q15 0 26.5 -11t6.5 -27q-2 -6 -7 -16.5t-16.5 -29.5t-29.5 -48t-46 -72z" />
    <glyph glyph-name="quotesinglbase" unicode="&#x201a;" horiz-adv-x="241" 
d="M57 -127q17 63 29.5 106t25.5 73q3 8 9.5 13t18.5 5q15 0 26.5 -11.5t6.5 -27.5q-2 -6 -7 -16.5t-16.5 -29t-29.5 -47.5t-46 -72z" />
    <glyph glyph-name="quotedblleft" unicode="&#x201c;" horiz-adv-x="411" 
d="M219 703q-17 -63 -29.5 -106t-25.5 -73q-3 -8 -9.5 -13t-18.5 -5q-15 0 -26.5 11.5t-6.5 27.5q1 6 6.5 16.5t16.5 29t29.5 47.5t46.5 72zM395 703q-17 -63 -29 -106t-25 -73q-8 -18 -28 -18q-15 0 -27 11.5t-7 27.5q1 6 6.5 16.5t17 29t30 47.5t46.5 72z" />
    <glyph glyph-name="quotedblright" unicode="&#x201d;" horiz-adv-x="412" 
d="M54 524q17 63 29 105.5t25 72.5q4 8 10 13t18 5q15 0 26.5 -11t6.5 -28q-2 -6 -7 -16t-16 -29t-29.5 -48t-46.5 -72zM232 524q17 63 29 105.5t25 72.5q4 8 10 13t18 5q15 0 26.5 -11t6.5 -28q-2 -6 -7 -16t-16.5 -29t-29.5 -48t-46 -72z" />
    <glyph glyph-name="quotedblbase" unicode="&#x201e;" horiz-adv-x="394" 
d="M54 -127q17 63 29 106t25 73q8 18 28 18q15 0 27 -11.5t7 -27.5q-2 -6 -7 -16.5t-16.5 -29t-30 -47.5t-46.5 -72zM213 -127q17 63 29 106t25 73q4 8 10.5 13t18.5 5q14 0 26 -11.5t7 -27.5q-2 -6 -7 -16.5t-16.5 -29t-29.5 -47.5t-46 -72z" />
    <glyph glyph-name="dagger" unicode="&#x2020;" horiz-adv-x="536" 
d="M245 -123q0 98 0.5 198t0.5 196v148h-156q-11 -18 -30 -18q-11 0 -19.5 6.5t-10.5 17.5q-2 10 1.5 18.5t11.5 12.5q2 7 9 11.5t16 3.5q15 -3 22 -15l155 -1v207q-9 7 -12 20q-2 8 2.5 15t12.5 10q0 18 19 18q16 0 25.5 -10t9.5 -25q0 -8 -3 -15t-8 -12q-1 -52 -1 -103.5
v-104.5q39 1 78 1h78q6 12 22 15q10 1 20 -3q10 -2 16.5 -10.5t6.5 -19.5q0 -16 -10 -26.5t-25 -10.5q-21 0 -32 18h-154v-148v-196t1 -198q5 -5 8 -12t3 -15q0 -24 -23 -31q-11 -2 -19.5 2t-11.5 12q-8 2 -12.5 8.5t-2.5 15.5q3 11 12 20z" />
    <glyph glyph-name="daggerdbl" unicode="&#x2021;" horiz-adv-x="551" 
d="M252 -123q1 60 1 121v121h-155q-11 -17 -30 -17q-15 0 -25 10t-10 25q0 8 5 13.5t13 5.5q2 8 8.5 12.5t15.5 2.5q15 -3 23 -15h155v277l-47 -2h-108q-11 -17 -30 -17q-11 0 -20 6.5t-11 17.5q-2 10 2 18.5t12 11.5q2 8 8.5 12.5t15.5 2.5q15 -2 23 -15h155l-1 194
q-4 4 -7 9t-4 10q-2 9 2.5 16t11.5 10q0 8 5.5 13t13.5 5q16 0 26 -10t10 -26q0 -14 -12 -26v-195h155q8 13 22 15q9 2 16 -2.5t9 -12.5q8 0 13.5 -5t5.5 -13q0 -16 -10.5 -26t-25.5 -10q-20 0 -31 17h-155v-276h78t78 1q9 12 22 15q9 2 16 -2.5t9 -12.5q8 0 13.5 -5.5
t5.5 -13.5q0 -15 -10.5 -25t-25.5 -10q-20 0 -31 17h-155q1 -60 1 -121v-121q12 -12 12 -27q0 -26 -23 -31q-11 -2 -19.5 2t-12.5 12q-7 2 -11.5 8.5t-2.5 15.5q1 5 4 10t7 10z" />
    <glyph glyph-name="bullet" unicode="&#x2022;" horiz-adv-x="408" 
d="M339 345q0 -27 -10.5 -51t-29 -41.5t-43.5 -28t-53 -10.5t-52.5 10.5t-42.5 28t-28.5 41.5t-10.5 51t10.5 50.5t28.5 41t42.5 28t52.5 10.5t53 -10.5t43.5 -28t29 -41t10.5 -50.5z" />
    <glyph glyph-name="ellipsis" unicode="&#x2026;" horiz-adv-x="840" 
d="M155 -11q-14 0 -25 11t-11 26q0 14 11 24t25 10q16 0 26 -10t10 -24q0 -15 -10 -26t-26 -11zM419 -11q-14 0 -25 11t-11 26q0 14 11 24t25 10q15 0 26 -10t11 -24q0 -15 -11 -26t-26 -11zM720 26q0 -15 -10.5 -26t-26.5 -11q-14 0 -24.5 11t-10.5 26q0 14 10.5 24
t24.5 10q16 0 26.5 -10t10.5 -24z" />
    <glyph glyph-name="perthousand" unicode="&#x2030;" horiz-adv-x="1321" 
d="M715 -7q-32 0 -61.5 13t-53 38.5t-37.5 64.5t-14 92q0 51 14 90t37.5 64.5t53 38.5t61.5 13q31 0 61 -13t53 -38.5t37.5 -64.5t14.5 -90q0 -53 -14.5 -92t-37.5 -64.5t-53 -38.5t-61 -13zM717 29q19 0 37 11t32 32.5t22.5 53.5t8.5 75q0 42 -8.5 73.5t-22.5 52.5
t-32 31.5t-37 10.5q-20 0 -38.5 -10t-33 -31t-23.5 -52.5t-9 -74.5t9 -75.5t23.5 -54t33 -32t38.5 -10.5zM195 295q-31 0 -61 13t-53 39t-37.5 65t-14.5 91q0 51 14.5 90t37.5 64.5t53 38.5t61 13q30 0 60 -13t53 -38.5t37.5 -64.5t14.5 -90q0 -52 -14.5 -91t-37.5 -65
t-53 -39t-60 -13zM196 331q19 0 37 11t32 32.5t22.5 54t8.5 74.5t-8.5 74t-22.5 53t-32 31.5t-37 10.5q-20 0 -38.5 -10.5t-33 -31.5t-23.5 -52.5t-9 -74.5t9 -75t23.5 -53.5t33 -32.5t38.5 -11zM176 -6q126 181 249 363q61 88 119.5 176.5t118.5 177.5q10 -6 24.5 -12.5
t27.5 -8.5q-125 -182 -246 -359t-241 -357q-12 7 -26 12t-26 8zM1126 -7q-31 0 -60.5 13t-53 38.5t-37.5 64.5t-14 92q0 51 14 90t37.5 64.5t53 38.5t60.5 13t61 -13t53.5 -38.5t37.5 -64.5t14 -90q0 -53 -14 -92t-37.5 -64.5t-53.5 -38.5t-61 -13zM1128 29q19 0 37.5 11
t32.5 32.5t22.5 53.5t8.5 75q0 42 -8.5 73.5t-22.5 52.5t-32.5 31.5t-37.5 10.5t-37.5 -10t-33 -31t-23.5 -52.5t-9 -74.5t9 -75.5t23.5 -54t33 -32t37.5 -10.5z" />
    <glyph glyph-name="guilsinglleft" unicode="&#x2039;" horiz-adv-x="299" 
d="M225 32l-191 196l189 197l41 -2l-168 -195l169 -194z" />
    <glyph glyph-name="guilsinglright" unicode="&#x203a;" horiz-adv-x="299" 
d="M37 34l169 194l-168 195l41 2l189 -197l-191 -196z" />
    <glyph glyph-name="fraction" unicode="&#x2044;" horiz-adv-x="248" 
d="M-143 -14l472 717h63l-473 -717h-62z" />
    <glyph glyph-name="Euro" unicode="&#x20ac;" horiz-adv-x="722" 
d="M365 334q-119 3 -212 3h-37q0 -41 9 -77q53 0 111.5 1t128.5 3v-45q-60 2 -113 3t-99 1h-18q15 -45 40.5 -82.5t59 -63.5t74.5 -40.5t87 -14.5q68 0 122.5 17t102.5 50l12 -15q-26 -23 -56 -40t-62.5 -28t-65 -16t-63.5 -5q-58 0 -109.5 17t-93.5 48.5t-73 75t-48 97.5
l-178 -3v44q46 -2 88.5 -3t80.5 -1q-8 38 -8 76q-37 0 -76.5 -0.5t-84.5 -1.5v44q88 -3 162 -3q6 67 35 126.5t75 103.5t107 69.5t131 25.5q54 0 109 -19.5t96 -61.5q14 -13 28 -36.5t14 -43.5q0 -17 -12.5 -28t-27.5 -11q-17 0 -30 12t-13 29q0 10 5 17t12 13
q-11 22 -31.5 38.5t-46 27.5t-54 17t-53.5 6q-57 0 -105 -24t-83.5 -64t-57.5 -91.5t-27 -105.5q55 0 115.5 0.5t132.5 2.5v-44z" />
    <glyph glyph-name="trademark" unicode="&#x2122;" horiz-adv-x="808" 
d="M135 281q2 45 2.5 101t0.5 101v40.5v46.5t-0.5 47.5t-1.5 44.5h-34.5t-28 -0.5t-28 -1t-33.5 -0.5q0 4 0.5 7t0.5 6q0 4 -0.5 7t-0.5 6q21 0 36.5 -0.5t31 -0.5h33h42.5h39h33.5t33.5 0.5t38 0.5q-1 -4 -1 -13q0 -8 1 -13q-20 0 -34.5 0.5t-28 1t-28 0.5h-33.5
q-1 -21 -1 -44.5v-47.5v-46.5v-40.5q0 -45 0.5 -101t2.5 -101q-6 1 -11.5 1.5t-10.5 0.5t-10 -0.5t-10 -1.5zM682 686q6 -1 10 -1h7h8.5t9.5 1q-2 -44 -2.5 -99t-0.5 -100t0.5 -99.5t2.5 -99.5q-5 1 -10.5 1.5t-11.5 0.5q-5 0 -10 -0.5t-10 -1.5q3 45 3.5 99.5t0.5 99.5
v64.5t-1 67.5q-41 -79 -81 -161.5t-84 -176.5q-41 85 -81 170t-85 172q-2 -34 -1.5 -69t0.5 -67q0 -45 0.5 -99.5t2.5 -99.5q-5 1 -9.5 1.5t-7.5 0.5t-6.5 -0.5t-8.5 -1.5q2 45 2.5 99.5t0.5 99.5t-0.5 100t-2.5 99q6 -1 10 -1h8h8t11 1q38 -85 80 -171.5t84 -171.5
q43 86 84 170.5t80 172.5z" />
    <glyph glyph-name="onethird" unicode="&#x2153;" horiz-adv-x="1090" 
d="M837 288q29 0 52 9.5t39.5 25.5t25 36.5t8.5 43.5q0 17 -5 33.5t-16.5 29t-30 20.5t-44.5 8q-24 0 -45 -5.5t-41 -22.5q8 -6 8 -17t-8.5 -19.5t-19.5 -8.5q-12 0 -20.5 8.5t-8.5 19.5q0 17 13.5 30.5t33.5 23t43 14.5t43 5q37 0 64.5 -10.5t45.5 -27.5t27 -38.5t9 -44.5
q0 -16 -6.5 -34.5t-18.5 -35.5t-28.5 -30.5t-37.5 -20.5q34 -7 58 -20.5t39.5 -31t23 -37.5t7.5 -40q0 -76 -52 -118t-145 -42q-20 0 -44 5.5t-45 15t-35 23.5t-14 31q0 11 7.5 19.5t20.5 8.5q12 0 20 -8t8 -19q0 -10 -6 -16q20 -17 43 -25t47 -8q37 0 64.5 11t46 29.5
t27.5 42t9 48.5q0 31 -13.5 53t-36 36t-52 21t-60.5 8v21zM316 -92q45 123 80.5 223t69.5 195q34 99 67 199.5t68 201.5q15 -3 27.5 -3.5t27.5 3.5q-39 -109 -77.5 -218t-74.5 -213.5t-69.5 -202.5t-63.5 -185q-27 6 -55 0zM108 686q-12 -8 -24 -17.5t-24 -19.5l-17 25
q22 20 43.5 39.5t43.5 40.5q5 -1 13 -1h6.5t7.5 1q-1 -18 -1.5 -51t-1 -71.5t-0.5 -77.5v-69v-64.5v-58.5t0.5 -60t2.5 -70q-7 1 -13 1.5t-12 0.5q-7 0 -13 -0.5t-12 -1.5q1 28 1.5 61t1 66.5t0.5 66.5v62v46v51t-0.5 52t-1.5 49z" />
    <glyph glyph-name="twothirds" unicode="&#x2154;" horiz-adv-x="1196" 
d="M43 232q1 3 1 11q0 6 -1 10q50 52 94.5 99.5t86.5 92.5l31.5 36t32.5 42.5t25 47t10 48.5q0 26 -9.5 45.5t-25 33t-35.5 20.5t-41 7t-42.5 -7.5t-42.5 -27.5q6 -6 7 -11v-6.5t-1 -6.5q-2 -8 -9.5 -14.5t-16.5 -6.5q-12 0 -21 8t-9 19q0 8 3 12.5t7 9.5q23 30 58 44.5
t70 14.5q29 0 57 -8.5t49.5 -25t35 -41.5t13.5 -57q0 -28 -10 -54.5t-27 -52.5t-40.5 -53t-50.5 -55l-132 -141h107h80t81 1q-2 -5 -2 -8.5v-7.5v-9t2 -9h-335zM943 288q29 0 52 9.5t39.5 25.5t25 36.5t8.5 43.5q0 17 -5 33.5t-16.5 29t-30 20.5t-44.5 8q-24 0 -45 -5.5
t-41 -22.5q8 -6 8 -17t-8.5 -19.5t-19.5 -8.5q-12 0 -20.5 8.5t-8.5 19.5q0 17 13.5 30.5t33.5 23t43 14.5t43 5q37 0 64.5 -10.5t45.5 -27.5t27 -38.5t9 -44.5q0 -16 -6.5 -34.5t-18.5 -35.5t-28.5 -30.5t-37.5 -20.5q34 -7 58 -20.5t39.5 -31t23 -37.5t7.5 -40
q0 -76 -52 -118t-145 -42q-20 0 -44 5.5t-45 15t-35 23.5t-14 31q0 11 7.5 19.5t20.5 8.5q12 0 20 -8t8 -19q0 -10 -6 -16q20 -17 43 -25t47 -8q37 0 64.5 11t46 29.5t27.5 42t9 48.5q0 31 -13.5 53t-36 36t-52 21t-60.5 8v21zM438 -92q44 123 80 223t69 195
q35 99 67.5 199.5t67.5 201.5q15 -3 27.5 -3.5t28.5 3.5q-39 -109 -77.5 -218t-75 -213.5t-70 -202.5t-62.5 -185q-27 6 -55 0z" />
    <glyph glyph-name="oneeighth" unicode="&#x215b;" horiz-adv-x="1053" 
d="M902 269q21 -8 40.5 -20.5t34.5 -30t24 -38t9 -44.5q0 -36 -14.5 -63t-38.5 -45.5t-55 -28t-63 -9.5q-31 0 -61 9.5t-53.5 28t-38 45.5t-14.5 63q0 23 8.5 43.5t23.5 38t35 30.5t42 21q-38 14 -62.5 46t-24.5 74q0 27 11.5 51t31.5 42t47 28.5t58 10.5q28 0 54.5 -10
t46.5 -27.5t32.5 -41.5t12.5 -53q0 -40 -24 -72.5t-62 -47.5zM962 136q0 32 -12.5 54t-30.5 36t-39 20.5t-38 6.5t-38 -6.5t-39.5 -20.5t-31 -36t-12.5 -54q0 -29 10.5 -51t27 -37t38 -22.5t44.5 -7.5q22 0 44 7.5t39 22.5t27.5 37t10.5 51zM296 -92q45 123 80.5 223
t69.5 195q34 99 67 199.5t68 201.5q15 -3 27.5 -3.5t27.5 3.5q-39 -109 -77.5 -218t-74.5 -213.5t-69.5 -202.5t-63.5 -185q-27 6 -55 0zM842 284q15 0 32.5 5.5t32 18.5t24 32.5t9.5 48.5q0 28 -9.5 48t-24 32.5t-32 18t-32.5 5.5q-16 0 -33.5 -5.5t-32.5 -18t-24.5 -32.5
t-9.5 -48t9.5 -48t24 -32.5t32 -18.5t34.5 -6zM108 686q-12 -8 -24 -17.5t-24 -19.5l-17 25q22 20 43.5 39.5t43.5 40.5q5 -1 13 -1h6.5t7.5 1q-1 -18 -1.5 -51t-1 -71.5t-0.5 -77.5v-69v-64.5v-58.5t0.5 -60t2.5 -70q-7 1 -13 1.5t-12 0.5q-7 0 -13 -0.5t-12 -1.5
q1 28 1.5 61t1 66.5t0.5 66.5v62v46v51t-0.5 52t-1.5 49z" />
    <glyph glyph-name="threeeighths" unicode="&#x215c;" horiz-adv-x="1202" 
d="M168 520q28 0 51 9.5t39.5 25.5t25 36.5t8.5 43.5q0 17 -5 33.5t-16.5 29t-30 20.5t-44.5 8q-24 0 -44.5 -5.5t-40.5 -22.5q7 -7 7 -17q0 -11 -8.5 -19.5t-19.5 -8.5t-19.5 8.5t-8.5 19.5q0 17 13.5 30.5t33.5 23t43 14.5t43 5q37 0 64.5 -10.5t45.5 -27.5t26.5 -38.5
t8.5 -44.5q0 -16 -6.5 -34.5t-18 -35.5t-28.5 -30.5t-38 -20.5q34 -7 58 -20.5t40 -31t23.5 -37.5t7.5 -40q0 -76 -52 -118t-145 -42q-20 0 -44 5.5t-45 15t-35 23.5t-14 31q0 11 7 19.5t20 8.5q12 0 20 -8t8 -19q0 -10 -6 -16q20 -17 43 -25t48 -8q37 0 64.5 11t46 29.5
t27.5 42t9 48.5q0 31 -14 53t-36.5 36t-51.5 21t-60 8v21zM438 -92q44 123 80 223t69 195q35 99 67.5 199.5t67.5 201.5q16 -3 28.5 -3.5t27.5 3.5q-39 -109 -77.5 -218t-75 -213.5t-70 -202.5t-62.5 -185q-27 6 -55 0zM1052 269q43 -15 75 -50t32 -83q0 -36 -14.5 -63
t-38.5 -45.5t-54.5 -28t-62.5 -9.5q-31 0 -61 9.5t-53.5 28t-38 45.5t-14.5 63q0 23 8.5 43.5t23.5 38t34.5 30.5t41.5 21q-38 14 -62 46t-24 74q0 27 11.5 51t31.5 42t47 28.5t58 10.5q28 0 54.5 -10t46.5 -27.5t32.5 -41.5t12.5 -53q0 -40 -24 -72.5t-62 -47.5zM1112 136
q0 32 -12.5 54t-30.5 36t-39 20.5t-38 6.5q-18 0 -39 -6.5t-39 -20.5t-30.5 -36t-12.5 -54q0 -29 10.5 -51t27 -37t38 -22.5t43.5 -7.5q23 0 45 7.5t39 22.5t27.5 37t10.5 51zM992 284q15 0 32.5 5.5t32 18.5t24 32.5t9.5 48.5q0 28 -9.5 48t-24 32.5t-32 18t-32.5 5.5
q-16 0 -33.5 -5.5t-32.5 -18t-24.5 -32.5t-9.5 -48t9.5 -48t24 -32.5t32 -18.5t34.5 -6z" />
    </font>
</defs>
</svg>
